<svg width="41" height="40" viewBox="0 0 41 40" fill="none" xmlns="http://www.w3.org/2000/svg">
<path opacity="0.5" fill-rule="evenodd" clip-rule="evenodd" d="M39.6477 20C39.6477 30.4934 31.1411 39 20.6477 39C10.1543 39 1.64771 30.4934 1.64771 20C1.64771 9.50659 10.1543 1 20.6477 1C31.1411 1 39.6477 9.50659 39.6477 20ZM40.6477 20C40.6477 31.0457 31.6934 40 20.6477 40C9.60201 40 0.647705 31.0457 0.647705 20C0.647705 8.9543 9.60201 0 20.6477 0C31.6934 0 40.6477 8.9543 40.6477 20ZM20.2942 11.6464L17.1122 14.8284C16.9169 15.0237 16.9169 15.3403 17.1122 15.5355C17.3074 15.7308 17.624 15.7308 17.8193 15.5355L20.1477 13.2071V28H21.1477V13.2071L23.4761 15.5355C23.6714 15.7308 23.988 15.7308 24.1832 15.5355C24.3785 15.3403 24.3785 15.0237 24.1832 14.8284L21.0013 11.6464C20.806 11.4512 20.4894 11.4512 20.2942 11.6464Z" fill="#433E3E"/>
</svg>
