<svg id="Layer_1" data-name="Layer 1" xmlns="http://www.w3.org/2000/svg" viewBox="0 0 569.76 569.76"><defs><style>.cls-1{fill:#8cae9f;}.cls-2{fill:#fff;}.cls-3{opacity:0.3;}</style></defs><rect class="cls-1" x="1.42" y="1.42" width="566.93" height="566.93" rx="283.46"/><path class="cls-2" d="M380.25,353.11a8.84,8.84,0,0,1-5.82-.13,7.7,7.7,0,0,1-2.51-1.56,7.08,7.08,0,0,1-1.72-2.28,6.51,6.51,0,0,1-.61-2.83,6.66,6.66,0,0,1,.61-2.82,6.79,6.79,0,0,1,1.72-2.31,8.41,8.41,0,0,1,2.51-1.55,8.31,8.31,0,0,1,3.11-.57,8.76,8.76,0,0,1,2.73.42,8.45,8.45,0,0,1,2.32,1.18v3.24H382V341a8.69,8.69,0,0,0-2.08-1,7.54,7.54,0,0,0-2.4-.37,7.81,7.81,0,0,0-2.89.52,6.86,6.86,0,0,0-2.31,1.45,6.61,6.61,0,0,0-1.6,2.16,6.18,6.18,0,0,0,0,5.23,6.19,6.19,0,0,0,1.6,2.1,7,7,0,0,0,2.31,1.46,8.28,8.28,0,0,0,5.4.13,8.18,8.18,0,0,0,2.13-1.07l.41.38A9.16,9.16,0,0,1,380.25,353.11Z"/><path class="cls-2" d="M397.58,352.51a8,8,0,0,1-4.12,1.06,4.87,4.87,0,0,1-3.43-1.15,4.19,4.19,0,0,1-1.33-3v-9.53h-3.24v-.52h3.81v10.32a3.47,3.47,0,0,0,1.09,2.32,4.09,4.09,0,0,0,2.81,1.06,8.3,8.3,0,0,0,2.65-.41,6.93,6.93,0,0,0,2.19-1.15,5.6,5.6,0,0,0,1.52-1.73,4.48,4.48,0,0,0,.57-2.22v-7.67h-3.24v-.52h3.81v13.44h3.16v.52h-3.4l-.12-2-.09-1.67A6.23,6.23,0,0,1,397.58,352.51Z"/><path class="cls-2" d="M406.7,353.31v-.52h2.95V325.91h-3v-.52h3.57v27.4h3.61v.52Z"/><path class="cls-2" d="M420.36,353.31V339.87h-3.65v-.52h3.65v-9.08h.57v9.08h5.21v.52h-5.21v12.92h3.57v.52Z"/><path class="cls-2" d="M441.13,352.51a8,8,0,0,1-4.12,1.06,4.83,4.83,0,0,1-3.42-1.15,4.19,4.19,0,0,1-1.34-3v-9.53H429v-.52h3.82v10.32a3.41,3.41,0,0,0,1.08,2.32,4.09,4.09,0,0,0,2.81,1.06,8.3,8.3,0,0,0,2.65-.41,6.93,6.93,0,0,0,2.19-1.15,5.48,5.48,0,0,0,1.52-1.73,4.48,4.48,0,0,0,.57-2.22v-7.67h-3.24v-.52h3.82v13.44h3.15v.52H444l-.12-2-.08-1.67A6.25,6.25,0,0,1,441.13,352.51Z"/><path class="cls-2" d="M450.26,353.31v-.52h3.23V339.87h-3.07v-.52h3.4l.08,2c0,.32,0,.6,0,.83s0,.52,0,.84a6.31,6.31,0,0,1,2.79-2.87,7.84,7.84,0,0,1,1.87-.74,10.42,10.42,0,0,1,2.15-.3v.52a8.66,8.66,0,0,0-2.56.47,7.54,7.54,0,0,0-2.15,1.17A5.27,5.27,0,0,0,454.6,343a4.51,4.51,0,0,0-.53,2.16v7.67h3.32v.52Z"/><path class="cls-2" d="M474.58,353a8.72,8.72,0,0,1-3,.52,8.51,8.51,0,0,1-3.11-.56,7.87,7.87,0,0,1-2.51-1.53,7.27,7.27,0,0,1-1.72-2.31,6.51,6.51,0,0,1-.61-2.83,6.8,6.8,0,0,1,2.33-5.13,8.26,8.26,0,0,1,5.62-2.12,7.71,7.71,0,0,1,2.36.35,7,7,0,0,1,2,1,7.64,7.64,0,0,1,1.48,1.42,7.3,7.3,0,0,1,1.06,1.82c-2.32.87-4.63,1.72-6.91,2.55s-4.58,1.68-6.91,2.55a6.77,6.77,0,0,0,2.67,3.07,7.64,7.64,0,0,0,4.22,1.18,7.84,7.84,0,0,0,2.79-.49,7.4,7.4,0,0,0,2.3-1.34l.37.41A8.42,8.42,0,0,1,474.58,353Zm-6.38-12.68a7.26,7.26,0,0,0-2.52,2,6.54,6.54,0,0,0-1.38,2.79,5.83,5.83,0,0,0,.19,3.17l6.64-2.44,6.64-2.44a6.61,6.61,0,0,0-2.48-2.77,6.7,6.7,0,0,0-3.71-1.06A7.46,7.46,0,0,0,468.2,340.34Z"/><g class="cls-3"><path class="cls-2" d="M258.93,379.5a43.94,43.94,0,0,1,47.63-6.39,28.71,28.71,0,0,1-8.17,8.49C282.14,392.51,260.79,380.58,258.93,379.5Z"/><path class="cls-2" d="M324.72,421a54.8,54.8,0,0,0-5.1-31.71,51,51,0,0,0-13-16.35,32.18,32.18,0,0,0-2.87,11.86C302.88,405.41,322.94,419.73,324.72,421Z"/><path class="cls-2" d="M279.36,348A44,44,0,0,1,327,341.64a28.78,28.78,0,0,1-8.18,8.5C302.58,361,281.22,349.11,279.36,348Z"/><path class="cls-2" d="M345.15,389.49a54.8,54.8,0,0,0-5.1-31.71,50.94,50.94,0,0,0-13-16.35,31.93,31.93,0,0,0-2.86,11.86C323.32,373.94,343.37,388.26,345.15,389.49Z"/><path class="cls-2" d="M301.92,313.45a43.88,43.88,0,0,1,47.63-6.39,28.72,28.72,0,0,1-8.18,8.49C325.13,326.45,303.78,314.52,301.92,313.45Z"/><path class="cls-2" d="M367.86,354.87a54.81,54.81,0,0,0-5.1-31.71,50.94,50.94,0,0,0-13-16.35,31.93,31.93,0,0,0-2.86,11.86C346,339.32,366.08,353.64,367.86,354.87Z"/><path class="cls-2" d="M276.94,441.22a49.6,49.6,0,0,0,16-26.69,52.7,52.7,0,0,0,.32-21.12,27.69,27.69,0,0,0-9.61,6.59C270,414.4,276.36,439.06,276.94,441.22Z"/><path class="cls-2" d="M293.23,393.41c4.57-7.09,11.69-18.06,20.59-31.44C324,346.68,328,341.08,334.55,331.1s15.92-24.53,26.88-43.14"/><path class="cls-2" d="M301.24,162.09c-.25,5.48-1.68,20.22-13.11,33.06a53.26,53.26,0,0,1-19.34,13.65,33.8,33.8,0,0,1-.89-13.92C271.34,172,298.81,162.85,301.24,162.09Z"/><path class="cls-2" d="M212.49,186.45a64.84,64.84,0,0,0,31.78,20.87,60.37,60.37,0,0,0,24.66,1.7,37.71,37.71,0,0,0-8.08-12C243.51,179.8,215,185.88,212.49,186.45Z"/><path class="cls-2" d="M312.41,205.06c-.24,5.48-1.68,20.23-13.11,33.07A53.38,53.38,0,0,1,280,251.78a34.21,34.21,0,0,1-.89-13.93C282.51,215,310,205.83,312.41,205.06Z"/><path class="cls-2" d="M223.67,229.43a64.82,64.82,0,0,0,31.77,20.87A60.37,60.37,0,0,0,280.1,252,37.94,37.94,0,0,0,272,240C254.69,222.77,226.16,228.86,223.67,229.43Z"/><path class="cls-2" d="M324.62,252.38c-.25,5.48-1.68,20.23-13.11,33.06a53.26,53.26,0,0,1-19.34,13.65,34,34,0,0,1-.89-13.92C294.72,262.27,322.19,253.15,324.62,252.38Z"/><path class="cls-2" d="M235.78,276.91a64.89,64.89,0,0,0,31.77,20.87,60.33,60.33,0,0,0,24.66,1.69,37.83,37.83,0,0,0-8.07-12C266.8,270.25,238.27,276.34,235.78,276.91Z"/><path class="cls-2" d="M232.94,128.54a58.84,58.84,0,0,0,10.56,35.27A62.83,62.83,0,0,0,261.7,181a33,33,0,0,0,1.92-13.67C261.9,143.91,235.29,129.75,232.94,128.54Z"/><path class="cls-2" d="M261.7,181c2.55,9.65,6.44,24.62,11,43.09,5.23,21.1,7,29,10.42,42.76s8.72,33.49,16.22,57.92"/></g><path class="cls-2" d="M202.08,213a56.23,56.23,0,0,0-40.87,16.71q-17.07,16.73-17.07,40c0,12.51,3.19,23.29,9.45,32.4l-8.51-2a28.29,28.29,0,0,0-1.63-12.28,28.58,28.58,0,0,0-12.33-14.42c-.24,1.33-2.78,16.57,7.16,23.9a18,18,0,0,0,3.86,2.11l-22.43-5.25a28.27,28.27,0,0,0-1.62-12.37,28.57,28.57,0,0,0-12.34-14.43c-.24,1.34-2.78,16.57,7.16,23.9a17.75,17.75,0,0,0,4.42,2.34l-20.68-4.84a27.7,27.7,0,0,0-14-26.84c-.24,1.34-2.78,16.57,7.16,23.91a18,18,0,0,0,4.76,2.46l-8.21-1.92c2.6.61,5.62,1.33,9,2.14.4.12.78.25,1.21.35a20.13,20.13,0,0,0-7.46.83c-12.46,3.88-16.7,18.86-17.05,20.17a34.58,34.58,0,0,0,17.77-9.79,32.11,32.11,0,0,0,6.94-11.21h-.13v0c2.55.62,5.27,1.28,8.16,2,6.08,1.5,10.09,2.53,13.65,3.45a20.2,20.2,0,0,0-6.28.86c-12.46,3.88-16.7,18.86-17.05,20.17a34.58,34.58,0,0,0,17.77-9.79,32.05,32.05,0,0,0,6.83-10.92c2.54.65,5,1.26,7.86,2,4.4,1.07,10.07,2.4,16.81,3.84a20.15,20.15,0,0,0-6.8.85c-12.46,3.88-16.7,18.85-17,20.17a34.53,34.53,0,0,0,17.76-9.79,32.1,32.1,0,0,0,6.89-11.06c2.68.57,5.54,1.16,8.55,1.76a55.2,55.2,0,0,0,9.11,10.21q17,14.79,38.36,14.79,24.15,0,41.22-16.65a54.25,54.25,0,0,0,17-40.36q0-23.64-16.93-40.5T202.08,213Zm28.65,86.79a39.72,39.72,0,0,1-29.3,12q-16,0-28.21-11.79T160.93,270q0-17.43,11.86-29.29a39.31,39.31,0,0,1,29.07-12q17.29,0,29,12t11.78,29.58A40.6,40.6,0,0,1,230.73,299.83Z"/><path class="cls-2" d="M329.81,218.39q-9.65-3.28-26.29-3.28H280.37v110.3h22.86q16.78,0,25.93-3.07a51.79,51.79,0,0,0,18.72-10.94q17.79-15.7,17.79-41.14t-17.08-40.94A49.35,49.35,0,0,0,329.81,218.39Zm6.78,81.08a37.93,37.93,0,0,1-13.43,7.94q-7.43,2.34-18.64,2.35H297v-79h7.5q21.28,0,32.21,10.08,12.15,11.28,12.15,29.43T336.59,299.47Z"/><path class="cls-2" d="M368.52,325.41h17.93l12.29-26.79H446l11.57,26.79h18.22L423.1,208.18ZM405.67,283l17.15-37.5L439.18,283Z"/><path class="cls-2" d="M49.84,285.87a31.41,31.41,0,0,0,19.27,3.8,33.43,33.43,0,0,0,12.63-4.31,17.41,17.41,0,0,0-6-4.31C64.31,276,51,285.06,49.84,285.87Z"/><path class="cls-2" d="M86.4,286.45l-4.66-1.09Z"/><path class="cls-2" d="M496.16,202.53a17.51,17.51,0,0,0-4.8,2.36l6.44-5.49c-2,1.74-4.47,3.79-7.11,6-.32.24-.64.46-1,.74a20.33,20.33,0,0,0,3.75-6.5c4.27-12.34-5.28-24.63-6.13-25.7a34.61,34.61,0,0,0-2.65,20.11,32.21,32.21,0,0,0,4.91,12.24l.08-.1,0,0c-2,1.7-4.14,3.48-6.45,5.39-4.82,4-8,6.62-10.87,8.94a20.23,20.23,0,0,0,3-5.56c4.26-12.34-5.28-24.63-6.13-25.7a34.61,34.61,0,0,0-2.66,20.12,32,32,0,0,0,4.75,12c-2,1.66-4,3.25-6.25,5.16-3.46,2.9-8,6.76-13.11,11.32a20.36,20.36,0,0,0,3.4-6c4.26-12.34-5.28-24.63-6.14-25.7a34.67,34.67,0,0,0-2.65,20.11,32.34,32.34,0,0,0,4.83,12.12c-3.23,2.87-6.64,5.94-10.39,9.42l10.84-9.25a28.18,28.18,0,0,0,10.85,6,28.54,28.54,0,0,0,18.93-1.38c-.93-1-11.7-12.07-23.5-8.41a18.07,18.07,0,0,0-4,1.86l17.52-14.94a27.75,27.75,0,0,0,29.86,4.65c-.93-1-11.69-12.07-23.49-8.41A17.48,17.48,0,0,0,473.6,220l16.16-13.78a27.76,27.76,0,0,0,29.89,4.68C518.72,210,508,198.87,496.16,202.53Z"/><path class="cls-2" d="M519.92,170.34a31.27,31.27,0,0,0-14.49,13.26,33.11,33.11,0,0,0-4,12.72,17.74,17.74,0,0,0,7-2.25C519.26,187.82,519.88,171.75,519.92,170.34Z"/><path class="cls-2" d="M497.8,199.4l3.62-3.08Z"/><path class="cls-2" d="M426.4,419.22a190.83,190.83,0,0,1-65.7,42.92,194.86,194.86,0,0,1-38.18,10.62,196.59,196.59,0,0,1-78.89-2.5,195.49,195.49,0,0,1-37.43-13,190.73,190.73,0,0,1-62.84-47,211.72,211.72,0,0,0,64.24,43.92,204.84,204.84,0,0,0,37,12.1,204.59,204.59,0,0,0,77.29,2.47A205.05,205.05,0,0,0,359.5,459,211.1,211.1,0,0,0,426.4,419.22Z"/><path class="cls-2" d="M426.4,150.55a211.32,211.32,0,0,0-66.9-39.76,204.23,204.23,0,0,0-37.65-9.73,204.32,204.32,0,0,0-77.29,2.46,204.09,204.09,0,0,0-37,12.11,211.36,211.36,0,0,0-64.24,43.92,190.76,190.76,0,0,1,62.84-47,196.18,196.18,0,0,1,37.43-13A196.59,196.59,0,0,1,322.52,97a196.25,196.25,0,0,1,38.18,10.62A190.72,190.72,0,0,1,426.4,150.55Z"/></svg>