<svg xmlns="http://www.w3.org/2000/svg" xmlns:xlink="http://www.w3.org/1999/xlink" viewBox="0 0 566.93 566.93"><defs><style>.cls-1,.cls-11,.cls-12,.cls-16,.cls-17,.cls-19,.cls-20,.cls-23,.cls-24,.cls-26,.cls-27,.cls-37,.cls-38,.cls-39,.cls-44,.cls-45,.cls-47,.cls-48,.cls-49,.cls-7,.cls-9{fill:none;}.cls-2{isolation:isolate;}.cls-3,.cls-8{fill:#ccac95;}.cls-4,.cls-5,.cls-6{fill:#ffece5;}.cls-4,.cls-42,.cls-45{opacity:0.5;}.cls-6{opacity:0.7;}.cls-11,.cls-12,.cls-45,.cls-47,.cls-7{stroke:#ffece5;}.cls-11,.cls-12,.cls-16,.cls-17,.cls-19,.cls-20,.cls-23,.cls-24,.cls-26,.cls-27,.cls-37,.cls-38,.cls-39,.cls-44,.cls-45,.cls-47,.cls-48,.cls-49,.cls-7,.cls-9{stroke-miterlimit:10;}.cls-7{stroke-width:1.08px;}.cls-8{fill-rule:evenodd;}.cls-37,.cls-48,.cls-9{stroke:#343235;}.cls-9{stroke-width:0.61px;}.cls-10,.cls-46{fill:#343235;}.cls-11{stroke-width:1.05px;}.cls-12{stroke-width:1.03px;}.cls-13{fill:#875251;}.cls-14{fill:#d4b8a3;}.cls-15{clip-path:url(#clip-path);}.cls-16,.cls-17,.cls-19,.cls-20,.cls-23,.cls-24,.cls-26,.cls-27{stroke:#323033;}.cls-16{stroke-width:0.42px;}.cls-17{stroke-width:0.64px;}.cls-18{clip-path:url(#clip-path-2);}.cls-19{stroke-width:0.39px;}.cls-20{stroke-width:0.59px;}.cls-21{clip-path:url(#clip-path-3);}.cls-22{clip-path:url(#clip-path-4);}.cls-23{stroke-width:0.39px;}.cls-24{stroke-width:0.58px;}.cls-25{clip-path:url(#clip-path-5);}.cls-26{stroke-width:0.4px;}.cls-27{stroke-width:0.6px;}.cls-28,.cls-34{fill:#a06a53;}.cls-29,.cls-35{fill:#a3794d;}.cls-30{fill:#bda687;}.cls-30,.cls-34,.cls-35,.cls-46,.cls-49{mix-blend-mode:multiply;}.cls-31{fill:#fff;}.cls-32{fill:#285b80;}.cls-33{fill:#201600;}.cls-36{fill:#000306;}.cls-37{stroke-width:0.83px;}.cls-38,.cls-39{stroke:#000;}.cls-38{stroke-width:0.4px;}.cls-39,.cls-44{stroke-width:0.44px;}.cls-40{fill:#221b24;}.cls-41{opacity:0.4;}.cls-43{fill:#c6948d;}.cls-44{stroke:#5d5a5e;}.cls-45,.cls-47{stroke-width:0.44px;}.cls-48{stroke-width:0.82px;}.cls-49{stroke:#a06a53;stroke-width:1.04px;}</style><clipPath id="clip-path"><path class="cls-1" d="M148.24,220.46c-.46.67-8.29,12.66-2.33,25.89a26.69,26.69,0,0,0,22.51,15.56c.63-1.19,6.71-13.12.43-25.93S149.59,220.69,148.24,220.46Z"/></clipPath><clipPath id="clip-path-2"><path class="cls-1" d="M199.32,243.48c-.65.36-12,6.93-13.67,21-1.11,9.44,2.59,18.57,9.6,23.72a31.16,31.16,0,0,0,12.27-21.88A28.48,28.48,0,0,0,199.32,243.48Z"/></clipPath><clipPath id="clip-path-3"><path class="cls-1" d="M234.27,265.07c-.75.31-13.87,6.06-16.11,20.4a26.68,26.68,0,0,0,10.33,25.34c1.17-.65,12.79-7.32,14.55-21.47S235.27,266,234.27,265.07Z"/></clipPath><clipPath id="clip-path-4"><path class="cls-1" d="M144.3,287.31c.49.61,9.14,11.33,21.15,9.18,8.07-1.44,14.52-8.12,16.74-17.33-.88-.92-9.79-9.94-21.5-7.39S144.73,286.08,144.3,287.31Z"/></clipPath><clipPath id="clip-path-5"><path class="cls-1" d="M173.7,317.83c.63.44,12,7.94,25.26,2.83a25.59,25.59,0,0,0,16.48-20.19c-1.12-.61-12.5-6.49-25.39-1.09A28.47,28.47,0,0,0,173.7,317.83Z"/></clipPath></defs><g class="cls-2"><g id="Layer_1" data-name="Layer 1"><ellipse class="cls-3" cx="292.45" cy="456.1" rx="167.9" ry="22.19"/><circle class="cls-4" cx="119.82" cy="127.32" r="12.63"/><circle class="cls-4" cx="447.46" cy="118.39" r="9.4"/><circle class="cls-5" cx="115.7" cy="155" r="5.63"/><circle class="cls-6" cx="463.09" cy="184.87" r="5.63"/><circle class="cls-5" cx="420.13" cy="99.53" r="3.8"/><circle class="cls-5" cx="122.11" cy="366.3" r="26.53"/><circle class="cls-5" cx="424.26" cy="166.31" r="26.53"/><circle class="cls-7" cx="412.9" cy="116.61" r="7.42"/><circle class="cls-7" cx="131.64" cy="93.85" r="5.2"/><circle class="cls-7" cx="100.65" cy="400.2" r="5.2"/><ellipse class="cls-3" cx="290.82" cy="286.79" rx="182.21" ry="176.23" transform="translate(-106.22 190.96) rotate(-31.03)"/><path class="cls-8" d="M236.34,447.85c-.26.07,1.93,1.16,2.14,1.2.46.07,1-.7,1.65-.63.89.07,1.36.6,3.22.82,1.46.15,3.05-.33,5-.38.88,0,2,.38,3.28.41l.63,0a7.5,7.5,0,0,0,.8,0c.15,0,.44-.42.55-.41.71,0,1.58.49,2.3.45.9,0,1.57-.39,2.43-.41a4.85,4.85,0,0,0,1-.11c.37,0,.42.38.88.4,1.22,0,3.18-.16,5.2-.32s3.73,0,6-.12a6.89,6.89,0,0,0,1.42-.43c.78,0,1.56.42,2.28.4.92,0,2.19-.24,3.51-.35a11.18,11.18,0,0,1,3.85.14c.56.16.7,1.13,1.36,1.31.09,0,.92,0,.93,0,.2.48-3.45,2.93-4.26,3.31a35.21,35.21,0,0,1-3.84,1.11,5.11,5.11,0,0,1-1,.2l-1,.2c-.53.22-.52.82-1,1-.89.27-2.06.08-2.91.33s-1.31.61-2,.83c-.39.12-1,0-1.47.1-.17,0,.1.45-.06.51s-.76-.16-1-.11a25.18,25.18,0,0,0-4.1,1.38c1.9.86,3.73.26,5.42.07,1.35-.18,2.61-.25,4-.48l4.42-.68c1-.15,1.79-.35,3.41-.58s3-.68,4.83-1c.28,0,.6-.3,1-.24.79.12.44.07,1.92-.23s2.81.28,2.42,1.48c-.23.67-1.76,1.22-3.21,1.54s-2.78.64-2.61,1.06c.31.74,1.79.61,3.3.27s3-1,3.53-1.09c1.81-.38,3.28-.24,3.88-.39.38-.1.59-.4.95-.55,1.71-.76,5.46-1.59,8-2.45,1.5-.5,3.66-1.22,5.94-1.82,1.14-.32,2.32-.58,3.43-.9s2.19-.63,3.15-.88c.64.31.21,1.19.79,1.7,1.34,1.18-1.85,2.25-2.78,3.91.17.26,1.28.09,2-.09,1-.24.89-.6,1.35-.77,1.15-.39,2.44-.67,3.75-1.19.45-.17.75-.58,1.32-.82.81-.34,1.24-.41,1.84-.68,1-.44,1.81-1.06,2.66-1.41,1.16-.49,2.56-.61,3.68-1.17s2.42-1.23,3.51-1.79a23.2,23.2,0,0,1,3.46-1.79c1.8-.42.15.58,1.14.43,1.61-.56-.34-.64,1.5-1.59a24.33,24.33,0,0,1,5.7-1.09,5.79,5.79,0,0,1,1.61.2c1.12.39.56,1.94,1.91,2.31a8.42,8.42,0,0,0,2.56-.16,8.7,8.7,0,0,0,4.31-1.16c.82-.59,0-.45,1.25-.85.59-.18,3.17-2.07,4.17-2.7s1.71-.85,2.55-1.48c.21-.16.5-.8.65-.91.37-.27.93-.4,1.31-.66,1.61-1.18,4.53-2.89,6.83-4.77.21-.17.45-.82.59-.94a19.63,19.63,0,0,0,2.4-1.66c.55-.64,1.47-.8,2.78-1.93.38-.32.72-1,.95-1.22a33,33,0,0,1,3-2.24,35.82,35.82,0,0,0,3.57-2.65c.48-.41.78-1.07,1.28-1.53a23.68,23.68,0,0,1,4.48-3.33c1.41-.82,2.66-1.15,3.4-.55a2.39,2.39,0,0,1,.34,2c-.11.8-1.62,2.74.33,2.05a17.11,17.11,0,0,0,4-2.48c.75-.57,1.52-1.2,2.25-1.84s1.39-1.34,2-2,.7-1.11,1.52-2c-.13.13.48.12.54-.13a12.56,12.56,0,0,1,2.43-3.05c1.17-1.29,2.51-2.67,3.37-3.7.07-.08-.15-.21.18-.52.17-.17.65-.31.53-.15.79-1.06.87-1.73,1.55-2.6s1.88-1.92,2.69-2.82c2.6-2.81,4.27-6,6.95-8.15a15.36,15.36,0,0,1,1.71-1.12,8.06,8.06,0,0,0,2-2.17c.38-.56.48-1.23,1-1.7l1.47-.94a14.43,14.43,0,0,1,1.67-1c2.18-.44,2.9,4,4.73-.84.23-.59,0-1.06.23-1.67s1-1.61,1.23-2.18a5.72,5.72,0,0,0,.22-1.65c.44-1.22,1.52-2.86,2-4,.09-.22-.23-.51-.17-.69.25-.72.93-1.52,1.38-2.63.25-.59.31-1.24.56-1.95a6.08,6.08,0,0,1,.73-1.28c.6-1.72.1-2.27,1-3.36a1,1,0,0,1,1.15.08c1.82-1.84-1.09.86.49-.85.42-.46.77-.49,1.16-1,.51-.17.23.79.44,1.36.15.39.79.61.89,1.05.21,1-.5,2.74-.12,2.81,1.11.17,1.9-1.15,2.44-2.7s.74-3.35.91-4.05c.36-1.42.75-2.71,1.17-4s.75-2.73,1.15-4.3.55-3.31,1-5.49c.15-.75.25-1.07.31-1.48.11-.83.86-3.65,1.28-5.32.2-.71.4-1.63.59-2.39,0,.08-.33-.36-.08-.55.91-.7.31-.92.39-1.94s.59-1.7.87-3.32c0-.23-.2-.92-.18-1.08.15-1,.47-2.11.7-3.34.2-1,.51-2.22.71-3.34.33-1.65.39-3.18.59-4.77s.44-3.29.83-5.34a8.75,8.75,0,0,0,.61-1.85,50.5,50.5,0,0,1,1.94-8,7.9,7.9,0,0,1,1.43-2.74,2,2,0,0,1,3.33.44c.1.28.18,1.39.3,1.55.29.37.95-.05,1.28.19s.41,1.25.63,1.1c.61-.4.92-1.59,1.08-3a23.85,23.85,0,0,0,.1-4c-.11-2.37.27-4.81-.43-6.61-.17-.52-.29-4.26-.49-6.05-.07-.6-.3-1.29-.43-2-.07-.42.17-1.08,0-1.49,0-.17-.5-.39-.52-.51-.12-.75.09-2,0-3s-.47-1.28-.52-2c-.07-.93.24-1.38.24-2.48-.05-1.55-.67-3.55-.81-5.42-.06-.87-.06-1.78,0-2.71s-.05-1.84-.11-2.73c-.13-1.56-.41-3.39-.61-5.09a18,18,0,0,1-.27-4.29c.1-.69.65-.18.94-.64s.35-1.76,1.05-1.69c.43.05,1.47.85,1.94.72.07,0,.15-.68.43-.58s1.59,1.36,2.11,1.75a11.82,11.82,0,0,1,1.18.87c.85.77,1.25,1.16,2-.81a13.77,13.77,0,0,0,.7-2.23c.08-.95-.43-3.41-.49-4.73s.07-2,0-2.68a87,87,0,0,0-2-9.87c-.31-1.18-.82-2.06-1.06-3-2.27-8.79-5.92-19.27-10.71-25.82a10.76,10.76,0,0,1-.92-1.77,23.42,23.42,0,0,0-1.33-2.39c-1.26-2-2.75-3.73-4-5.61-1-1.46-1.77-3-2.79-4.41-.23-.3-.53-.35-.74-.78-.08-.16-.2-.8,0-.58-1-1.25-1.54-1.4-2.24-2.3-.89-1.17-2.43-3.36-3.77-5.34s-2.58-3.7-2.69-4.05a4.06,4.06,0,0,0,.13-.72c0,.11,0-.7-.09-.57.28-.3,1.22.65,1.24.4.07-1.21-1.36-3.5-3.13-5.78a54.16,54.16,0,0,0-5.38-5.47c-1-.9-2.47-2.39-4.1-4.08s-3.34-3.64-5.12-5.15c-1.6-1.43-3.2-2.66-4.57-3.77a24.89,24.89,0,0,1-3.37-3c-1-1.23-1.07-3.21-1.85-4.16a14.74,14.74,0,0,0-3.42-2.84c-1.31-.87-2.73-1.76-4.1-2.82-.64-.52-1.23-1.29-1.9-1.81s-2.09-1.52-3.54-2.55c-.72-.52-1.47-1.07-2.15-1.59s-1.37-1-1.89-1.41c-1.92-1.55-3.34-3.6-5.39-5.16-1.67-1.18-3.76-2.44-6-3.76-1.12-.68-2.33-1.29-3.55-1.92L383,122.13c-2.3-1.29-4.73-2.39-7.11-3.57-1.2-.57-2.37-1.17-3.57-1.68s-2.41-1-3.59-1.43c-2.3-.87-4.55-1.46-7-2.22-5.37-1.84-10.86-4.08-15.44-5-1-.17-2.1,0-3.17-.28-2.4-.58-4.24-1.82-8-2.41l-4.23-.65c-1.5-.24-3.11-.33-4.74-.51l-4.92-.47-4.82-.29c-1.39-.09-2.39-.33-3.62-.39-1.79-.08-3.5.23-5.23.16-.78,0-1.73-.41-2.58-.41-.64,0-1.27,0-1.9,0l-1.83.21c-1.21.15-2.38.29-3.55.32-1.54.07-3.13-.14-4.65,0-1.75.12-3.48.32-5.13.49l-4.66.45a10.33,10.33,0,0,1-1.54.13,3.13,3.13,0,0,1-.56-.47c-.42,0-1.47.55-2.53.72-2.51.33-6.34.77-8.2,1-.64.07-1.73.28-2.94.47a32.65,32.65,0,0,1-3.69.56c-3.8.26-6.79,0-6.72-1.92,0,.18.38-.9.36-.87.23-.22,1.26-.32,1.5-.54.71-.62.79-1.23,1.32-1.55.33-.2,1.78-.35,2.57-.72.21-.1.26-.53.44-.61s.82-.06,1.05-.18c.63-.34.69-.83,1.41-1.31.45-.31,1.55-.5,2.05-.81,1.87-1.13,5.06-2.88,1.28-2.51a13.66,13.66,0,0,1-2.12.54,34.14,34.14,0,0,0-3.83.1c-1.1.21-2,.75-3.12,1.08-1.66.5-3,.45-4.75,1.17a9.49,9.49,0,0,1-3.11,1c-1.63.32-2.61,1-4.62,1.59-2.2.73-4.49,1.33-6.69,2.13-1.17.44-2.33.87-3.46,1.41s-2.29,1.07-3.5,1.58-2.77,1.1-4.21,1.65-2.85,1.24-4.19,1.9c-.78.39-1.46,1-2.31,1.45-1.15.59-2.31.78-3.46,1.39a53.9,53.9,0,0,0-5.05,3.1c-1,.7-2.73,1.55-4.58,2.72-1.54,1-3.58,2.07-5.65,3.23a60.4,60.4,0,0,0-5.65,3.67c-.83.61-1.31,1.26-2,1.75-.9.59-2.16,1.21-3.15,1.91-1.83,1.27-3.59,2.91-5.05,3.82-.32.21-.83.44-1.43.76s-1.3.71-2,1.13a17.28,17.28,0,0,0-4,3c-1.14,1.16-4.49,3.53-7.36,6-.81.69-1,1.06-1.49,1.5-.86.76-2.19,1.47-3,2.2-.61.59-.67,1.23-1.25,1.76-.81.75-1.81,1.19-2.55,1.87-2.29,2.21-4.14,4.57-6.12,6.5-1.33,1.26-2.89,2.67-4.57,4.32-1.18,1.23-2.51,2.62-3.67,4.06a39.88,39.88,0,0,1-3.35,3.74,18.67,18.67,0,0,1-2.29,1.77,8,8,0,0,1-1.74,1c-.73.15-1.5-1-1.93-.89a14.4,14.4,0,0,0-2.8,1.89c-2,1.53-2.92,2.11-5.44,6a9.52,9.52,0,0,1-.72,1.47,6.63,6.63,0,0,1-1.15,1.17c-.47.78-.4,1.38-.82,2.05-.55,1-1.28,1.84-1.74,2.71s-.6,1.68-1,2.54c-.29.61-.85,1.2-1.15,1.81a25.41,25.41,0,0,0-1,2.55c-.82,2-1.94,3.5-2.48,5.35-.09.32,0,1-.08,1.17-.31.75-.94,1.57-1.25,2.35a20.63,20.63,0,0,0-.52,2.13c-.12.44-.61,1-.72,1.41,0,.18.26.59.22.71-.42,1.25-1.3,2.69-1.66,3.89-.48,1.48-.86,3.29-1.36,5a14.28,14.28,0,0,1-2,4.47c-1.15.41.52-1.72-.13-1.76-.69.94-.55,1.47-1.22,2.35s-1.27.61-1.74,1.59a31.63,31.63,0,0,0-.89,3.64c-.51,1.68-1.34,3.53-1.92,5.51-.39,1.4-.51,2.77-.86,4.17-.56,2.25-1.27,5-2.06,7.79s-1.41,5.67-2.18,8.06c-.28.86-.65,1.07-1,2-.49,1.43-.59,2.95-1.06,4.12-.7,1.85-1.81,2.82-2.38,4.47a34.5,34.5,0,0,0-1.2,5.1c-.17.92-.33,1.86-.5,2.77s-.27,1.82-.45,2.68-.64,1.82-.76,2.64c-.34,2.14-.32,4.22-.48,6.46-.11,1.3-.32,2.7-.54,4.16l-.33,2.22c-.1.75-.14,1.5-.18,2.26-.12,2.72,0,5.76-.17,8.15-.14,1.91-1.09,3.8-1.22,6.07,0,.67,0,1.48,0,2.38s.14,1.91.25,3c.21,2.12.44,4.47.67,6.7,0-.05.31.08.34.51a73.22,73.22,0,0,0,1.06,8c.56,2.81,1.29,5.56,1.74,7.68.22,1-.05,1.2.2,2.21.4,1.34.74,2.65,1.11,4.26.24,1,.76,1.8.95,2.59a50,50,0,0,0,2,6.84c.33.92.22,1.63.58,2.7.1.24.38,1,.72,1.83s.82,1.88,1.16,2.75c0-.12.49.11.44.43-.28,1.62,2.47,3.89,3.29,5.76.66,1.39.69,2.87,1.24,4.82.34,1.19.79,2.52,1.32,3.94s1.25,2.9,2,4.45,1.51,3.16,2.28,4.8,1.74,3.19,2.61,4.78c.57,1.07,2.34,3.22,1.72,4.09-1.18-2.34-2.54-4.62-3.94-6.91l-1-1.72-1-1.76c-.64-1.18-1.28-2.36-1.88-3.54-.36-.71-.61-1.86-1-2.59-.6-1.05-1.31-1.8-1.85-2.79-.41-.77-.38-1.57-.87-2.64-.22-.49-.72-1-1.12-1.92s-.67-2.16-1-3.16c-1.53-3.94-3.86-8-5-11.71a15.22,15.22,0,0,1-.67-2.12c-.06-.47.36-.45.16-1.21s-.69-.6-.83-.9a1.76,1.76,0,0,1-.09-1.13c-.84-2.45-1.53-5.23-2.3-8.2-.41-1.48-.68-3.05-1-4.64s-.72-3.23-1.14-4.89c-.5-1.83-1.11-3.6-1.43-5.38-1-5.29-.56-10.22-1.18-13.82a28.1,28.1,0,0,1-.78-3.84c0-.26.46-.39.49-.58.2-1.32-.11-2.06.33-3.34a8.54,8.54,0,0,0,.9-3.34c.06-1.51-.11-3.17,0-4.94.06-1.31.4-2.54.51-3.83.44-3.49.11-6.94.51-10.38.15-1.16.65-2.4.86-3.76.33-2,.25-4.2.72-6.5.17-.9.76-2.23,1-3.16.65-2.91.2-3.61,1.25-4.75.06-.07.58-.37.61-.44.27-.68.2-2.05.51-2.66.12-.24.7-.14.86-.38s1.16-2.44,1.37-3c.27-.83.4-2.22.83-3.66.65-2.23,1.35-3,2-6.12.09-.38-.15-.64,0-1.1a51.76,51.76,0,0,0,1.9-5.57c.26-1,.17-2.22.45-3.22.36-1.37,1.2-3.24,1.75-5.07.74-2.65,1.19-4.84,1.68-6.76a11.25,11.25,0,0,1,2.29-4.92c.44-.48.22-.62.68-.88s.27.11.69-.28a6.74,6.74,0,0,0,1.79-3.3c.09-.31,0-.72.2-1.08.08-.12.31.16.46-.38a30.54,30.54,0,0,1,.68-3.23c.83-2.12,2.12-4.09,2.71-5.84.29-.89.27-2,.59-2.74.59-1.4,1.56-2.9,2.19-4.34s1.13-3.13,1.82-4.58c.31-.71.78-1.44,1.24-2.42.31-.67.46-1.61.73-2.11a29.67,29.67,0,0,1,1.64-2.58c.59-.81,1.2-1.58,1.69-2.38.89.12-.45,1.5.44,1.62,1.3-2.05-.74-1.45-.54-2.36,1-1.34,2-2.77,3-4.12a39.25,39.25,0,0,1,3-3.62,12.29,12.29,0,0,1,3.69-2.61,6,6,0,0,1,3.65-1.18c.45,0,1.51.12,1.69,0,.75-.44,1.82-2,3.32-3.45.72-.67,1.64-1.18,2.14-1.64a56.12,56.12,0,0,0,4.09-4.49c.71-.82,1.39-1.7,2.15-2.51s1.52-1.64,2.3-2.44c1.63-1.64,3.32-3.09,4.63-4.36.93-.88,1.72-2.16,2.47-2.82.94-.81,2.12-1.22,3.15-2a30.58,30.58,0,0,0,4-3.52c.39-.47.4-.94.93-1.39.79-.66,2.23-1,2.83-1.55,1.46-1.31,2.64-3,4.14-4.26a37.21,37.21,0,0,1,3.47-2.43c1.27-.82,2.7-1.54,4.07-2.33a44.43,44.43,0,0,0,7.25-4.77c1-.89,7.31-3.87,8.63-5.35.75-.93,0-.38,2.27-1.44a30.27,30.27,0,0,0,5.46-3.51c1.48-1.1,1-.28,2.56-.86.27-.11,2.7-1.57,3.72-2.22a17.13,17.13,0,0,1,1.8-1.3c1.32-.64,3.24-1.11,4.53-1.76s2.46-1.7,3.78-2.26c.86-.37,1.66-.23,3.17-.79.8-.3.79-.66,1.9-1.18.71-.33,2.39-.69,3.09-1s1.69-.83,2.47-1.25c2.51-1.32,7-2.7,11.89-4.15,1-.32,1.37-.71,2.57-1.12.46-.15,1-.31,1.67-.48l2.13-.42c1.52-.3,3.2-.62,4.78-1l2.64-.66a30.8,30.8,0,0,1,3.31-.5c.77-.07,2.13-.29,2.18-.28.64,0,.77.34,1.16.37,1.55.09,1.59-.1,2.8.42.15,0,1.11.38,1.15.41.87.88.26,2.7-.23,3.14-.19.14-1.81.1-2.13.25-.52.25-.74,1.05-1.44,1.49-.34.21-1.2.27-1.56.47s-.57.43-1,.65c-1.55.81-3.2,1.38-4.49,2.21a40,40,0,0,0-3.31,2.43c1.93.27,4-.67,6.22-.79.95,0,2.21.22,3.17.11,1.31-.15,2.23-.72,3.55-1,2.11-.42,4.54-.13,6.78-.36.95-.08,2.11-.21,3.29-.35l3.46-.3c1.28-.12,2.51-.57,3.64-.64s2.05.25,3.14.2c.77,0,1.74-.09,2.61-.23a17.86,17.86,0,0,1,2.11-.48c1.36,0,2.78.28,4.18.35,1.15.05,1.83-.28,3.17-.32a40.91,40.91,0,0,1,4.68.26,19.09,19.09,0,0,0,4.25.21,9.55,9.55,0,0,1,1.63-.35,44.77,44.77,0,0,1,5.23.66c1.27.14,2-.1,3.21,0,.86.06.86.4,1.52.51s2.29-.17,3.23,0,.9.5,1.5.57c1,.13,1.84-.12,2.7,0s1.46.56,2.55.79c.72.14,1.91.13,2.64.33,1.74.43,3.35,1.12,5.07,1.57,1.08.28,2.1.21,3.15.56s2,.89,3,1.18c1.76.53,3.67.94,5.52,1.43a33.82,33.82,0,0,1,5.13,1.87c.42.2,2.1,1,1.9,1,.95.32,1.7.19,2.67.49a54.82,54.82,0,0,1,7.35,3.09c2.33,1.16,5,2.1,7.33,3.19,2.1,1,4.15,2.26,6.24,3.44s4.14,2.49,6.22,3.75c1.67,1,3.2,1.77,4.59,2.61a26.49,26.49,0,0,1,3.93,2.85c1.2,1.11,1.64,2.41,3.19,3.78.47.4,2,1.42,3.68,2.5s3.42,2.19,4.22,2.86c1.15.9,2.52,2.14,4.09,3.39.62.51,1.33,1,2,1.53l1.95,1.56A13,13,0,0,1,424,149c.49.83-.78,2.14-.43,2.76a11.61,11.61,0,0,0,1.18,1.27c.6.62,1.36,1.37,2.14,2.11a38.54,38.54,0,0,0,3.53,3.14c.86.44,1.53,1.54,3,2.94.54.5,1.32.79,1.78,1.23.86.83,1.7,1.77,2.55,2.71s1.59,1.95,2.42,2.78c1.07,1.09,2.25,1.83,3.24,2.84a23.9,23.9,0,0,1,1.62,2.1c.88,1.09,1.82,1.69,2.27,2.29a31.65,31.65,0,0,1,1.95,3.18s.13.7.26,1.4a8.22,8.22,0,0,1,.16,1.51c-.35,1-1.6-.32-1.29.86a18.88,18.88,0,0,0,2.6,4.55c.62.86,1.21.83,2.06,1.8.44.44.92,1.85,1.84,3.17.56.82,1.2,1.23,1.75,2,1,1.51,1.88,3.45,3.22,5.44.14.2.84.57.93.71.46.7.75,1.63,1.18,2.36.52.89,1.2,1.42,1.65,2.15,1.87,3.3,3.24,6.34,4.95,9.43.72,1.41,1.6,2.81,2,3.8.47,1.21.48,2.14.88,3.09.82,1.87,1.26,2.27,1.68,3.37s.4,2.12.73,3.14.84,1.92,1.21,3c.28.81.29,2.1.59,3.17.24.92.56,1,.79,2,.31,1.36.24,2.69.58,4.25.13.82.62,1.74.79,2.56.32,1.53.33,3.89.69,5.84.19,1,.62,1.83.7,2.58.09,1,0,2.06,0,3.24a15.29,15.29,0,0,0,.24,3.19,3.66,3.66,0,0,1-3,3c-.65,0-1.16-.8-2-1.32-.46-.31-.73-.13-1.1-.38-.9-.6-1-.66-2.71-.66-1.11,0-1.2-.54-1.39,1.2-.19,1.44.36.76.59,3,.12,1.24,0,2.52.15,4,.08.57.22,1.19.35,1.79a10.9,10.9,0,0,1,.2,1.68c0,1.05-.45,1.76-.38,2.53a52.53,52.53,0,0,0,1,5.47,8.64,8.64,0,0,1,.26,1.5c.12,1.4-.28,2.18-.24,3.52,0,.69.38,2,.51,3s.23,2.5.38,3,.83,1.09.95,2.07c.41,3.11-.55,5.08-.09,8.15a8.8,8.8,0,0,0,.11,1.55c0,.13.45.45.47.57.09.77-.41.9-.4,1.49,0,.37.42.43.37,1.08a22.88,22.88,0,0,1-1.38,6.84c-.76,1.67-1.88,2.37-3.2,1.2a6.89,6.89,0,0,1-.67-.62l-.32-.26a1.79,1.79,0,0,1-.35-.36c-.16-.32-.12-2.28-.42-2.58,0,0-.78.41-1.09.33s-.54-1-1-.64-.15.77-.46,1.41c-.06.12-.56.33-.58.4-.36,1.23-1.08,4.52-1.42,6.19-.23,1-.14,2.37-.54,3.87a49.27,49.27,0,0,0-1.36,6.72c-.1.69-.34,1.67-.43,2.41s.05,1.43-.05,2c-.63,4.13-2,7.85-2.29,9.6s.13,3.11-.13,4.17a24.91,24.91,0,0,0-1.1,2.77c-.13.43,0,1.38-.08,1.58-.22.71-.68.79-.79,1.29-.15.7.25.56.16,1.69-.09.81-.69,1.55-.8,2.38a19.64,19.64,0,0,0-.12,2.15c0,.4.14,1.32.07,1.7-.1.55-.67,1.27-.83,1.84-.07.27.09.94,0,1.13-.27.85-.91,2-1.15,2.82-.58,2-.65,3.91-1.21,5.7-.85,2.54-1.66,4.76-2.61,5.58-.53.46-.61-.25-1.14-.08-.33.09-.58.69-.95.61-1.52-.32-1.87-3.09-2.56-3.85a9,9,0,0,0-1.06,2.83,23.8,23.8,0,0,1-.68,2.53c-.5,1.31-1.32,2.52-1.72,3.66-.58,1.68-.83,3.27-1.26,4.62-.16.52-.52.91-.67,1.39s-.07.8-.17,1.13-.56,1-.67,1.39c-.27,1,.11.59-1.17,2.94-1.19,2.05-1.1,2-2.31,2.09-1,.08-3.14-2.56-4.59-1.68a3.78,3.78,0,0,0-1.33,1.74,11.36,11.36,0,0,1-1.39,2.46s-.63.2-.85.59a2.62,2.62,0,0,1-1.3,1.5c-1.26.71-.7-.56-2.34-.06-1.76,2.3-3.73,3.88-5.33,5.8-.49.58-.55,1.18-1,1.79a49.34,49.34,0,0,1-3.34,3.66c-1.07,1.22-2.09,2.5-3.24,3.87a52.07,52.07,0,0,1-4.14,4.24c-.09.09-.14.6-.58.85-.18.1-.16-.26-.55.13-.56.57-.66,1.11-1.17,1.7-.68.74-6.27,5.67-7.71,6.36-.17.07-.84.08-1.13.16-1.84.54-3.56-.6-3.39-3,.08-1.08-.09-1.38-2.34.07-.32.21-.44.71-1,1.05a17,17,0,0,0-2.78,1.95c-1.35,1.14-2,2.15-2.44,2.47-2.52,1.72-1.83.08-3.28,2.09a8.65,8.65,0,0,1-1.29,1.3c-.58.45-1.27.94-2,1.46-1.48,1-3.14,2.15-4.51,3.25s-2.95,2.32-4.76,3.61c-.76.53-1.87,1.06-2.53,1.57s.24.59-.1.92c.1-.06-1.7.9-2.59,1.48a37.72,37.72,0,0,1-5.13,3.13,16.3,16.3,0,0,1-2.41.7c-2.35.91-4,2-6.29,1.61-.1,0-.54-.32-.64-.3-1.3.15-.59-.05-1.74-.49-.22-.09-1-.12-1.1-.18-1-.68-.71-1.85-2.14-1.74a18,18,0,0,0-4.36,1.85c-1.87.91-3.87,1.87-5,2.37-2.42,1.06-3.19,1.07-4.51,2-.94.69-1.28.45-3.22,1.27-.34.13-.63.53-1.32.83s-1,.7-1.34.83c-.69.31-1.71.24-2.41.49-.43.16-.82.55-1.36.77-.71.28-1.17.31-1.9.6-1.08.44-2.33,1.16-2.8,1.29-.79.22-.88-.12-1.51,0-1.12.19-2.68,1-3.52-.06-.42-.53-1.05-.7-1.11-.9-.26-1,.72-1.45,2.56-2.94.06-.05,1-.56,1.83-1.11s1.54-1.23,1.2-1.44c-1.4-.8-3.4.95-6,1.9a38.42,38.42,0,0,1-4.15,1.06,7.84,7.84,0,0,0-3.4,1.28c-.8.76-2.1.25-3.83,1.1l-.94.57c-.69.13-1.82-.12-2.45.08s-.23.66-1,.81c-.55.11-1.86.31-2,.32-1.41.22-3.21,0-3.94.07s0,.61-.49.77-2.59.07-3.47.21a3.88,3.88,0,0,1-3,.48c-1.19-1.26-.44-2,1.07-2.57.35-.14.48-.49,1-.51.19,0,.75.38,1,.28s.27-.62.5-.77c.52-.36,2.3-.74,2.44-1.52a7.15,7.15,0,0,0-2.91.48c-.2,0-.81-.1-1,0-.42.22-.44.61-1,.76a5.22,5.22,0,0,1-1.2.11,5.39,5.39,0,0,0-1.24.06c-1.55.4-2.72,1.46-5,1.51-1,0-2-.47-2.43-.41-1,.11-1.38.73-2.57,1a47.14,47.14,0,0,1-4.93.47,16.79,16.79,0,0,1-6.07-.61,2,2,0,0,1-.21-.23l-.42-.52a2.72,2.72,0,0,1-.59-1c0-.59.75-.36,1.1-.61s.16.06.05-.25c-.39-1.05,1.38-.32,2.58-.65.41-.11.64-.9,1.14-1.12.13-.06.84-.05,1-.11,1.56-.52,4.89-.95,7-1.53.93-.28,1.65-.76,2.49-1,.46-.16,2-.22,2.42-.63.07-.08-.09-.47,0-.51,1.12-.36,2.83-.19,3.8-.55,1.2-.45,1-1,1.93-1.43-.32-1-1.62-.12-2.29-.67.13-.36,1.38,0,1.41-.43-.52-.49-1.63,0-1.41.43.49,1.07-2.59.23-3.27.32-.5.07-.37.42-1,.46s-1.59-.2-2.32-.19c-1.32,0-3,.43-4.75.52-1.2.15-6.35-.71-7.54-.28-.28.1-.22.67-.59.69-.52,0-1.63-.36-2.8-.46s-2.41.41-3.45.35c-.61,0-1.73-.73-2.27-.74a15.25,15.25,0,0,0-1.51.22c-.31,0-1-.09-1.45-.08-.2,0-.41.39-.58.39s-.68-.25-.93-.24a19.17,19.17,0,0,1-3.44-.08c-.45,0-1.4,0-2.61-.08s-2.62-.2-4-.38a26.37,26.37,0,0,1-4-.75,3.72,3.72,0,0,1-2.2-1.37c-.72-1.44-.28-1.62,2.11-1.71.54,0,.53.21,1,.07s1.47.29,2.06-.18c-2-1-4.24-.85-6.18-1-.91-.09-2-.11-3-.24-2.16-.29-4-.88-6.27-1.16-.8-.11-1.79-.05-2.55-.22s-1.48-.8-2.2-1c-.35-.1-1,.1-1.1.06-1.27-.47-2.56-1.33-4-1.88.27-.85,0-1.66.72-2.53a14.65,14.65,0,0,0-2.37-.64c-.59-.1-.94.15-1.63,0s-1.57-.76-2.25-.92-1.14.1-1.65,0c-1.34-.25-2.52-.73-3.89-1.05s-2.85-.41-3.61-.67c-.49-.19-1.76-1.17-2.51-1.55a1.79,1.79,0,0,1-1.92-.66c-.89-1.1-.43-1.65.19-2.06,1-.65,4.07,1.48,4.77.67,0-.32-.39-.35-.82-.51-.23-.09-.88-.41-1.35-.59a21,21,0,0,0-3-.76c-.49-.11-.54-.28-1-.33a21.79,21.79,0,0,1-4.13-1.1,16.83,16.83,0,0,1-4.39-2.18,3.33,3.33,0,0,1-1.26-1.59c-.27-.49,0-.65-.83-1.32-2-1.57-3.1-1-4.94-1.76-.36-.14-1.59-.88-2.25-1.19-1.34-.69-2.13-.89-2.74-2.16-.12-.23-.06-.81-.39-1.05a11.24,11.24,0,0,0-2.6-1.3l-1.6-.61c-.52-.23-1.06-.46-1.58-.71-1-.48-1.92-.92-2.85-1.43s-1.95-1.28-2.69-1.64c-1.53-.7-3.22-1.16-5.14-2.22-.47-.26-.8-.8-1.22-1-1.12-.49-3.24-2-4.75-2.77-1.28-1.79.76.36-.89-1.95-.63-.87-.44-1.05-1.7-1.3-.5.27,1.06,1.51,1.42,2.2-1.12-.06-2.34-1.65-3.63-2.48-.45-.3-1.28-.61-2.07-1a5.61,5.61,0,0,1-1.9-1.31c-.81-1.06.13-.36-1.14-1.14-.48-.3-.86-.42-1.56-.85a29.44,29.44,0,0,1-2.67-2.06c-1-.84-2-1.82-3-2.55-.48-.37-1.14-.58-1.52-.94s-.56-1.06-.88-1.38a4.46,4.46,0,0,1-2.18-2.47c0-.69,1.13-.05,1.17-.08s-.06-1,.38-.86c.77.21,2.83,2.57,4.19,3.7.34.28.59.25,1,.62.75.65,1.88,1.72,2.89,2.54l-.86.58c.72,1.58,1-.28,1.9,0-.5-.15,2.27,1.46,2.37,1.55.35.31,2.09,2.45,2.76,2.52,1.28.13.08.3,1.65,1.36.41.28.92.39,1.59.75s1.72,1.24,2.75,1.79c.1.06.77.64.84.64,1.21.07.1.09,1.68,1.28.2.16.54-.05.71.07.63.44,1.52,1.28,2.08,1.59.88.48,1.89.43,2.85.88.56.26,1.3,1.11,2.06,1.54.49.28,1.07.32,1.57.61s.82.78.71.71c.42.24.4-.15.72,0,1.59.78,3.63,2.2,5.48,3,1.05.47,2.13.49,3.21.93.5.2,1.2.92,1.62,1.13,1.09.56,2.56.89,3.91,1.49.93.45,2.06,1.18,3.09,1.61.19.08.55-.16.7-.09a11.3,11.3,0,0,0,2.71,1.24c.56.11,2.34.87,3.41,1.09s2.35.87,3.81,1.23,1.81.18,2.5.58,1.59,1.73,2.4,2.29a11.9,11.9,0,0,0,3.58,1.52c.65.18,1.31.33,1.94.48s1.28.24,1.86.37c.33.08,1,.44,1.33.5s1.19.12,2,.29l3.28.76c.53.1.86.34,1.34.42a9.94,9.94,0,0,1,3.31.6c1,.54,1.56,1.49,2.46,2.19-.77.77-2.66-.28-3.1,1a20.29,20.29,0,0,1,2.52.17c.66,0,3.84.92,5.13,1,.27,0,.86-.11,1-.08a8.4,8.4,0,0,1,1.3.53,8.51,8.51,0,0,0,1.72.54c.7.11.73-.71,2.4.16,0,0-.23.42-.2.47a10.18,10.18,0,0,0,2,1.12c-1.32,1.09-3.84.67-5.87.92.45,1.15,2.9,1,4.48,1.3.81.14,1.48,0,2.42.16s1.83.61,2.69.7c.56.05.63-.15,1.05-.17.8,0,2.68.23,3.78.27,1.67,0,3.5-.37,4.73.11,0,0,.62.47,1.19.92l.77.62.35.26c.05.43-.77.25-1.6.59-1.72.7-.44.5-2.94.17-.3,0-.79.23-1,.22-.84,0-1.66-.16-2.37-.2-1.64-.1-3.09.13-4.46,0s-3-.63-4.23-.74c-.47,0-1,.17-1.6.17s-1.84-.47-1.6.17c1.09,1,2.44.83,3.69,1,.52.05,1.27.12,2,.16.14,0,.72.08,1,.08s.53-.34.63-.33c.53.06,1.23.59,1.76.64.29,0,.52-.34.62-.33.84.14,1.43.44,2.28.55s1.49.09,2.39.19a25.64,25.64,0,0,0,4.23.49c.59,0,1-.34,1.54-.34,1.49,0,2.85.5,4.16.53,1.55,0,2.77-.09,4.76-.16.38,0,1.23-.24,1.45-.23.85,0,1,.37,1.79.36,1.69,0,4.2-.5,6-.18a12.64,12.64,0,0,1,1.77.67l.87.4.38.19c.27.54-1.83,1.28-4,1.73a28.36,28.36,0,0,1-5.31.53c-1.86,0-3.8.13-5.73.15-.9,0-1.68.17-2.46.17-1.11,0-2.15-.24-2.87-.21-.49,0-1.15.23-2,.34A6.41,6.41,0,0,1,236.34,447.85Z"/><circle class="cls-4" cx="357.32" cy="186.28" r="26.78"/><g id="flower"><path class="cls-9" d="M335.25,232.21A48.76,48.76,0,0,0,364,214.89"/><path class="cls-9" d="M336.31,225.24a48.74,48.74,0,0,0,25.48-21.78"/><path class="cls-9" d="M334.19,245.42a96.78,96.78,0,0,1,1.32-15.89c1-6.25,3.65-21.88,11.82-32.67,14.52-19.16,43.2-18.57,47.57-18.42"/><path class="cls-9" d="M338.61,215.44a54.43,54.43,0,0,0-.52-23.92c-4.52-17.94-17-28-21.25-31.12"/><path class="cls-9" d="M335.64,228.49c-.5-2.53-2.07-9.94-5.23-15.35-4.74-8.12-9-4.8-9.53-4.36"/><path class="cls-9" d="M336.76,165.27a16.56,16.56,0,0,1,2.71,11.09,16.23,16.23,0,0,1-3.65,8.34"/><path class="cls-9" d="M327.57,160.44a12.75,12.75,0,0,1,4.72,8.32,12.17,12.17,0,0,1-1.15,6.63"/><path class="cls-9" d="M396.68,184.94a12.79,12.79,0,0,1-9.51-1,12.31,12.31,0,0,1-4.73-4.79"/><path class="cls-9" d="M382.92,188.2a12.76,12.76,0,0,1-9.51-1,12.2,12.2,0,0,1-4.72-4.79"/><path class="cls-9" d="M337.08,188.24a12.87,12.87,0,0,1-8,.15c-4.63-1.49-8.06-5.77-9-11"/><path class="cls-9" d="M333.92,180.6a10.43,10.43,0,0,1-8.05-2.76,10.24,10.24,0,0,1-3.05-6.88"/><path class="cls-9" d="M352.91,214.55a12.85,12.85,0,0,1,1.45-11.7,15.82,15.82,0,0,1,9.55-5.94"/><path class="cls-9" d="M371.56,181.43a12.84,12.84,0,0,1,5.63-10.35,15.77,15.77,0,0,1,11.06-2"/><path class="cls-9" d="M364.59,184a12.85,12.85,0,0,1,.25-11.78,15.85,15.85,0,0,1,8.9-6.89"/><circle class="cls-10" cx="397.19" cy="184.76" r="1.33"/><circle class="cls-10" cx="382.94" cy="188.2" r="1.33"/><circle class="cls-10" cx="394.84" cy="178.39" r="1.33"/><circle class="cls-10" cx="388.29" cy="169" r="1.33"/><circle class="cls-10" cx="373.62" cy="165.36" r="1.33"/><circle class="cls-10" cx="363.87" cy="196.93" r="1.33"/><circle class="cls-10" cx="361.67" cy="203.69" r="1.33"/><circle class="cls-10" cx="363.93" cy="214.94" r="1.33"/><circle class="cls-10" cx="320.94" cy="208.64" r="1.33"/><circle class="cls-10" cx="336.77" cy="165.25" r="1.33"/><circle class="cls-10" cx="327.55" cy="160.53" r="1.33"/><circle class="cls-10" cx="316.8" cy="160.45" r="1.33"/><circle class="cls-10" cx="322.88" cy="171.08" r="1.33"/><circle class="cls-10" cx="320.07" cy="177.36" r="1.33"/></g><g id="flowers3"><path class="cls-5" d="M387.49,253.69a6.86,6.86,0,0,0-6-5.59,13.08,13.08,0,0,0-5.86,1,8.43,8.43,0,0,0,2.58,3.13C381.33,254.53,385.41,254.08,387.49,253.69Z"/><path class="cls-5" d="M411.62,255.79a6.84,6.84,0,0,0-2.9-7.66,12.86,12.86,0,0,0-5.7-1.68,8.55,8.55,0,0,0,.92,4C405.72,253.82,409.59,255.22,411.62,255.79Z"/><path class="cls-5" d="M389.9,265.39a6.86,6.86,0,0,0-6-5.58,12.9,12.9,0,0,0-5.85,1,8.55,8.55,0,0,0,2.57,3.12C383.74,266.24,387.82,265.79,389.9,265.39Z"/><path class="cls-5" d="M380.75,303.36c.15-1.29.5-6.24-4.46-8.58a15.45,15.45,0,0,0-7-1.16,10,10,0,0,0,1.64,4.5C373.54,301.88,378.28,303,380.75,303.36Z"/><path class="cls-5" d="M372,254.74a6.86,6.86,0,0,0-7.22-3.88,13.08,13.08,0,0,0-5.41,2.48,8.58,8.58,0,0,0,3.29,2.37C366.2,257.12,370,255.65,372,254.74Z"/><path class="cls-5" d="M377.44,270.34a6.84,6.84,0,0,0-7.22-3.87,12.85,12.85,0,0,0-5.4,2.48,8.32,8.32,0,0,0,3.29,2.36C371.7,272.73,375.53,271.25,377.44,270.34Z"/><path class="cls-5" d="M425,241.86a6.84,6.84,0,0,0-8.19-.13,13.07,13.07,0,0,0-3.67,4.67,8.41,8.41,0,0,0,4,.6C421,246.61,423.76,243.54,425,241.86Z"/><path class="cls-5" d="M404.31,301.39a6.84,6.84,0,0,0-8.19-.13,13.07,13.07,0,0,0-3.67,4.67,8.41,8.41,0,0,0,4,.6C400.3,306.14,403,303.07,404.31,301.39Z"/><path class="cls-5" d="M402.22,278.49a6.83,6.83,0,0,0-8.19-.13,13.07,13.07,0,0,0-3.67,4.67,8.45,8.45,0,0,0,4,.6C398.21,283.24,401,280.17,402.22,278.49Z"/><path class="cls-5" d="M435.49,248.34a6.86,6.86,0,0,0-7.89,2.21,13,13,0,0,0-2.18,5.53,8.41,8.41,0,0,0,4-.57C433,254,434.75,250.32,435.49,248.34Z"/><path class="cls-5" d="M434.49,271.52a6.87,6.87,0,0,0-7,4.23,12.94,12.94,0,0,0-.63,5.91,8.48,8.48,0,0,0,3.72-1.62C433.61,277.68,434.3,273.63,434.49,271.52Z"/><path class="cls-5" d="M416.57,273.3a6.85,6.85,0,0,0-3.77,7.27,12.87,12.87,0,0,0,2.54,5.37,8.47,8.47,0,0,0,2.33-3.32C419,279,417.51,275.2,416.57,273.3Z"/><path class="cls-5" d="M404.67,264.28a6.84,6.84,0,0,0-3.78,7.26,12.92,12.92,0,0,0,2.55,5.38,8.53,8.53,0,0,0,2.32-3.32C407.13,270,405.6,266.17,404.67,264.28Z"/><path class="cls-5" d="M384,281.3a6.86,6.86,0,0,0,.34,8.19,13,13,0,0,0,4.88,3.39,8.41,8.41,0,0,0,.37-4C389,285,385.79,282.48,384,281.3Z"/><path class="cls-5" d="M432,305.73a6.85,6.85,0,0,0-3.78,7.27,13.05,13.05,0,0,0,2.54,5.37,8.44,8.44,0,0,0,2.33-3.32C434.42,311.44,432.89,307.62,432,305.73Z"/><path class="cls-5" d="M423.13,298.2a5.74,5.74,0,0,0-3.08,5.95,10.29,10.29,0,0,0,2,4.34,7.14,7.14,0,0,0,1.89-2.72C425,302.82,423.85,299.73,423.13,298.2Z"/><path class="cls-5" d="M409.51,315.31a5.73,5.73,0,0,0-3.08,5.94,10.36,10.36,0,0,0,2,4.34,7.16,7.16,0,0,0,1.88-2.72C411.41,319.93,410.24,316.84,409.51,315.31Z"/><path class="cls-5" d="M401.25,310.12a5.09,5.09,0,0,0-2.54,4.95,8.15,8.15,0,0,0,1.45,3.51,6.31,6.31,0,0,0,1.53-2.27A8.33,8.33,0,0,0,401.25,310.12Z"/><path class="cls-11" d="M411.51,229a67,67,0,0,1-.45,30.33c-1.6,6.24-3.74,10.56-7,17-5.13,10.13-11.68,22.84-19.55,37.59"/><path class="cls-12" d="M383.12,238.47a106.79,106.79,0,0,1,7.4,31.51c2.36,30.55-9.26,54.13-15.27,64.5"/><path class="cls-12" d="M362.08,237.42a106.57,106.57,0,0,1,14.43,29c9.32,29.19,3.41,54.8-.05,66.28"/><path class="cls-12" d="M440.44,279.67A76.3,76.3,0,0,0,413.09,287c-23.27,11.5-32.09,32.54-35.37,42.6"/><path class="cls-12" d="M440.37,321c-1.85-5.85-4.83-12.54-9.71-17.64-11.65-12.16-26.9-7.73-34-4.86"/><path class="cls-12" d="M416,325.69a30,30,0,0,0-6.85-11.15c-8-7.79-18.12-5.36-22.81-3.73"/><path class="cls-12" d="M440.3,260a22.39,22.39,0,0,0-12.5-3.86c-12.4.11-19.48,11.31-20,12.17"/><path class="cls-13" d="M413.29,229.31a3.05,3.05,0,0,0,1.67-3.24,2.24,2.24,0,0,0-1.72-1.71,2.29,2.29,0,0,0-2.14,1.22,3,3,0,0,0,.45,3.38,4,4,0,0,0-2.09-2.31,2.67,2.67,0,0,0-2.29-.08,2.22,2.22,0,0,0-1,1.24,2.45,2.45,0,0,0,.19,2,2.59,2.59,0,0,0,3.14.8,2.25,2.25,0,0,0-2.63,1.66,2.2,2.2,0,0,0,1.39,2.35,2.76,2.76,0,0,0,2.73-.78,3.22,3.22,0,0,0,.83-1.35,3.22,3.22,0,0,0-1.13,3.52C411,237,412,238,413,237.79c1.19-.19,1.88-1.86,1.62-3.13a2.92,2.92,0,0,0-1.07-1.65,2.69,2.69,0,0,0,3.47,1,2.51,2.51,0,0,0,.9-2.82C417.49,229.76,415.55,228.79,413.29,229.31Z"/><ellipse class="cls-14" cx="411.54" cy="231.38" rx="1.12" ry="1.22" transform="translate(17.3 491.14) rotate(-62.73)"/><path class="cls-13" d="M384.53,237.28a3,3,0,0,0,1.68-3.24,2.26,2.26,0,0,0-1.72-1.71,2.32,2.32,0,0,0-2.14,1.23,3,3,0,0,0,.45,3.38,4,4,0,0,0-2.1-2.31,2.68,2.68,0,0,0-2.28-.09,2.33,2.33,0,0,0-1.05,1.24,2.5,2.5,0,0,0,.2,2,2.61,2.61,0,0,0,3.14.8,2.1,2.1,0,0,0-1.25,4,2.77,2.77,0,0,0,2.73-.78,3.33,3.33,0,0,0,.84-1.35,3.22,3.22,0,0,0-1.14,3.52,2.52,2.52,0,0,0,2.38,1.77c1.18-.19,1.88-1.86,1.61-3.14a2.87,2.87,0,0,0-1.07-1.64,2.7,2.7,0,0,0,3.47,1,2.5,2.5,0,0,0,.91-2.81C388.74,237.74,386.79,236.77,384.53,237.28Z"/><ellipse class="cls-14" cx="382.79" cy="239.35" rx="1.12" ry="1.22" transform="translate(-5.36 469.91) rotate(-62.73)"/><path class="cls-13" d="M363.44,235.17a3,3,0,0,0,1.67-3.25,2.22,2.22,0,0,0-1.72-1.7,2.28,2.28,0,0,0-2.13,1.22,3,3,0,0,0,.45,3.38,4,4,0,0,0-2.1-2.31,2.65,2.65,0,0,0-2.28-.08,2.32,2.32,0,0,0-1.05,1.23,2.48,2.48,0,0,0,.19,2,2.61,2.61,0,0,0,3.15.8,2.24,2.24,0,0,0-2.63,1.65,2.2,2.2,0,0,0,1.38,2.36,2.77,2.77,0,0,0,2.73-.78,3.12,3.12,0,0,0,.83-1.35,3.23,3.23,0,0,0-1.13,3.52,2.51,2.51,0,0,0,2.37,1.77c1.19-.19,1.89-1.86,1.62-3.14a2.87,2.87,0,0,0-1.07-1.64,2.71,2.71,0,0,0,3.47,1,2.53,2.53,0,0,0,.91-2.82C367.65,235.62,365.7,234.65,363.44,235.17Z"/><ellipse class="cls-14" cx="361.7" cy="237.23" rx="1.12" ry="1.22" transform="translate(-14.91 450.01) rotate(-62.73)"/><path class="cls-13" d="M442.05,258a3,3,0,0,0,1.67-3.25A2.25,2.25,0,0,0,442,253a2.28,2.28,0,0,0-2.13,1.22,3,3,0,0,0,.44,3.38,4,4,0,0,0-2.09-2.31,2.65,2.65,0,0,0-2.28-.08,2.27,2.27,0,0,0-1.05,1.23,2.48,2.48,0,0,0,.19,2,2.6,2.6,0,0,0,3.15.8,2.25,2.25,0,0,0-2.63,1.65,2.2,2.2,0,0,0,1.38,2.36,2.77,2.77,0,0,0,2.73-.78,3.12,3.12,0,0,0,.83-1.35,3.23,3.23,0,0,0-1.13,3.52,2.5,2.5,0,0,0,2.37,1.77c1.19-.19,1.89-1.86,1.62-3.13a2.92,2.92,0,0,0-1.07-1.65,2.69,2.69,0,0,0,3.47,1,2.53,2.53,0,0,0,.91-2.82C446.25,258.42,444.31,257.45,442.05,258Z"/><ellipse class="cls-14" cx="440.3" cy="260.04" rx="1.12" ry="1.22" transform="translate(7.41 532.23) rotate(-62.73)"/><path class="cls-13" d="M442.19,277.6a3,3,0,0,0,1.67-3.24,2.24,2.24,0,0,0-1.72-1.71,2.3,2.3,0,0,0-2.13,1.23,3,3,0,0,0,.44,3.38,4,4,0,0,0-2.09-2.31,2.68,2.68,0,0,0-2.28-.09A2.29,2.29,0,0,0,435,276.1a2.48,2.48,0,0,0,.19,2,2.62,2.62,0,0,0,3.15.8,2.1,2.1,0,0,0-1.25,4,2.75,2.75,0,0,0,2.73-.79,3.16,3.16,0,0,0,.83-1.35,3.23,3.23,0,0,0-1.13,3.53c.35.94,1.35,1.93,2.37,1.77,1.19-.19,1.88-1.86,1.62-3.14a2.92,2.92,0,0,0-1.07-1.64,2.7,2.7,0,0,0,3.47,1,2.51,2.51,0,0,0,.91-2.81C446.39,278.06,444.45,277.09,442.19,277.6Z"/><ellipse class="cls-14" cx="440.44" cy="279.67" rx="1.12" ry="1.22" transform="translate(-9.96 543) rotate(-62.73)"/><path class="cls-13" d="M440.93,318.17a3.05,3.05,0,0,0,1.67-3.24,2.26,2.26,0,0,0-1.72-1.71,2.28,2.28,0,0,0-2.14,1.23,3,3,0,0,0,.45,3.37,4,4,0,0,0-2.09-2.31,2.71,2.71,0,0,0-2.29-.08,2.22,2.22,0,0,0-1,1.24,2.45,2.45,0,0,0,.19,2,2.58,2.58,0,0,0,3.14.8,2.25,2.25,0,0,0-2.63,1.66,2.2,2.2,0,0,0,1.39,2.35,2.76,2.76,0,0,0,2.73-.78,3.22,3.22,0,0,0,.83-1.35,3.22,3.22,0,0,0-1.13,3.52c.35.95,1.35,1.94,2.37,1.77,1.19-.19,1.88-1.85,1.62-3.13a2.92,2.92,0,0,0-1.07-1.65,2.69,2.69,0,0,0,3.47,1,2.5,2.5,0,0,0,.9-2.82C445.13,318.63,443.19,317.66,440.93,318.17Z"/><ellipse class="cls-14" cx="439.18" cy="320.24" rx="1.12" ry="1.22" transform="translate(-46.71 563.85) rotate(-62.73)"/><path class="cls-13" d="M417.7,323.63a3.05,3.05,0,0,0,1.67-3.25,2.24,2.24,0,0,0-1.72-1.71,2.3,2.3,0,0,0-2.13,1.23,3,3,0,0,0,.44,3.38,4,4,0,0,0-2.09-2.31,2.68,2.68,0,0,0-2.28-.09,2.29,2.29,0,0,0-1,1.24,2.48,2.48,0,0,0,.19,2,2.62,2.62,0,0,0,3.15.8,2.1,2.1,0,0,0-1.25,4,2.77,2.77,0,0,0,2.73-.78,3.22,3.22,0,0,0,.83-1.35,3.21,3.21,0,0,0-1.13,3.52,2.5,2.5,0,0,0,2.37,1.77c1.19-.19,1.88-1.86,1.62-3.14a2.92,2.92,0,0,0-1.07-1.64,2.71,2.71,0,0,0,3.47,1,2.51,2.51,0,0,0,.9-2.82C421.9,324.08,420,323.11,417.7,323.63Z"/><ellipse class="cls-14" cx="415.95" cy="325.69" rx="1.12" ry="1.22" transform="translate(-64.14 546.16) rotate(-62.73)"/><path class="cls-13" d="M423,294.36a3.06,3.06,0,0,0,1.67-3.25,2.26,2.26,0,0,0-1.72-1.7,2.29,2.29,0,0,0-2.14,1.22,3,3,0,0,0,.45,3.38,4,4,0,0,0-2.09-2.31,2.67,2.67,0,0,0-2.29-.08,2.24,2.24,0,0,0-1,1.23,2.48,2.48,0,0,0,.19,2,2.59,2.59,0,0,0,3.14.8,2.25,2.25,0,0,0-2.63,1.65,2.21,2.21,0,0,0,1.39,2.36,2.78,2.78,0,0,0,2.73-.78,3.22,3.22,0,0,0,.83-1.35,3.22,3.22,0,0,0-1.13,3.52,2.5,2.5,0,0,0,2.37,1.77c1.19-.19,1.88-1.86,1.62-3.13a2.92,2.92,0,0,0-1.07-1.65,2.69,2.69,0,0,0,3.47,1,2.52,2.52,0,0,0,.9-2.82C427.21,294.81,425.27,293.84,423,294.36Z"/><ellipse class="cls-14" cx="421.26" cy="296.43" rx="1.12" ry="1.22" transform="translate(-35.25 535.02) rotate(-62.73)"/><path class="cls-13" d="M415.36,262.71a3,3,0,0,0,1.67-3.24,2.24,2.24,0,0,0-1.72-1.71,2.3,2.3,0,0,0-2.13,1.23,3,3,0,0,0,.44,3.38,4,4,0,0,0-2.09-2.31,2.68,2.68,0,0,0-2.28-.09,2.29,2.29,0,0,0-1.05,1.24,2.48,2.48,0,0,0,.19,2,2.62,2.62,0,0,0,3.15.8,2.1,2.1,0,0,0-1.25,4,2.75,2.75,0,0,0,2.73-.79,3.2,3.2,0,0,0,.83-1.34,3.21,3.21,0,0,0-1.13,3.52,2.5,2.5,0,0,0,2.37,1.77c1.19-.19,1.88-1.86,1.62-3.14a2.92,2.92,0,0,0-1.07-1.64,2.7,2.7,0,0,0,3.47,1,2.51,2.51,0,0,0,.91-2.81C419.56,263.17,417.62,262.2,415.36,262.71Z"/><ellipse class="cls-14" cx="413.61" cy="264.78" rx="1.12" ry="1.22" transform="translate(-11.27 511.08) rotate(-62.73)"/><path class="cls-13" d="M394.4,262.53a3.05,3.05,0,0,0,1.67-3.25,2.24,2.24,0,0,0-1.72-1.71,2.3,2.3,0,0,0-2.13,1.23,3,3,0,0,0,.44,3.38,4,4,0,0,0-2.09-2.31,2.68,2.68,0,0,0-2.28-.09,2.29,2.29,0,0,0-1.05,1.24,2.48,2.48,0,0,0,.19,2,2.62,2.62,0,0,0,3.15.8,2.1,2.1,0,0,0-1.25,4,2.77,2.77,0,0,0,2.73-.78,3.28,3.28,0,0,0,.83-1.35,3.21,3.21,0,0,0-1.13,3.52,2.5,2.5,0,0,0,2.37,1.77c1.19-.19,1.88-1.86,1.62-3.14a2.92,2.92,0,0,0-1.07-1.64,2.71,2.71,0,0,0,3.47,1,2.53,2.53,0,0,0,.91-2.82C398.6,263,396.66,262,394.4,262.53Z"/><ellipse class="cls-14" cx="392.65" cy="264.59" rx="1.12" ry="1.22" transform="translate(-22.45 492.35) rotate(-62.73)"/><path class="cls-13" d="M401.92,283a3,3,0,0,0,1.67-3.24,2.23,2.23,0,0,0-1.72-1.71,2.28,2.28,0,0,0-2.13,1.22,3,3,0,0,0,.45,3.38,4.05,4.05,0,0,0-2.1-2.31,2.65,2.65,0,0,0-2.28-.08,2.25,2.25,0,0,0-1.05,1.24,2.45,2.45,0,0,0,.19,2,2.61,2.61,0,0,0,3.15.8,2.25,2.25,0,0,0-2.63,1.66,2.2,2.2,0,0,0,1.38,2.35,2.75,2.75,0,0,0,2.73-.78,3.12,3.12,0,0,0,.83-1.35,3.23,3.23,0,0,0-1.13,3.52c.35.95,1.36,1.94,2.37,1.77,1.19-.19,1.89-1.86,1.62-3.13a2.87,2.87,0,0,0-1.07-1.65,2.69,2.69,0,0,0,3.47,1,2.53,2.53,0,0,0,.91-2.82C406.13,283.48,404.18,282.51,401.92,283Z"/><ellipse class="cls-14" cx="400.18" cy="285.1" rx="1.12" ry="1.22" transform="translate(-36.6 510.14) rotate(-62.73)"/><path class="cls-13" d="M383.34,282a3,3,0,0,0,1.68-3.24A2.26,2.26,0,0,0,383.3,277a2.32,2.32,0,0,0-2.14,1.23,3,3,0,0,0,.45,3.38,4,4,0,0,0-2.09-2.31,2.71,2.71,0,0,0-2.29-.09,2.33,2.33,0,0,0-1.05,1.24,2.5,2.5,0,0,0,.2,2,2.61,2.61,0,0,0,3.14.8,2.1,2.1,0,0,0-1.25,4,2.75,2.75,0,0,0,2.73-.79,3.21,3.21,0,0,0,.84-1.35,3.24,3.24,0,0,0-1.14,3.53c.36.94,1.36,1.93,2.38,1.77,1.18-.19,1.88-1.86,1.61-3.14a2.92,2.92,0,0,0-1.06-1.64,2.68,2.68,0,0,0,3.46,1,2.5,2.5,0,0,0,.91-2.81C387.55,282.43,385.6,281.46,383.34,282Z"/><ellipse class="cls-14" cx="381.6" cy="284.04" rx="1.12" ry="1.22" transform="translate(-45.73 493.06) rotate(-62.73)"/><path class="cls-13" d="M393.54,304.31a3.05,3.05,0,0,0,1.67-3.24,2.24,2.24,0,0,0-1.72-1.71,2.31,2.31,0,0,0-2.14,1.23,3,3,0,0,0,.45,3.37,4,4,0,0,0-2.09-2.31,2.69,2.69,0,0,0-2.28-.08,2.25,2.25,0,0,0-1.05,1.24,2.45,2.45,0,0,0,.19,2,2.58,2.58,0,0,0,3.14.8,2.25,2.25,0,0,0-2.63,1.66,2.21,2.21,0,0,0,1.39,2.35,2.74,2.74,0,0,0,2.73-.78,3.22,3.22,0,0,0,.83-1.35A3.22,3.22,0,0,0,390.9,311c.35,1,1.35,1.94,2.37,1.77,1.19-.19,1.88-1.85,1.62-3.13a2.92,2.92,0,0,0-1.07-1.65,2.69,2.69,0,0,0,3.47,1,2.5,2.5,0,0,0,.9-2.82C397.74,304.77,395.8,303.8,393.54,304.31Z"/><ellipse class="cls-14" cx="391.79" cy="306.38" rx="1.12" ry="1.22" transform="translate(-60.06 514.22) rotate(-62.73)"/></g><g id="flowers2"><g class="cls-15"><path class="cls-5" d="M148.24,220.46c-.46.67-8.29,12.66-2.33,25.89a26.69,26.69,0,0,0,22.51,15.56c.63-1.19,6.71-13.12.43-25.93S149.59,220.69,148.24,220.46Z"/><path class="cls-16" d="M143.77,223.31a17.15,17.15,0,0,1,1.67.43,23.14,23.14,0,0,1,4.88,2.08"/><path class="cls-16" d="M142.64,226.15a10.44,10.44,0,0,1,2.43-.11,12.56,12.56,0,0,1,7.45,3.4"/><path class="cls-16" d="M142.12,228.44a21.55,21.55,0,0,1,3.61.38,23.08,23.08,0,0,1,8.44,3.45"/><path class="cls-16" d="M141.43,230.91a18.42,18.42,0,0,1,3.1-.07,21.39,21.39,0,0,1,11.37,4.41"/><path class="cls-16" d="M140.83,233.47a23.53,23.53,0,0,1,5.91.38,25.16,25.16,0,0,1,10.89,5.06"/><path class="cls-16" d="M140.89,236.33a23.53,23.53,0,0,1,5.66.07,25.33,25.33,0,0,1,12.95,6"/><path class="cls-16" d="M141.69,239.63a26.87,26.87,0,0,1,6.94.44,28.56,28.56,0,0,1,13,6.38"/><path class="cls-16" d="M143.18,243.35a37.08,37.08,0,0,1,8.16,1.32,37.91,37.91,0,0,1,12.41,6.12"/><path class="cls-16" d="M145.6,248a34.82,34.82,0,0,1,6.52.82A36.19,36.19,0,0,1,166,255.34"/><path class="cls-16" d="M149.35,252.69A24.55,24.55,0,0,1,168,260"/><path class="cls-16" d="M153.76,256.49a44.93,44.93,0,0,1,8.05,2.09,44.38,44.38,0,0,1,6.82,3.12"/><path class="cls-16" d="M152.53,219.45a16.3,16.3,0,0,0-.71,1.51,21.68,21.68,0,0,0-1.43,4.93"/><path class="cls-16" d="M156.22,220.16a9.73,9.73,0,0,0-1.61,1.73,11.7,11.7,0,0,0-2,7.65"/><path class="cls-16" d="M158.71,221a22.05,22.05,0,0,0-2,2.92,21.47,21.47,0,0,0-2.59,8.42"/><path class="cls-16" d="M161.77,221.86a17.45,17.45,0,0,0-2,2.26,19.85,19.85,0,0,0-3.68,11.19"/><path class="cls-16" d="M163.83,223a22.31,22.31,0,0,0-3.41,4.62,23.37,23.37,0,0,0-2.87,11.25"/><path class="cls-16" d="M166.31,224.86a21.54,21.54,0,0,0-3.49,4.23,23.54,23.54,0,0,0-3.41,13.38"/><path class="cls-16" d="M168.76,227.32a24.89,24.89,0,0,0-4,5.42,26.54,26.54,0,0,0-3.16,13.63"/><path class="cls-16" d="M170.51,230.77a34.46,34.46,0,0,0-4.08,6.87,35.19,35.19,0,0,0-3,13"/><path class="cls-16" d="M172.52,235.09a32.85,32.85,0,0,0-3.44,5.35,33.41,33.41,0,0,0-3.61,14.35"/><path class="cls-16" d="M173.5,240.76a22.8,22.8,0,0,0-6,18.4"/><path class="cls-16" d="M173.8,247a41.57,41.57,0,0,0-3.42,7.27,42.06,42.06,0,0,0-1.83,7"/></g><path class="cls-17" d="M168.43,261.44c-.09-.34-.22-.84-.42-1.45a28.68,28.68,0,0,0-1.68-3.92c-.58-1.14-1-2-1.13-2.17-1.28-2.33-1.31-2.79-3.25-6.82-1.12-2.34-1.68-3.51-2.15-4.27a31.36,31.36,0,0,1-2-3.26c-.81-1.64-.53-1.63-1.36-3.3-.48-.95-1-1.85-2-3.44-.21-.36-.47-.78-.84-1.43-.57-1-.78-1.39-1.72-2.93-1.32-2.18-1.41-2.18-1.88-3.07a16.83,16.83,0,0,1-1.84-4.92"/><g class="cls-18"><path class="cls-5" d="M199.32,243.48c-.65.36-12,6.93-13.67,21-1.11,9.44,2.59,18.57,9.6,23.72a31.16,31.16,0,0,0,12.27-21.88A28.48,28.48,0,0,0,199.32,243.48Z"/><path class="cls-19" d="M194.68,243.83c.34.35.69.73,1,1.14A21.06,21.06,0,0,1,198.4,249"/><path class="cls-19" d="M192.52,245.73a8.2,8.2,0,0,1,1.87,1,11.43,11.43,0,0,1,4,6.36"/><path class="cls-19" d="M191.08,247.44a17.84,17.84,0,0,1,2.52,2,20.84,20.84,0,0,1,4.7,6.86"/><path class="cls-19" d="M189.43,249.22a14.25,14.25,0,0,1,2.34,1.38,19,19,0,0,1,6.44,9"/><path class="cls-19" d="M187.8,251.12a18.94,18.94,0,0,1,4.23,3.07,23,23,0,0,1,5.78,9.38"/><path class="cls-19" d="M186.53,253.59a17.94,17.94,0,0,1,4.18,2.69,23.08,23.08,0,0,1,6.87,11.16"/><path class="cls-19" d="M185.61,256.77a22.09,22.09,0,0,1,5,3.6,26.28,26.28,0,0,1,6.74,11.48"/><path class="cls-19" d="M185,260.63a30.59,30.59,0,0,1,5.47,4.92,34.74,34.74,0,0,1,6.43,11"/><path class="cls-19" d="M184.66,265.73a27.92,27.92,0,0,1,4.48,3.73,32.9,32.9,0,0,1,7.33,12"/><path class="cls-19" d="M185.29,271.46a20.26,20.26,0,0,1,6.7,6,23.45,23.45,0,0,1,3.84,8.89"/><path class="cls-19" d="M186.83,276.75a37.68,37.68,0,0,1,5,5.51,40.29,40.29,0,0,1,3.65,5.84"/><path class="cls-19" d="M203,244.62c-.4.28-.81.6-1.23.95a21.88,21.88,0,0,0-3.33,3.53"/><path class="cls-19" d="M205.41,246.94a8,8,0,0,0-2,.72,11.89,11.89,0,0,0-5,5.58"/><path class="cls-19" d="M206.87,248.81a19,19,0,0,0-2.81,1.57,21.32,21.32,0,0,0-5.81,6"/><path class="cls-19" d="M208.76,251a14,14,0,0,0-2.53,1,19.58,19.58,0,0,0-7.9,7.82"/><path class="cls-19" d="M209.77,252.88a20.06,20.06,0,0,0-4.67,2.34,23.87,23.87,0,0,0-7.32,8.25"/><path class="cls-19" d="M210.76,255.63a18.41,18.41,0,0,0-4.56,2,23.84,23.84,0,0,0-8.7,9.81"/><path class="cls-19" d="M211.44,258.86a22,22,0,0,0-5.48,2.75,26.94,26.94,0,0,0-8.64,10.14"/><path class="cls-19" d="M211.16,262.61a31.82,31.82,0,0,0-6.21,4,35.81,35.81,0,0,0-8.24,9.71"/><path class="cls-19" d="M210.66,267.24a29.13,29.13,0,0,0-5,2.95,34.08,34.08,0,0,0-9.3,10.55"/><path class="cls-19" d="M208.78,272.52a20.88,20.88,0,0,0-7.6,4.83,24,24,0,0,0-5.34,8"/><path class="cls-19" d="M206.12,278a39.67,39.67,0,0,0-5.89,4.6,41.87,41.87,0,0,0-4.6,5.13"/></g><path class="cls-20" d="M195.47,287.78c.09-.33.23-.83.36-1.43a30.7,30.7,0,0,0,.55-4.12c.1-1.25.15-2.18.16-2.38.12-2.58.31-3,.73-7.32.24-2.51.36-3.76.36-4.64a36.43,36.43,0,0,1,.05-3.68c.16-1.77.36-1.63.51-3.44.08-1,.09-2.06.12-3.85,0-.41,0-.88,0-1.6,0-1.1.06-1.56.07-3.3,0-2.47,0-2.51,0-3.49a19,19,0,0,1,.9-5.05"/><g class="cls-21"><path class="cls-5" d="M234.27,265.07c-.75.31-13.87,6.06-16.11,20.4a26.68,26.68,0,0,0,10.33,25.34c1.17-.65,12.79-7.32,14.55-21.47S235.27,266,234.27,265.07Z"/><path class="cls-16" d="M229,265c.39.39.78.81,1.17,1.27a23.29,23.29,0,0,1,2.94,4.42"/><path class="cls-16" d="M226.47,266.77a11.26,11.26,0,0,1,2.1,1.23,12.63,12.63,0,0,1,4.37,6.93"/><path class="cls-16" d="M224.78,268.4a21.49,21.49,0,0,1,2.82,2.3,23.18,23.18,0,0,1,5.18,7.5"/><path class="cls-16" d="M222.85,270.09a18.14,18.14,0,0,1,2.64,1.64,21.35,21.35,0,0,1,7.1,9.92"/><path class="cls-16" d="M221,271.91a23.73,23.73,0,0,1,4.74,3.54,25.23,25.23,0,0,1,6.34,10.2"/><path class="cls-16" d="M219.44,274.34a22.92,22.92,0,0,1,4.7,3.15,25.35,25.35,0,0,1,7.54,12.14"/><path class="cls-16" d="M218.3,277.54a26.66,26.66,0,0,1,5.57,4.16,28.52,28.52,0,0,1,7.39,12.46"/><path class="cls-16" d="M217.51,281.46a37.09,37.09,0,0,1,6.11,5.57,37.78,37.78,0,0,1,7,11.91"/><path class="cls-16" d="M217,286.69a35.14,35.14,0,0,1,5,4.25,36.14,36.14,0,0,1,8.05,13"/><path class="cls-16" d="M217.57,292.66A24.5,24.5,0,0,1,229.19,309"/><path class="cls-16" d="M219.18,298.26a44.43,44.43,0,0,1,5.6,6.14,45.17,45.17,0,0,1,4,6.35"/><path class="cls-16" d="M238.41,266.57c-.46.26-.93.55-1.42.88a21.32,21.32,0,0,0-3.89,3.34"/><path class="cls-16" d="M241.12,269.19a9.58,9.58,0,0,0-2.3.56,11.72,11.72,0,0,0-5.87,5.31"/><path class="cls-16" d="M242.74,271.26a20.46,20.46,0,0,0-3.25,1.36,21.52,21.52,0,0,0-6.77,5.63"/><path class="cls-16" d="M244.83,273.65a16.43,16.43,0,0,0-2.9.79,19.82,19.82,0,0,0-9.21,7.35"/><path class="cls-16" d="M245.94,275.71a22.22,22.22,0,0,0-5.38,2,23.27,23.27,0,0,0-8.55,7.85"/><path class="cls-16" d="M247,278.64a21.61,21.61,0,0,0-5.24,1.63,23.49,23.49,0,0,0-10.17,9.34"/><path class="cls-16" d="M247.69,282a25,25,0,0,0-6.32,2.33,26.48,26.48,0,0,0-10.1,9.69"/><path class="cls-16" d="M247.27,285.88a34.27,34.27,0,0,0-7.17,3.53,34.88,34.88,0,0,0-9.64,9.26"/><path class="cls-16" d="M246.59,290.61a32.45,32.45,0,0,0-5.81,2.58,33.54,33.54,0,0,0-10.87,10"/><path class="cls-16" d="M244.31,295.89A22.79,22.79,0,0,0,229.23,308"/><path class="cls-16" d="M241.14,301.29a41.39,41.39,0,0,0-12.21,9.08"/></g><path class="cls-17" d="M228.75,310.42c.11-.33.28-.83.44-1.44a27.73,27.73,0,0,0,.74-4.2c.14-1.28.22-2.23.24-2.44.21-2.65.43-3,1-7.49.34-2.56.51-3.85.53-4.75a31.87,31.87,0,0,1,.15-3.8c.23-1.81.45-1.64.67-3.5.12-1.06.16-2.11.23-3.95,0-.43,0-.91.08-1.66.06-1.13.11-1.6.17-3.39.08-2.55,0-2.6.09-3.6a17.34,17.34,0,0,1,1.16-5.13"/><g class="cls-22"><path class="cls-5" d="M144.3,287.31c.49.61,9.14,11.33,21.15,9.18,8.07-1.44,14.52-8.12,16.74-17.33-.88-.92-9.79-9.94-21.5-7.39S144.73,286.08,144.3,287.31Z"/><path class="cls-23" d="M145.92,292.34c.19-.48.4-1,.64-1.48a21.12,21.12,0,0,1,2.56-4.1"/><path class="cls-23" d="M148.1,294.19a11.79,11.79,0,0,1,.31-2.35,11,11,0,0,1,4.09-6.2"/><path class="cls-23" d="M149.91,295.3a23.2,23.2,0,0,1,.93-3.35,20.89,20.89,0,0,1,4.29-7.14"/><path class="cls-23" d="M151.85,296.63a20.67,20.67,0,0,1,.47-3A19.42,19.42,0,0,1,157.9,284"/><path class="cls-23" d="M153.88,297.89a25.24,25.24,0,0,1,1.31-5.55,22.08,22.08,0,0,1,6.05-9"/><path class="cls-23" d="M156.27,298.6a24.45,24.45,0,0,1,1-5.39,22.21,22.21,0,0,1,7.19-10.76"/><path class="cls-23" d="M159.15,298.72a28.58,28.58,0,0,1,1.54-6.52,24.74,24.74,0,0,1,7.5-10.71"/><path class="cls-23" d="M162.49,298.3a37.56,37.56,0,0,1,2.48-7.44,33.07,33.07,0,0,1,7.18-10.23"/><path class="cls-23" d="M166.78,297.23a36.12,36.12,0,0,1,1.78-6,31.79,31.79,0,0,1,7.75-11.5"/><path class="cls-23" d="M171.31,294.91a25.07,25.07,0,0,1,3-9.11,20,20,0,0,1,6.2-6.76"/><path class="cls-23" d="M175.21,291.72a44.51,44.51,0,0,1,3.09-7.14,39.91,39.91,0,0,1,3.75-5.68"/><path class="cls-23" d="M144.19,282.94q.52.54,1.14,1.08a19.86,19.86,0,0,0,3.85,2.69"/><path class="cls-23" d="M145.4,279.6a11.27,11.27,0,0,0,1.17,2,10.42,10.42,0,0,0,6,4"/><path class="cls-23" d="M146.53,277.44a20.87,20.87,0,0,0,2.09,2.67,19.88,19.88,0,0,0,6.56,4.74"/><path class="cls-23" d="M147.76,274.75a20,20,0,0,0,1.53,2.52,18.37,18.37,0,0,0,8.69,6.52"/><path class="cls-23" d="M149,273.08a24.11,24.11,0,0,0,3.26,4.51,21,21,0,0,0,8.87,5.76"/><path class="cls-23" d="M151,271.21a23.55,23.55,0,0,0,2.94,4.48,21,21,0,0,0,10.55,6.86"/><path class="cls-23" d="M153.47,269.54a27.15,27.15,0,0,0,3.83,5.29,23.48,23.48,0,0,0,10.81,6.69"/><path class="cls-23" d="M156.64,268.79a35.71,35.71,0,0,0,5,5.75A31.07,31.07,0,0,0,172,280.91"/><path class="cls-23" d="M160.57,268a33.92,33.92,0,0,0,3.87,4.73,30,30,0,0,0,11.33,7.31"/><path class="cls-23" d="M165.45,268.62a23.86,23.86,0,0,0,6.15,7,18.89,18.89,0,0,0,8.15,3.63"/><path class="cls-23" d="M170.71,270a41,41,0,0,0,5.47,5.22,37,37,0,0,0,5.53,3.64"/></g><path class="cls-24" d="M181.8,279c-.29,0-.74,0-1.28,0a19.54,19.54,0,0,0-3.54.55c-1,.24-1.83.45-2,.5-2.16.59-2.55.5-6.23,1.27a37.57,37.57,0,0,0-3.92.91,21.92,21.92,0,0,1-3,1c-1.51.33-1.45.07-3,.42-.87.2-1.71.47-3.19.95l-1.33.43c-.91.28-1.29.37-2.73.85-2,.68-2.05.76-2.87,1a12.24,12.24,0,0,1-4.41.43"/><g class="cls-25"><path class="cls-5" d="M173.7,317.83c.63.44,12,7.94,25.26,2.83a25.59,25.59,0,0,0,16.48-20.19c-1.12-.61-12.5-6.49-25.39-1.09A28.47,28.47,0,0,0,173.7,317.83Z"/><path class="cls-26" d="M176.25,322c.14-.48.31-1,.51-1.51a21.34,21.34,0,0,1,2.32-4.42"/><path class="cls-26" d="M179,323.12a8.8,8.8,0,0,1,0-2.23,11.63,11.63,0,0,1,3.75-6.73"/><path class="cls-26" d="M181.19,323.65a18.91,18.91,0,0,1,.57-3.3,21.23,21.23,0,0,1,3.85-7.63"/><path class="cls-26" d="M183.58,324.35a15.48,15.48,0,0,1,.1-2.84,19.62,19.62,0,0,1,4.94-10.29"/><path class="cls-26" d="M186.06,325a20.16,20.16,0,0,1,.69-5.4,23.35,23.35,0,0,1,5.56-9.83"/><path class="cls-26" d="M188.87,325a19.43,19.43,0,0,1,.37-5.18,23.63,23.63,0,0,1,6.62-11.7"/><path class="cls-26" d="M192.15,324.35A22.92,22.92,0,0,1,193,318a26.61,26.61,0,0,1,7-11.73"/><path class="cls-26" d="M195.87,323.09a32.61,32.61,0,0,1,1.74-7.44,35.35,35.35,0,0,1,6.68-11.2"/><path class="cls-26" d="M200.57,321a30.35,30.35,0,0,1,1.16-5.95,33.56,33.56,0,0,1,7.14-12.52"/><path class="cls-26" d="M205.37,317.68a21.38,21.38,0,0,1,2.11-9.09,23.53,23.53,0,0,1,6.06-7.8"/><path class="cls-26" d="M209.34,313.75a40,40,0,0,1,2.48-7.32,41.49,41.49,0,0,1,3.43-6.16"/><path class="cls-26" d="M173,313.88q.68.36,1.44.69a21.56,21.56,0,0,0,4.75,1.45"/><path class="cls-26" d="M173.84,310.52a9.18,9.18,0,0,0,1.61,1.53,11.89,11.89,0,0,0,7.39,2"/><path class="cls-26" d="M174.81,308.26a19.56,19.56,0,0,0,2.75,1.88,21.52,21.52,0,0,0,8.11,2.6"/><path class="cls-26" d="M175.82,305.48a14.61,14.61,0,0,0,2.1,1.89,19.86,19.86,0,0,0,10.77,3.68"/><path class="cls-26" d="M177,303.63a21,21,0,0,0,4.34,3.25,23.68,23.68,0,0,0,10.87,2.92"/><path class="cls-26" d="M179,301.41a19.84,19.84,0,0,0,4,3.31,23.94,23.94,0,0,0,12.93,3.48"/><path class="cls-26" d="M181.54,299.23a23.34,23.34,0,0,0,5.1,3.82,26.86,26.86,0,0,0,13.19,3.26"/><path class="cls-26" d="M185,297.72a32.87,32.87,0,0,0,6.52,3.92,35.92,35.92,0,0,0,12.61,3.1"/><path class="cls-26" d="M189.38,296a29.86,29.86,0,0,0,5.05,3.3A33.85,33.85,0,0,0,208.3,303"/><path class="cls-26" d="M195,295.25a21.64,21.64,0,0,0,8,4.81,23.67,23.67,0,0,0,9.75,1.17"/><path class="cls-26" d="M201.14,295.14a40.39,40.39,0,0,0,6.94,3.33,41.89,41.89,0,0,0,6.78,1.86"/></g><path class="cls-27" d="M215,300.45c-.34.07-.84.18-1.45.34a29.68,29.68,0,0,0-3.93,1.44c-1.16.5-2,.89-2.19,1-2.36,1.1-2.81,1.12-6.87,2.79-2.35,1-3.53,1.44-4.31,1.85a31.75,31.75,0,0,1-3.3,1.7c-1.65.69-1.62.44-3.31,1.16-1,.41-1.87.88-3.47,1.71l-1.45.73c-1,.49-1.41.68-3,1.49-2.21,1.16-2.21,1.24-3.11,1.65a17.94,17.94,0,0,1-4.93,1.54"/><path class="cls-17" d="M168.46,261.49A81.29,81.29,0,0,0,183.62,280c10.16,9.17,18.07,11.47,28.48,18a109.56,109.56,0,0,1,28.57,26.47"/></g><rect class="cls-10" x="243.84" y="244.51" width="96.37" height="70.26"/><ellipse class="cls-28" cx="285.15" cy="229.42" rx="44.35" ry="45.17" transform="matrix(0.96, -0.27, 0.27, 0.96, -51.57, 86.01)"/><ellipse class="cls-29" cx="241.26" cy="247.35" rx="6.16" ry="6.67" transform="translate(-58.08 74.77) rotate(-15.75)"/><g id="eye"><path class="cls-30" d="M279.31,237.62a17.19,17.19,0,0,0-6.29-8.14c-.37-.25-8-5.29-16-1.71a16.19,16.19,0,0,0-7.11,6.37,34.19,34.19,0,0,0,9.81.84c6.67-.41,10.09-2.67,14.59-1A12,12,0,0,1,279.31,237.62Z"/><path class="cls-31" d="M279.31,237.62a14.73,14.73,0,0,0-6.91-4.43c-4.89-1.35-8.21,1-17.13,1.18-2.19,0-4,0-5.19-.12a22.53,22.53,0,0,0,2.26,2.71l.26.27c2.33,2.29,6.71,3.49,6.71,3.49a23.41,23.41,0,0,0,13.29.17A22.54,22.54,0,0,0,279.31,237.62Z"/><ellipse class="cls-32" cx="266.68" cy="237.49" rx="4.21" ry="4.3" transform="matrix(0.96, -0.27, 0.27, 0.96, -54.45, 81.3)"/><ellipse class="cls-33" cx="266.77" cy="237.39" rx="2.47" ry="2.51" transform="translate(-54.42 81.32) rotate(-15.75)"/><ellipse class="cls-31" cx="265.05" cy="236.72" rx="0.98" ry="0.49" transform="matrix(0.96, -0.27, 0.27, 0.96, -54.3, 80.83)"/><path class="cls-33" d="M279.31,237.62a11.13,11.13,0,0,0-6.68-3.65,21.85,21.85,0,0,0-3.81,0,16.36,16.36,0,0,0-3.73.49,30.5,30.5,0,0,1-4.26.69,37.83,37.83,0,0,1-4.26.16,25.76,25.76,0,0,1-4.29-.42,37.52,37.52,0,0,1-4.12-1.19c1.43-.28,2.81-.41,4.17-.55s2.7-.38,4-.62l4-.71c1.34-.24,2.59-.49,3.93-.81a16.52,16.52,0,0,1,2.27-.38,18.83,18.83,0,0,1,2.25,0,16.19,16.19,0,0,1,4.46.69A9.07,9.07,0,0,1,279.31,237.62Z"/><path class="cls-33" d="M268.48,233.33a9.15,9.15,0,0,1-2.94-.43,10.31,10.31,0,0,1-2.71-1.32,8,8,0,0,1-2.11-2.2,6.64,6.64,0,0,1-.66-1.37c-.12-.5-.23-1-.3-1.47.3.42.54.83.78,1.23a12,12,0,0,0,.86,1.1,12.21,12.21,0,0,0,2.06,1.81A28.41,28.41,0,0,0,268.48,233.33Z"/><path class="cls-33" d="M264.78,234.2a9.15,9.15,0,0,1-2.94-.43,10,10,0,0,1-2.71-1.33,7.72,7.72,0,0,1-2.11-2.19,6.64,6.64,0,0,1-.66-1.37c-.12-.5-.23-1-.3-1.47.3.41.54.83.78,1.23a11.58,11.58,0,0,0,.86,1.1,12.21,12.21,0,0,0,2.06,1.81A28.41,28.41,0,0,0,264.78,234.2Z"/><path class="cls-33" d="M260.16,234.15a9.16,9.16,0,0,1-2.94-.44,9.73,9.73,0,0,1-2.71-1.32,7.89,7.89,0,0,1-2.11-2.2,6.4,6.4,0,0,1-.66-1.37c-.12-.49-.23-1-.3-1.47.3.42.54.83.78,1.23a12,12,0,0,0,.86,1.1,12.21,12.21,0,0,0,2.06,1.81A29.12,29.12,0,0,0,260.16,234.15Z"/></g><g id="brow"><path class="cls-33" d="M288.06,223.52a14.84,14.84,0,0,1,2.27-7.29,17.52,17.52,0,0,1,5.48-5.56,16.29,16.29,0,0,1,7.45-2.54,13,13,0,0,1,7.53,1.51c-2.44.92-4.57,1.66-6.57,2.55a41.39,41.39,0,0,0-5.56,3,51.56,51.56,0,0,0-5.15,3.77C291.79,220.32,290.1,221.89,288.06,223.52Z"/><path class="cls-33" d="M274.82,227.25c-2.59-.32-4.85-.77-7.05-1.07a50.29,50.29,0,0,0-6.36-.52,40.84,40.84,0,0,0-6.29.38c-2.17.28-4.37.76-6.93,1.26a13,13,0,0,1,5.63-5.23,16.25,16.25,0,0,1,7.68-1.72,17.3,17.3,0,0,1,7.58,1.88A14.79,14.79,0,0,1,274.82,227.25Z"/></g><path class="cls-34" d="M292.42,192.14A116.92,116.92,0,0,1,285.24,206c-6.43,10.6-12,16-18.7,24.2a189.9,189.9,0,0,0-17.36,25.33l-.91-1.25-1.81-2.53a5.37,5.37,0,0,1-2.65,1.37,5.5,5.5,0,0,1-4.67-1.47c-2.31-2.26-1.31-6.62-.92-8.32,2.69-11.72,20.19-25.11,26.87-30.22Z"/><ellipse class="cls-28" cx="327.76" cy="219.62" rx="6.16" ry="6.81" transform="translate(-47.31 97.21) rotate(-15.75)"/><path class="cls-35" d="M333,216.77c1.74,4.47-2.84,10-5.66,9.86a2.8,2.8,0,0,1-.42-.06,32.19,32.19,0,0,0-3.82-13,5.09,5.09,0,0,1,1.59-.89A7.23,7.23,0,0,1,333,216.77Z"/><path class="cls-10" d="M292.42,192.14A138.8,138.8,0,0,1,242,242.9a5.2,5.2,0,1,0,3.79,9.43,56.93,56.93,0,0,0,20.8,20.37c2.06,4.37,18,39.73-.44,74.95-11.42,21.81-30,32-37.19,35.43a409.23,409.23,0,0,0,.64-83.77c-3-31.37-8.74-50.77.36-77.62,9-26.57,24-35.35,28.46-37.69,12.32-6.42,24.23-4.61,27-3.71a22,22,0,0,1,7.8,4.5l.42.42a22.27,22.27,0,0,1,8.82-2.5c8.28-.52,14.47,4,18.32,6.95,4.37,3.33,9,8.18,13.71,17.34a95.49,95.49,0,0,1,9,27.17A72.73,72.73,0,0,0,347,246.25c8.26,21.16,21.95,41.37,30.08,56.2,6.44,11.76,13.15,29.89,12.84,56.89-9.52,6.18-15.63,7-19.58,4.89-5.09-2.68-5.06-9.32-9.15-20.24-3-8-3.85-6.68-13.38-23.83-11.51-20.69-12.72-27-24.25-46.14-2.95-4.87-5.48-8.8-7.16-11.33a41.67,41.67,0,0,0,10.59-36.12,8.93,8.93,0,0,0,2.33-1.46c2.12-1.86,4.68-6,2.81-9.1-1.35-2.24-4.62-3.33-7.91-2.44-3.09.22-14.15.66-21.36-5.92-4.22-3.85-8.22-11.11-8.41-11.46C293.51,194.56,292.86,193.15,292.42,192.14Z"/><g id="eye-2" data-name="eye"><path class="cls-30" d="M290.8,234.38a17.18,17.18,0,0,1,1.11-10.22c.18-.42,4-8.68,12.74-9.82a16.24,16.24,0,0,1,9.39,1.71,33.84,33.84,0,0,1-7.93,5.85c-5.9,3.14-10,3-13,6.77A11.93,11.93,0,0,0,290.8,234.38Z"/><path class="cls-31" d="M290.8,234.38a14.77,14.77,0,0,1,3.58-7.38c3.46-3.71,7.5-3.48,15.22-7.95,1.9-1.1,3.39-2.12,4.36-2.82a22,22,0,0,1-.51,3.5s0,.19-.09.36a18.82,18.82,0,0,1-6.15,9.26,21.38,21.38,0,0,1-8.5,4.18A25.4,25.4,0,0,1,290.8,234.38Z"/><ellipse class="cls-32" cx="301.43" cy="227.8" rx="4.32" ry="4.41" transform="translate(-50.52 90.37) rotate(-15.75)"/><ellipse class="cls-33" cx="301.3" cy="227.76" rx="2.52" ry="2.57" transform="translate(-50.51 90.33) rotate(-15.75)"/><ellipse class="cls-31" cx="302.51" cy="226.11" rx="0.97" ry="0.48" transform="translate(-50.02 90.6) rotate(-15.75)"/><path class="cls-33" d="M290.8,234.38a9.05,9.05,0,0,1,1.82-8.56,16.69,16.69,0,0,1,3.44-2.93,21.4,21.4,0,0,1,1.93-1.16,17.28,17.28,0,0,1,2.13-.86c1.3-.43,2.5-.87,3.77-1.36l3.79-1.49c1.27-.5,2.51-1,3.77-1.58s2.47-1.21,3.84-1.71a39,39,0,0,1-2.89,3.17,26.53,26.53,0,0,1-3.44,2.6,39.82,39.82,0,0,1-3.72,2.09,31.09,31.09,0,0,1-4,1.63,16.05,16.05,0,0,0-3.45,1.54,21.33,21.33,0,0,0-3.22,2A11.07,11.07,0,0,0,290.8,234.38Z"/><path class="cls-33" d="M297.8,225.07a29.71,29.71,0,0,0,2.89-4.89,11.85,11.85,0,0,0,.8-2.62,10.41,10.41,0,0,0,.17-1.38c0-.47,0-1,0-1.46a14.66,14.66,0,0,1,.52,1.41,6.35,6.35,0,0,1,.15,1.51,7.82,7.82,0,0,1-.65,3,9.89,9.89,0,0,1-1.62,2.54A9.23,9.23,0,0,1,297.8,225.07Z"/><path class="cls-33" d="M301.4,223.87a29.41,29.41,0,0,0,2.9-4.88,12,12,0,0,0,.8-2.62,9.1,9.1,0,0,0,.16-1.39c0-.47,0-.94,0-1.45a13.74,13.74,0,0,1,.52,1.41,6.35,6.35,0,0,1,.15,1.51,7.77,7.77,0,0,1-.65,3,10.12,10.12,0,0,1-1.62,2.55A8.85,8.85,0,0,1,301.4,223.87Z"/><path class="cls-33" d="M305.31,221.41a28.67,28.67,0,0,0,2.89-4.88,11.52,11.52,0,0,0,.81-2.62,10.75,10.75,0,0,0,.16-1.39c0-.47,0-1,0-1.45a14.47,14.47,0,0,1,.52,1.4,6.48,6.48,0,0,1,.15,1.52,7.81,7.81,0,0,1-.65,3,9.89,9.89,0,0,1-1.62,2.54A9.09,9.09,0,0,1,305.31,221.41Z"/></g><g id="nouse"><path class="cls-36" d="M282.36,236.11a8.65,8.65,0,0,1,.14,3.62,5.89,5.89,0,0,1-1.76,3.29c-.22.21-.44.4-.6.59s-.16.26-.13.38c.1.3.67.61,1.17.82,1.05.44,2.21.73,3.35,1.09a12.23,12.23,0,0,1-3.59-.44,4.49,4.49,0,0,1-.89-.36,1.77,1.77,0,0,1-.81-.78,1.08,1.08,0,0,1-.06-.71,1.43,1.43,0,0,1,.29-.55c.23-.27.45-.47.65-.68a6,6,0,0,0,1.71-2.81A15,15,0,0,0,282.36,236.11Z"/></g><g id="mouse"><ellipse class="cls-13" cx="288.95" cy="252.02" rx="4.97" ry="4.02" transform="translate(-57.56 87.89) rotate(-15.75)"/><path class="cls-36" d="M280.5,252.41a4.5,4.5,0,0,1,1.1,0c.37.05.75.21,1.06.28.59.15.93-.52,1.5-1.06a2.46,2.46,0,0,1,2.33-.69c.82.19,1.48.75,1.92.73a.5.5,0,0,0,.47-.28,3.91,3.91,0,0,1,.45-1.07,2,2,0,0,1,1.12-.74,3.45,3.45,0,0,1,1.19,0,10,10,0,0,0,4.23-.34,7.6,7.6,0,0,1-4.26,1,3.54,3.54,0,0,0-1,.1,1.12,1.12,0,0,0-.63.47,5,5,0,0,0-.35.94,1.37,1.37,0,0,1-1.26.81,2.66,2.66,0,0,1-1.22-.4,4.62,4.62,0,0,0-.9-.4,1.77,1.77,0,0,0-1.68.4c-.26.21-.5.47-.83.72a1.3,1.3,0,0,1-1.25.23c-.38-.16-.64-.35-1-.46A8.91,8.91,0,0,0,280.5,252.41Z"/></g><path class="cls-28" d="M302.47,298.51H285.55q.17-11.94.05-24.13c0-1.29,0-2.57-.05-3.85h16.92Z"/><path class="cls-28" d="M390.87,442.32l-195.21,3.31q1.82-28.83,3.62-57.66c-.35-5.47-1.89-38.54,23.65-65.56,26.23-27.74,60.5-27.41,65.84-27.27h14.09A93.11,93.11,0,0,1,396,388.25Z"/><path class="cls-34" d="M246.46,251.72A47.59,47.59,0,0,0,268,270.88a45.06,45.06,0,0,0,16.05,3.62,44.59,44.59,0,0,0,18.65-3.39,97.39,97.39,0,0,1-7.09,17c-.1.2-.23.44-.39.73-6.82,12.62-17.46,24.49-17.46,24.49-5.06,5.62-12.33,15.31-21.53,33.09,1.77-10.41.29-13.91-1.53-15.08a27.57,27.57,0,0,1-6.47-4.67c-2.47-2.5-8.63-10.12-5.75-45.49A281.74,281.74,0,0,1,246.46,251.72Z"/><path class="cls-37" d="M278,273.91a5,5,0,0,0-.14.56c-.64,3.22,1.92,4.9,1.73,7.2s-2.92,2.4-3.82,4.8c-.59,1.59-.44,4.31,3.71,9.15"/><path class="cls-38" d="M246.49,251.57a15.61,15.61,0,0,1-1.76-3.2,16.22,16.22,0,0,1-1.19-6.39"/><path class="cls-39" d="M323.43,213.62a40.87,40.87,0,0,1,2.15,5.55,41.6,41.6,0,0,1,1.53,7.42"/><path class="cls-40" d="M249.59,264.49c1.85,6.62,3.5,13.76,4.83,21.39.43,2.49.81,4.95,1.15,7.35"/><g class="cls-41"><g class="cls-42"><polygon class="cls-43" points="269.98 258.31 270.23 257.71 269.42 259.34 269.98 258.31"/><path class="cls-43" d="M272.71,252.34l-.39.65c-2.3,4.75-1.67,3.35-3.25,6.79.4-.72,1.28-2.33,2.18-4.19-.12.18-1,2-.79,1.38.68-1.36.64-1.17,1.53-3,.67-1.48-.6,1.15-.34.46Z"/><path class="cls-43" d="M270.31,257c.42-.82.82-1.63,1.15-2.29C271.05,255.54,270.52,256.53,270.31,257Z"/><path class="cls-43" d="M270,257.48c0-.2.86-1.74,1-2l-1.55,3Z"/><path class="cls-43" d="M270,257.2l-.16.27C269.58,258,269.79,257.57,270,257.2Z"/><path class="cls-43" d="M269.72,257.53c-.51,1.05-.17.43.1-.06l.09-.19a25.92,25.92,0,0,1,1.27-2.46c.28-.47-.79,1.67-.05.27l.83-1.78C271.77,253.56,270.17,256.68,269.72,257.53Z"/><path class="cls-43" d="M270,257.2a.55.55,0,0,1,.09-.13C270.24,256.71,270.12,256.92,270,257.2Z"/><polygon class="cls-43" points="269.93 257.5 270.18 257.06 270.63 256.13 269.93 257.5"/><path class="cls-43" d="M269.51,257.62c1.48-2.93-.07.38,1.09-1.92a39.6,39.6,0,0,1,1.76-3.7l-.52.89C271.26,254,270.18,256.21,269.51,257.62Z"/><path class="cls-43" d="M273.16,250.11c-.13.24-.22.42-.27.5Z"/><path class="cls-43" d="M270.32,255l1.64-2.89c-.5,1-1,1.87-1.16,2.19s.82-1.45.71-1.14c-1.38,2.75-.18.16-1.4,2.63a12.63,12.63,0,0,0,1.39-2.47l-.89,1.89,1.5-3c.42-.88-1.23,2.34-.19.24.65-1.29.79-1.53,1-1.83-.34.59,1.11-2.4.85-2S271.1,253.63,270.32,255Z"/><polygon class="cls-43" points="272 251.74 272.6 250.56 271.79 252.14 272 251.74"/><path class="cls-43" d="M269.86,255.57l1-1.84-.72,1.44,1.27-2.43c1.36-2.72-.53.83-.81,1.29.54-1.27.76-1.47,2-4,0,.08-.35.74-.4.93,1.52-3.09,0-.31-.42.43a8.53,8.53,0,0,0-.42.89l-.5.87C269.86,255.27,269.59,255.87,269.86,255.57Z"/><path class="cls-43" d="M270,255.61c-.13.2,0,0,.16-.39C269.78,256,269.52,256.49,270,255.61Z"/><path class="cls-43" d="M271.79,251.42c-.08.17,0,.11.06-.07S271.91,251.2,271.79,251.42Z"/><path class="cls-43" d="M270.16,254.65l.1-.3-.65,1.28A9.84,9.84,0,0,0,270.16,254.65Z"/><path class="cls-43" d="M270.67,249.62c-.6,1.1-.88,1.64-.73,1.44-.81,1.45-.7,1.14-1.18,2s-.95,1.69-1.72,3.1c0,.17,1-1.7.89-1.28l-.85,1.55c.58-.87,1.43-2.16.81-.88-.23.58.19-.07.62-.69-.17.88.88-.49.4,1l1.54-2.83c-.73,1.42.06,0-.92,1.87.17-.37,0-.07,0,0-1.27,2.53.25-.13-.16.8.26-.51,1.55-3,1.8-3.43-1.67,3.17.1,0-1.78,3.64-.41.94,1.45-2.77,1.25-2.23,1-1.87.41-.94,1.13-2.36s-.27.66.75-1.31c.39-1-1.83,2.83-2.56,3.79l.95-1.74c-.75,1.22-.92,1.2.55-1.68a29.84,29.84,0,0,0-1.66,2.83,10,10,0,0,0,.51-1.08l-.66,1.2c0-.06,1-1.9.87-1.8-.85,1.64-1.14,2.1-1.88,3.43l2.48-4.95-1,1.82c.28-.59-.57,1-.87,1.51-.08.06,1.07-2,1.65-3.08.3-.67-1.92,3.3-1.23,1.94l-.9,1.67c-.29.37.67-1.48.3-1,1.23-2.28,1.14-1.93,1.71-2.9.25-.48.29-.62.71-1.38l-2.25,3.78C270.76,249.7,270.6,249.81,270.67,249.62Z"/><path class="cls-43" d="M271.5,248.55l.51-.89c-.08.14-.17.28-.12.17Z"/><path class="cls-43" d="M270.67,249.62l.14-.25Z"/><path class="cls-43" d="M267.83,255.66l.06-.15,0-.08Z"/><path class="cls-43" d="M272,248.12c-.3.59-.62,1.19-.94,1.82C271.5,249.17,271.82,248.59,272,248.12Z"/><path class="cls-43" d="M271.38,250.2l.74-1.32A8.11,8.11,0,0,0,271.38,250.2Z"/><polygon class="cls-43" points="271.66 248.09 271.33 248.58 271.07 249.01 271.66 248.09"/><path class="cls-43" d="M265.77,256.11c-1.08,2-.32.83-.48,1.25.69-1,2.48-4.29,2.71-4.47l-2.34,4c.24-.18-.09.75,2-2.77-.28.5-.6,1.12-1,1.69.16-.13,3.31-5.77,2.63-4.37-1.5,2.47-1.33,2.41-2.77,4.91l-.18.29c.21-.23,1-1.54,1-1.34.58-1,1.46-2.67,1.57-2.77s.77-1.39,1.36-2.45c-.69,1.14-.32.41-1.12,1.77l1-1.8-.75,1.25c.15-.34.8-1.36.92-1.67a8.24,8.24,0,0,1-.92,1.45l.28-.47a13.8,13.8,0,0,0-1.26,2.1l1.25-2.26-.87,1.54c.27-.65,2.34-4.34,1.16-2.48-.25.48-.74,1.29-.92,1.59-.57,1.07.71-1.15.87-1.33-.87,1.53-2,3.33-2.47,4.28a40.15,40.15,0,0,1,1.94-3.65c.08-.28-1,1.58-.56.65l.33-.56c-1.47,2.51.61-1.18-.93,1.39l-.3.58a9,9,0,0,1-.76,1.23l.51-.9c-1.06,1.83-1.31,2.08-1.63,2.61a19,19,0,0,0,1.07-1.6C266.51,254.9,265.62,256.45,265.77,256.11Z"/><path class="cls-43" d="M270.24,249.77l-.52.88Z"/><path class="cls-43" d="M267.36,252.75c.2-.44.92-1.56,1.36-2.39-.78,1.25-1.48,2.62-2.62,4.48.62-1.11-.53.76-.57.79.65-1.06,2.06-3.48,2.34-4-.41.67.26-.55.28-.64-.83,1.55-.59.88-1.51,2.56-.84,1.42-1.53,2.43-.9,1.32s.51-.8.55-.84c1.17-1.94.58-1.07,1.63-2.85-1.67,2.67-1.76,2.37-4.3,6.75-.48.85.17-.2.3-.36.45-.91,1.38-2.31,1.85-3.08-.39.71.48-.64-.46.91l-1,1.6c-.34.92,0,.74.59.18l0-.12c.7-1.18.78-1.24,1.13-1.79l1.66-2.9c-.11.22.16-.2-.44.83.74-1.21,1.16-1.95,1.72-2.95.35-.48-.3.65.83-1.21,1.31-2.42-1.21,1.92-.08-.21Z"/><polygon class="cls-43" points="268.46 251.27 267.59 252.71 268.04 252.02 268.46 251.27"/><path class="cls-43" d="M264.72,257.62l.92-1.56C265.84,255.62,265.33,256.51,264.72,257.62Z"/><path class="cls-43" d="M267.94,251l-.34.47-.31.58C267.67,251.45,267.85,251.18,267.94,251Z"/><path class="cls-43" d="M263.09,258.31c.25-.24,1.1-1.58.3-.06,1.17-1.86,2.1-3.54,3.14-5.23.21-.44-1.7,2.74-2.1,3.32.95-1.62-.28.32-.1-.08Z"/><path class="cls-43" d="M266.59,252s-.81,1.2-.37.41c.63-1,.87-1.37.73-1.09,1.39-2.3-.26.34.65-1.22-.15.26-.38.66-.69,1.14.24-.58-1.2,1.85-.51.48-.4.61-.41.6-1.35,2.12,1.13-2,1.15-1.93,2.12-3.66l-3,4.84c1.55-2.74-.35.3.83-1.74.07-.1.38-.57.24-.31,1.64-2.65-.36.45-.07-.1l1.42-2.26c-.26.35-1.25,1.79-.26.11l.72-1.13c-1.17,1.67-.77.81-1.38,1.61l.85-1.42c-1.19,1.65-.4.86-2.61,4.16,2.63-4.15-.92,1.33.07-.37s.61-.81,1.79-2.72c-1.37,2.11-.42.59-.85,1.18,1.29-2,.11-.31,1.57-2.55L264,253.09c.71-1.15.56-1,.35-.71a2.42,2.42,0,0,1-.29.5l-.73,1.13c-.55.85-1.18,1.82-1.44,2.3.73-.89,1.33-1.46.79-.32,1.76-2.75.06.09,1.51-2.16l-1.58,2.53c.46-.54.93-1.52,1.59-2.51a21.42,21.42,0,0,1-1.38,2.33,24.9,24.9,0,0,0,1.45-2.23L262.44,257c.78-.82,2.29-2.71,1.44-.85l1.16-1.92c-.55,1.12,2.74-4.16.33,0l1-1.63c-.58.94-1.75,2.88-2.55,4.18.42-.63,0,.11.4-.46l.5-.95c1-1.61.45-.58-.4.86,1.24-1.9,2-3.35,2.93-5-2.25,3.5,2-3.52,1-2.09C267.56,250.26,267.22,251,266.59,252Z"/><path class="cls-43" d="M263.53,257.3c.09-.16.2-.33.32-.51Z"/><path class="cls-43" d="M264.39,252.38l-.1.09C264,252.94,264.21,252.62,264.39,252.38Z"/><path class="cls-43" d="M264.33,256.26l0,0,0,0Z"/><polygon class="cls-43" points="267.22 251.58 267.23 251.51 266.7 252.39 267.22 251.58"/><path class="cls-43" d="M265.66,249.86l-.64,1C265.22,250.53,265.42,250.21,265.66,249.86Z"/><path class="cls-43" d="M265.36,248.8v.06C265.45,248.7,265.42,248.72,265.36,248.8Z"/><path class="cls-43" d="M262.32,249.66c-.46.54-.94,1.08-2.1,2.6l.7-.95c-.36.45-1.56,1.92-2.74,3.66l.62-.82c1.09-1.38-1.11,1.62-1.5,2.27.39-.41,3-4,2.45-3.1.11-.1-.59.87-1.12,1.59-.14.3,1.87-2.45,2.15-2.78-5.16,7.27,1.58-1.88-1.64,2.81.47-.55.09.12,1.16-1.27-1.31,1.8-.05.19-1.51,2.24,3-4.23-1.15,2,2.62-3.32-1,1.56.25-.36-.54,1a8.47,8.47,0,0,1-.51.7c-.74,1.14,1.65-2.26,0,.21a33,33,0,0,0,2.06-2.85c-.36.69-.88,1.4-2.37,3.66,1.78-2.57,1-1.3,1.92-2.6a17.49,17.49,0,0,1,1.08-1.62c-.19.47,1.23-1.64,1.78-2.28-1.89,2.86-.13,0-1.6,2.32-.95,1.28-.9,1.12-2.35,3.17,0,.21.37-.18,1.27-1.32-.22.41-.94,1.32-1.09,1.61-.76,1.31,2.1-2.82,1.31-1.52l-1,1.46c1.36-1.93-.14.53.66-.5.49-.75.82-1.26,1.15-1.74-2.48,3.72,1.4-1.86-.28.81,1.56-2.36,2.51-3.64,2.71-3.86l-1.47,2.25c.84-1.43-1.78,2.53-2.56,3.58.86-1.18.1.14,1.27-1.55l-1.24,1.84c-.11.33,2.83-4.15,1.73-2.33l-.9,1.35c.26-.1-1.15,2.46,1-.53l3-4.68c-.69.93-2,2.89-2.71,3.83l1.4-2.13c-1,1.45-1.6,2.28-2.32,3.45s1.2-1.9.35-.71l2.87-4.31-.76,1.07,1.06-1.63c-1.85,2.65.58-1.1-.29.06l-.22.42a15.69,15.69,0,0,1-1,1.44c1.13-1.75,1-1.52,1.43-2.31l-1.35,1.93a13.1,13.1,0,0,1-.86,1.18c1.57-2.34.77-1.32,2.08-3.3-1.57,2.32-.64.77-1.55,2.11-.34.47-.21.19.62-1.05.06-.07.22-.29.29-.39l0-.1.35-.51c0-.07-1.13,1.62-.38.45.42-.61.43-.6.6-.83.22-.43-2.48,3.47-1.1,1.32-.75,1.09-.88,1.14-2.54,3.62.56-.88,1.91-2.84,1.62-2.53-1.44,2.06.47-.8-.48.51l1.88-2.66c.56-.88-1.4,1.88-1.19,1.45l1.08-1.6c-.52.71-1.71,2.39-.55.66l-1,1.47a19.34,19.34,0,0,1,1.17-2l-2,2.76c2-3,.07-.42-1.77,2.07a13.24,13.24,0,0,1,.81-1.28l.74-1c0-.13,1.11-1.75-.54.56-.53.67,1.09-1.61,1.33-2-2.37,3.2,1.49-2.55-2.05,2.39,0,0-.63,1.08-.41.9-.45.59-1.12,1.57-1.22,1.66s1.05-1.67.4-.89l2.25-3.14C264.6,246.82,259.17,254.21,262.32,249.66Z"/><path class="cls-43" d="M263,250.25l1.07-1.63-.95,1.37C263.3,249.78,263.32,249.78,263,250.25Z"/><path class="cls-43" d="M263.13,250l-.47.62s0,0,.24-.28Z"/><path class="cls-43" d="M261.77,250.07c.08-.13.24-.39,0-.06S261.41,250.54,261.77,250.07Z"/><polygon class="cls-43" points="261.04 250.97 260.7 251.48 260.97 251.12 261.04 250.97"/><path class="cls-43" d="M257.77,252.73l-1.5,1.81c.71-1-.25.12,1-1.49-1.75,2.19-.18,0-2.61,3.18,1.06-.93-.06,1.2,2.35-1.49L256,256c2.05-2.47-1.91,3,2-2.06l-2,2.61c-.48.78,2.91-3.7.93-.88l.78-1.08s-.33.5-.32.52l.35-.48c.83-1,.75-.88.26-.12s-.28.34-.46.56c-.61.86.73-.9.76-.86-.52.76-.89,1.21-1.15,1.56.95-1.09-1,1.72,1.91-2.17.52-.71.94-1.35,1.23-1.67.83-1.27-.35.24-1.18,1.26h0c-2.84,3.79.6-.88-.68.71,1.15-1.54,1.17-1.49,1.79-2.32,2.06-3-1.75,2.13.94-1.64l.1-.11c.26-.38-.29.32-.56.65-.36.49-.52.75-.77,1.12s-1.53,2-2.06,2.71c1.22-1.69-.63.8-.05-.07,1.14-1.56,1.08-1.4,1.71-2.22l-.82,1c-.12.07,1.21-1.72,1.82-2.58-.91,1.16-.61.86-1.87,2.5,1.39-1.95.83-1.55-.38-.11.19-.2,1.25-1.64,1.09-1.37a10,10,0,0,0-1.28,1.6c-.85,1-.37.2.4-.92l-.88,1.2c-1.56,2,1-1.56,0-.47l0,0c-.21.23-2.44,3.1-2,2.46C256.75,254,256.68,254.15,257.77,252.73Z"/><path class="cls-43" d="M255.39,255.23l1.29-1.61c.25-.39-1.41,1.68-2.22,2.75.29-.33-.25.42.48-.53C255.12,255.61,255.58,255,255.39,255.23Z"/><path class="cls-43" d="M254.63,255.06l-1.15,1.43c.28-.1.94-.64,0,.67-.34.52,1.59-1.93,2.08-2.47l-1.26,1.68c.84-1-.47.83,1.6-1.91.18-.24-1,1.27-.67.77l.73-.94-.3.29.92-1.15c1.22-1.72-2.78,3.47-2,2.31l1.83-2.35c.05-.18-.61.6.46-.87,0,0-.93,1.18-.55.72-.09.13-.81,1.08-1.36,1.77-1.53,1.77,1.1-1.39,1.79-2.39-1.33,1.55-2.54,2.77-1.09.87a22.68,22.68,0,0,1-2.26,2.72c.63-.84,1.12-1.38,1.68-2.07.17-.26.62-.86.33-.53-1,1.31-2.4,3-3.08,3.79C251.27,258.93,254.74,254.71,254.63,255.06Z"/><path class="cls-43" d="M253,257c.07-.07.24-.27.44-.52,0,0-.07,0-.09,0Z"/></g><g class="cls-42"><polygon class="cls-43" points="318.95 239.88 318.83 239.25 319.04 241.05 318.95 239.88"/><path class="cls-43" d="M318,233.39l0,.76c.67,5.24.44,3.72,1,7.46-.06-.83-.2-2.65-.47-4.69,0,.21.21,2.22.09,1.58-.16-1.51-.1-1.33-.33-3.31-.25-1.6.12,1.3,0,.58Z"/><path class="cls-43" d="M318.52,238.62c-.11-.92-.21-1.81-.3-2.55C318.33,237,318.43,238.1,318.52,238.62Z"/><path class="cls-43" d="M318.54,239.16c-.06-.19-.23-1.93-.27-2.21l.36,3.38Z"/><path class="cls-43" d="M318.34,239l0,.31C318.43,239.81,318.38,239.36,318.34,239Z"/><path class="cls-43" d="M318.3,239.37c.15,1.16.09.46.06-.1l0-.21a26.29,26.29,0,0,1-.29-2.75c0-.56.26,1.82.11.25l-.28-1.95C317.84,234.93,318.21,238.41,318.3,239.37Z"/><path class="cls-43" d="M318.34,239v-.16C318.29,238.4,318.31,238.64,318.34,239Z"/><polygon class="cls-43" points="318.46 239.23 318.42 238.72 318.3 237.71 318.46 239.23"/><path class="cls-43" d="M318.17,239.57c-.36-3.27.15.35-.13-2.21,0,.15-.36-2.26-.56-4.06l.06,1C317.66,235.57,318,238,318.17,239.57Z"/><path class="cls-43" d="M317.12,231.28c0,.27,0,.47.05.57Z"/><path class="cls-43" d="M317.44,237l-.22-3.32c.11,1.07.22,2.1.23,2.48s-.11-1.67,0-1.35c.35,3.06-.07.23.26,3a12.34,12.34,0,0,0-.19-2.83l.29,2.07-.39-3.35c-.13-1,.24,2.63,0,.31-.17-1.44-.17-1.72-.2-2.07,0,.69-.38-2.61-.4-2.16S317.32,235.35,317.44,237Z"/><polygon class="cls-43" points="317.04 233.28 316.89 231.96 317.09 233.73 317.04 233.28"/><path class="cls-43" d="M317.35,237.66l-.15-2.11c0,.29.12,1,.19,1.6-.08-.76-.21-2.08-.27-2.72-.35-3,0,1,0,1.51-.25-1.36-.17-1.64-.5-4.5,0,.08.11.82.17,1-.42-3.41-.16-.26-.12.59a6.49,6.49,0,0,0,.14,1l.06,1C317.18,237.41,317.29,238.05,317.35,237.66Z"/><path class="cls-43" d="M317.48,237.62c0,.23,0,0-.08-.42C317.49,238,317.56,238.61,317.48,237.62Z"/><path class="cls-43" d="M316.69,233.13c0,.18,0,.11,0-.1S316.67,232.88,316.69,233.13Z"/><path class="cls-43" d="M317.09,236.72l-.08-.3.17,1.42C317.17,237.68,317.17,237.46,317.09,236.72Z"/><path class="cls-43" d="M314.77,232.23c.09,1.25.16,1.86.18,1.61.11,1.65,0,1.34.08,2.29s.13,1.92.26,3.52c.07.17-.05-2,0-1.55s.09,1.2.14,1.76c0-1,0-2.59.2-1.18.12.61.12-.16.14-.92.34.84.46-.88.89.64l-.26-3.21c.16,1.59.06,0,.25,2.07-.05-.4,0-.06-.05,0,.33,2.8.14-.26.31.75-.07-.57-.35-3.36-.38-3.85.35,3.56.08-.08.51,4,.17,1-.31-3.12-.18-2.55-.2-2.11-.17-1-.34-2.6s.13.7-.09-1.51c-.21-1,0,3.38-.07,4.58l-.16-2c0,1.43-.11,1.51-.46-1.71.18,1.89-.21-1,.16,3.28a9.53,9.53,0,0,0-.16-1.18l.1,1.36c-.05,0-.21-2.12-.25-2,.18,1.85.19,2.39.3,3.91-.24-2-.44-3.84-.63-5.5.05.58.11,1.25.19,2a11,11,0,0,0,.09,1.74c0,.09-.21-2.29-.3-3.48-.12-.73.2,3.81,0,2.3l.16,1.88c0,.48-.24-1.6-.27-1-.23-2.59-.1-2.24-.16-3.36-.05-.55-.09-.68-.17-1.55.06,1.33.14,3.15.2,4.4C314.89,232.25,314.81,232.43,314.77,232.23Z"/><path class="cls-43" d="M314.87,230.88c0-.39,0-.74-.05-1,0,.16,0,.33,0,.2C314.84,230.4,314.86,230.66,314.87,230.88Z"/><path class="cls-43" d="M314.77,232.23c0-.1,0-.18,0-.29C314.76,232.11,314.76,232.18,314.77,232.23Z"/><path class="cls-43" d="M315.69,238.84l0-.16,0-.08Z"/><path class="cls-43" d="M315.08,230.24c.07.65.14,1.33.22,2C315.22,231.4,315.16,230.74,315.08,230.24Z"/><path class="cls-43" d="M315.69,232.33c0-.34-.07-.9-.12-1.51A9.93,9.93,0,0,0,315.69,232.33Z"/><polygon class="cls-43" points="314.76 230.41 314.75 231 314.77 231.5 314.76 230.41"/><path class="cls-43" d="M314.22,240.35c.18,2.25.19.87.28,1.3.06-1.18-.27-5-.17-5.22l.25,4.66c.1-.28.33.67.17-3.42,0,.57.11,1.27.12,1.94.07-.2-.39-6.64-.19-5.1.1,2.89.21,2.74.38,5.63v.33c.05-.31,0-1.85.09-1.65-.08-1.19-.24-3-.2-3.18s-.12-1.59-.2-2.79c0,1.33-.05.52,0,2.09-.11-1.56,0-.49-.15-2.05l.06,1.46c-.06-.38-.08-1.59-.15-1.9a8.12,8.12,0,0,1,0,1.7l0-.53a12.87,12.87,0,0,0,.09,2.44l-.19-2.58.11,1.77c-.13-.69-.41-4.91-.38-2.71.05.53.09,1.48.09,1.83.12,1.21,0-1.35,0-1.58.12,1.75.17,3.87.29,4.93-.18-2.09-.1.27-.38-4.12-.08-.28,0,1.88-.11.85l0-.65c.15,2.91-.12-1.31,0,1.68l.07.64a8.7,8.7,0,0,1,0,1.45c0-.45,0-.45-.06-1,.11,2.11,0,2.46.06,3.08a18.16,18.16,0,0,0,0-1.92C314.18,238.93,314.28,240.71,314.22,240.35Z"/><path class="cls-43" d="M314.49,232.6l.05,1C314.53,233.43,314.52,233.14,314.49,232.6Z"/><path class="cls-43" d="M313.71,236.66c-.07-.47-.08-1.81-.16-2.74,0,1.47.19,3,.25,5.19-.09-1.27,0,.92-.05,1,0-1.25-.18-4.05-.21-4.61,0,.78-.09-.61-.12-.69.15,1.75,0,1.05.14,3,.07,1.65.05,2.88,0,1.6s0-1,0-1c-.09-2.26-.1-1.22-.2-3.28.07,3.15-.17,2.94.09,8,.07,1,0-.26.06-.47-.12-1-.11-2.68-.14-3.58.07.81.05-.8.12,1l0,1.9c.21,1,.44.59.59-.17l-.09-.1c-.05-1.37,0-1.46,0-2.11l-.21-3.34c0,.25,0-.25.09.94,0-1.41-.1-2.27-.17-3.41,0-.6.1.71,0-1.47-.23-2.74,0,2.27-.18-.13Z"/><polygon class="cls-43" points="313.82 234.82 313.89 236.5 313.88 235.68 313.82 234.82"/><path class="cls-43" d="M314.16,242.18c0-.73,0-1.06-.08-1.8C314,239.9,314.07,240.92,314.16,242.18Z"/><path class="cls-43" d="M313.26,234.91l0,.59.07.65C313.26,235.4,313.26,235.08,313.26,234.91Z"/><path class="cls-43" d="M313.18,243.65c.08-.34.05-1.92.22-.21,0-2.2-.18-4.11-.24-6.1-.06-.48.09,3.23.06,3.94-.09-1.88-.06.42-.12,0C313.13,242.05,313.16,242.92,313.18,243.65Z"/><path class="cls-43" d="M312.64,236.43s0,1.45-.08.55c0-1.19,0-1.62,0-1.31-.1-2.69,0,.42-.12-1.38,0,.3,0,.76,0,1.33-.11-.62,0,2.21-.16.68,0,.73,0,.73,0,2.51-.13-2.26-.1-2.24-.23-4.22,0,1,.1,3.44.17,5.67-.2-3.14-.12.45-.26-1.9,0-.13,0-.69,0-.4-.07-3.12-.05.57-.11,0l0-2.67c0,.43-.07,2.18-.15.23l0-1.34a9.37,9.37,0,0,1-.27,2.11l-.07-1.66c-.09,2,.13.94.1,4.91-.08-4.91-.05,1.61-.15-.35s.06-1,0-3.25c0,2.52,0,.72-.06,1.45,0-2.37-.08-.33-.08-3l-.09,4.41c0-1.35-.07-1.12-.1-.78a2.74,2.74,0,0,1,0,.58v1.34c0,1,0,2.17.06,2.71.11-1.14.31-2,.48-.7,0-3.26.1,0,.08-2.63,0,1.05,0,1.94.07,3,.09-.7-.06-1.78-.05-3a21.44,21.44,0,0,1,.12,2.71c.07.17,0-.89,0-2.66l.11,3.59c.21-1.11.43-3.53.74-1.5l-.09-2.24c.16,1.24,0-5,.28-.19l0-1.93c0,1.11.11,3.37.16,4.9,0-.76.06.08.07-.61L313,240.3c0-1.91,0-.74.13.93,0-2.27-.19-3.88-.27-5.77,0,4.16-.25-4-.29-2.31C312.52,234.47,312.61,235.24,312.64,236.43Z"/><path class="cls-43" d="M313,242.57v0Z"/><path class="cls-43" d="M311,238a.69.69,0,0,0,0,.13C311,238.67,311,238.28,311,238Z"/><path class="cls-43" d="M313.1,241.26v0Z"/><polygon class="cls-43" points="312.95 235.76 312.92 235.69 312.96 236.72 312.95 235.76"/><path class="cls-43" d="M310.7,235.17v0Z"/><path class="cls-43" d="M309.88,234.45l0,.06C309.89,234.32,309.89,234.35,309.88,234.45Z"/><path class="cls-43" d="M307.8,236.83c-.09.71-.2,1.42-.33,3.33l.06-1.18c-.06.58-.25,2.46-.29,4.57l.07-1c.16-1.75,0,2,0,2.72.1-.55.34-5,.36-3.93,0-.15,0,1.05-.07,1.94.05.33.22-3.08.28-3.51-.35,8.91.29-2.44.16,3.25a6.48,6.48,0,0,0,.28-1.69c-.12,2.22.06.19,0,2.7.19-5.19.15,2.33.37-4.22,0,1.84,0-.43.09,1.11a4.66,4.66,0,0,1-.06.87c0,1.36.15-2.79.11.19.08.49.06-1.76.16-3.52.08.78,0,1.65,0,4.36.08-3.12.11-1.62.19-3.23a14.15,14.15,0,0,1,0-1.94,25.87,25.87,0,0,0,.25-2.89c0,3.44-.1.1-.07,2.82-.1,1.6-.15,1.44-.24,3.95.09.19.21-.36.34-1.81,0,.47-.06,1.62,0,1.95.07,1.51.21-3.51.26-2l-.05,1.77c.09-2.36.17.52.28-.78,0-.9,0-1.5,0-2.08,0,4.46.15-2.32.21.82,0-2.82.11-4.41.16-4.7,0,.78,0,1.94,0,2.68-.07-1.66-.1,3.1-.18,4.4.07-1.46.16.06.22-2l0,2.21c.08.34.09-5,.17-2.89l0,1.62c.17-.22.39,2.69.51-1,0-1.36-.06-4.51-.08-5.54-.07,1.15-.11,3.52-.17,4.69v-2.56c0,1.75-.08,2.79,0,4.16s0-2.25-.1-.78c0-2.67,0-3,0-5.18l0,1.31,0-1.94c-.09,3.23-.11-1.24-.2.2l0,.47a12.36,12.36,0,0,1-.06,1.76c0-2.08,0-1.8-.07-2.71,0,.59,0,1.54-.06,2.35a13.1,13.1,0,0,1-.08,1.46c0-2.81-.08-1.52-.07-3.9,0,2.8-.11,1-.14,2.62,0,.57-.07.26,0-1.22,0-.09,0-.36,0-.49l0-.11v-.62c0-.06-.05,2-.06.59a9.49,9.49,0,0,1,.05-1c-.06-.48-.19,4.26-.2,1.7,0,1.33-.12,1.44-.15,4.43,0-1,0-3.42,0-3-.09,2.51-.05-.93-.13.69.1-2.64,0-.73.12-3.25,0-1-.15,2.34-.21,1.86s0-1.34,0-1.93c0,.88-.12,2.94-.09.85l0,1.78a19.75,19.75,0,0,1-.11-2.31l-.15,3.4c0-3.6-.17-.39-.34,2.7a13.67,13.67,0,0,1,0-1.52c0-.26.05-.78.08-1.23,0-.14,0-2.07-.15.76-.08.85,0-2,0-2.41-.24,4-.15-3-.42,3.13,0,0,.07,1.24.15,1,0,.74-.07,1.93-.11,2.06s0-2-.15-1l.16-3.86C308.16,233.21,307.66,242.37,307.8,236.83Z"/><path class="cls-43" d="M308.7,237V235l0,1.66C308.69,236.39,308.7,236.38,308.7,237Z"/><path class="cls-43" d="M308.66,236.66c0,.17,0,.47-.05.79,0,0,0,0,0-.37Z"/><path class="cls-43" d="M307.56,237.48c0-.16,0-.46-.05,0S307.52,238.07,307.56,237.48Z"/><polygon class="cls-43" points="307.45 238.64 307.44 239.25 307.47 238.8 307.45 238.64"/><path class="cls-43" d="M305.67,241.9l-.26,2.33a9.93,9.93,0,0,1,0-1.81,37.6,37.6,0,0,0-.44,4.09c.37-1.36.59,1,1.14-2.53l-.15,1.61c.36-3.2,0,3.51.52-2.81l-.21,3.25c0,.92.42-4.69.3-1.24l.07-1.34s0,.6,0,.62l0-.6c.12-1.32.14-1.15.15-.24s-.05.44-.08.72c0,1.06.13-1.15.17-1.13,0,.91-.08,1.49-.11,1.93.2-1.43.08,2,.41-2.86.05-.88.05-1.65.12-2.08,0-1.51-.16.4-.3,1.71h0c-.31,4.72,0-1.07-.19,1,.13-1.92.16-1.89.23-2.92.1-3.62-.29,2.74-.11-1.89l0-.14c0-.46-.06.42-.11.85,0,.6,0,.91,0,1.36s-.18,2.51-.24,3.39c.09-2.09-.1,1-.08,0,.1-1.94.14-1.77.21-2.8l-.12,1.31c-.06.13.07-2.1.11-3.15-.12,1.47,0,1.05-.19,3.11.09-2.39-.16-1.74-.38.12,0-.27.14-2.06.16-1.74a10.2,10.2,0,0,0-.2,2c-.16,1.3-.19.37-.16-1l-.09,1.49c-.23,2.5,0-1.85-.21-.42v0c-.06.31-.35,3.93-.36,3.18C305.52,243.53,305.54,243.68,305.67,241.9Z"/><path class="cls-43" d="M305.05,245.29l.19-2c0-.47-.25,2.17-.35,3.52.06-.44,0,.47.12-.71C305,245.75,305.09,245,305.05,245.29Z"/><path class="cls-43" d="M304.32,245.56c-.05.48-.12,1.25-.18,1.83.18-.24.43-1,.36.57,0,.62.27-2.49.39-3.21l-.14,2.09a7.9,7.9,0,0,0,.3-2.47c0-.3-.16,1.62-.14,1l.1-1.18-.1.4.14-1.46c.08-2.11-.42,4.42-.43,3l.25-3c-.06-.18-.18.83-.09-1,0,0-.13,1.49-.07.9,0,.16-.08,1.35-.17,2.23-.31,2.31.17-1.77.2-3-.27,2-.61,3.71-.45,1.32a23.49,23.49,0,0,1-.39,3.52c.07-1.05.17-1.77.26-2.66,0-.31.06-1.06,0-.62-.12,1.64-.34,3.85-.5,4.86C303.62,250.64,304.22,245.21,304.32,245.56Z"/><path class="cls-43" d="M304.06,248.07c0-.1.05-.37.08-.68a.22.22,0,0,1-.06.07Z"/></g></g><g id="clothes"><path class="cls-5" d="M223.81,320.25a168.13,168.13,0,0,0,24.91,10c15.6,4.86,55.83,17.43,93.28-.87a92.39,92.39,0,0,0,19.86-13.17,116.31,116.31,0,0,1,19.71,21.46c19.31,27.26,36.14,76.51,13.32,105.08-10.73,13.43-26.78,18-35.15,20.35-7.12,2-26.05,7.11-45.47-.87-8.89-3.65-7.56-5.81-15.15-9.2-24.1-10.78-40.9,9.4-75.83,4.15-7.86-1.18-19.18-2.76-27.63-11.59-13.85-14.48-10.28-38.29-8.32-51.42,2.67-17.85,9.4-30.72,15.31-42A185.3,185.3,0,0,1,223.81,320.25Z"/><path class="cls-44" d="M296.09,436.18a50.22,50.22,0,0,1,10.51-17.25c19.09-20.28,48.95-16.44,53.07-15.85a48.58,48.58,0,0,1-21-36.48"/><path class="cls-44" d="M255.86,345.64a293.21,293.21,0,0,1,8,32.25,294.18,294.18,0,0,1,5,56.12"/><path class="cls-44" d="M238.16,343.44a120.7,120.7,0,0,0-27.57,37.26,117.94,117.94,0,0,0-7.45,20.49"/></g><path class="cls-28" d="M234.75,278.73c1.63-6.84,7.11-14.65,12-13.84.79.13,3.15.74,5.33,5.2,4.1-2.14,5.94-1.9,6.85-1.21,1.24.94,3.24,4.58,4.06,5.16a3,3,0,0,0,.47.27,7.08,7.08,0,0,1,1.59.53,5.49,5.49,0,0,1,2.63,3.89c.26,2-1.05,2.37-.8,4.57.16,1.4.71,1.39.92,3.09a4.92,4.92,0,0,1-.57,3.66,4,4,0,0,1-2.41,1.49,3.81,3.81,0,0,1-3.7-1.4c-.9-1.31-.12-2.65-.93-3.15s-1.91.13-2.58.86a3.45,3.45,0,0,0-.78,2.5c.1,2.83,3.21,3.21,5,6.52,1.21,2.3,1,4.58.8,7.53a28.85,28.85,0,0,1-1.75,7.32c-1,3-1,2.43-1.93,4.94a36.56,36.56,0,0,0-1.82,10.09c-.27,3.35,0,4.43,0,8.48a93.16,93.16,0,0,1-.85,11.76l-17.88-3.35a143.08,143.08,0,0,0,2.79-23.95c.18-6.28.28-9.42-.3-12.37-1.77-8.93-6-12.25-6.52-21.73A22.26,22.26,0,0,1,234.75,278.73Z"/><path class="cls-34" d="M240.91,308q0,4.51-.12,9.09-.09,5.23-.21,10.43c-2.57-.94-5.25-2-8-3.17s-5.44-2.43-7.92-3.65A80.5,80.5,0,0,1,240.91,308Z"/><path class="cls-39" d="M250.19,292.23a5.75,5.75,0,0,1-1.37-4.24c.38-2.33,2.77-3.45,5.61-5s5.82-3.25,8.69-1.94a7.17,7.17,0,0,1,3.54,4.46c.34,1.1.9,3-.23,4.23a3.21,3.21,0,0,1-3.54.69,3.43,3.43,0,0,1-1.83-4"/><path class="cls-39" d="M243.9,289.25c-.71-1-1.87-3-1.37-5.15s2.63-3.25,6.86-5.49c6-3.14,9.3-3.55,10.41-3.66,2.59-.24,4.57-.41,5.83.92,2,2.12.44,6.18.35,6.4"/><path class="cls-39" d="M238.53,285.48a6.74,6.74,0,0,1-1.26-5.15c.51-2.06,2.27-3.1,5.6-4.92,12.18-6.64,13.79-6.44,15-5.94.95.39,2.74,1.44,4.11,4.68"/><path class="cls-39" d="M256.43,290.32a3.47,3.47,0,0,1,.4-2.27,4,4,0,0,1,4.23-1.66"/><path class="cls-34" d="M326.94,226.57c3,10.61,6.49,21.74,10.65,33.28a479.92,479.92,0,0,0,24.28,55.89,97.68,97.68,0,0,0-35.68-17.83,96.33,96.33,0,0,0-23.41-3.12q0-11.84-.08-23.68c2.77-1.22,17.32-7.92,22.89-24.15A39.91,39.91,0,0,0,326.94,226.57Z"/><path class="cls-45" d="M223.31,421.68a49.52,49.52,0,0,0,29.3,0"/><path class="cls-45" d="M223.93,441.05a49.55,49.55,0,0,0,29.31,0"/><path class="cls-10" d="M215.11,387.8c-2.11,4.13.52,8.09,2.95,22.38a48.8,48.8,0,0,0,1.44,6.22c.56,1.88,1.14,3.38,1.53,4.35.4,4.08.87,7.35,1.22,9.57a41.66,41.66,0,0,1,.61,11.2c-.07.86-.16,1.56-.22,2,0,.19,0,.34,0,.36a63,63,0,0,0-.32,15.95,18.47,18.47,0,0,0,.47,2.8c2.62,6.58,14.9,6.71,15.64,6.7,5.24,0,14-1.64,15.82-6.88a18.2,18.2,0,0,0,.26-2.8,113.71,113.71,0,0,0-.42-16.06c-.08-1.13-.17-2.1-.23-2.87.24-3.25.44-6.58.61-10q.27-5.61.41-11a33.11,33.11,0,0,0,1.34-4.26,32.35,32.35,0,0,0,.82-5.9c.46-8.89,5.52-16.83,2.79-22.33-3-6.11-14.56-6-22.06-6C229.92,381.3,218.39,381.38,215.11,387.8Z"/><path class="cls-45" d="M216.75,389c2.34.7,4.47,1.23,6.31,1.63,7.16,1.55,17.83,3.75,29.32.2a43.68,43.68,0,0,0,5.3-2"/><path class="cls-46" d="M221.13,421.29a50.14,50.14,0,0,0,33.64-.07c-.1,3.32-.24,6.68-.41,10.1q-.23,4.71-.54,9.29a49.16,49.16,0,0,1-30.87-.17,50.32,50.32,0,0,0-.37-8.21c-.21-1.62-.43-2.7-.81-5.47C221.46,424.46,221.25,422.56,221.13,421.29Z"/><path class="cls-47" d="M228.7,431c-1.93.56-2.25,2.92-1.4,4.41a3.2,3.2,0,0,0,2.27,1.69c2,.22,4.66-1.82,4.1-3.78C233.2,431.7,230.52,430.48,228.7,431Z"/><path class="cls-47" d="M234.64,429.24c-.51.84,2,2.22,1.83,5-.08,1.88-1.29,2.58-.86,3.35.68,1.2,4.64,1.38,6.26-.86,1.15-1.59.67-3.78-.11-5.08C240,428.59,235.26,428.21,234.64,429.24Z"/><path class="cls-47" d="M249.14,437.82a9.72,9.72,0,0,0,.49-4.05c-.11-1.19-.24-2.6-1.3-3.28a2.1,2.1,0,0,0-1.71-.28c-1.14.44-1.25,2.29-1.4,3.24a7.28,7.28,0,0,0,.86,4.64"/><path class="cls-47" d="M245.33,434.1a7.69,7.69,0,0,0,1.88.21,7.36,7.36,0,0,0,2.36-.43"/><ellipse class="cls-46" cx="237.64" cy="386.64" rx="17.95" ry="4.2"/><rect class="cls-10" x="226.17" y="372.62" width="3.03" height="15.13" rx="0.8"/><path class="cls-28" d="M284.83,433a37.82,37.82,0,0,0-16.23,1.53c-4.3,1.45-7.66,4-14.2,8.93-12.82,9.73-15.07,14.57-15.33,17.58-.09,1-.31,3.45,1.22,5a7,7,0,0,0,3.15,1.55c1.41.26,1.95-.13,2.94.36s1,1.22,1.81,2c2,1.78,5.68.76,6.08.64,2.43-.71,2.8-2,4.32-1.82s1.82,1.65,3.31,2.4c2.4,1.22,5.57-.54,7.34-1.52,16.15-8.94,11.42-5.74,15.59-8.52,5.4-3.61,9.87-6.67,13.13-8.91a10.7,10.7,0,0,0,2.22-4.48c1.35-6.12-3.63-11.09-4.09-11.54A38.32,38.32,0,0,0,284.83,433Z"/><path class="cls-48" d="M310,267.28a20.26,20.26,0,0,0,2.89,6.17c2.42,3.44,4.15,3.51,4.31,5.24.33,3.49-6.48,4.88-8,10.57a10,10,0,0,0,.33,5.72"/><path class="cls-39" d="M277.66,452.26c-2.84,1.54-5.89,3.36-9.05,5.49-5.48,3.7-8.74,4.35-9.24,7a5,5,0,0,0,1.61,4.84,5.27,5.27,0,0,0,6-.27"/><path class="cls-39" d="M278.31,444.5a68.4,68.4,0,0,0-13.9,5.49c-2.41,1.28-19,10-17.44,16.48a4.88,4.88,0,0,0,2.26,2.91c2.55,1.45,6.53.3,10.14-2.91"/><path class="cls-39" d="M274.75,437.4a199.19,199.19,0,0,0-19.7,10.66c-11.72,7.21-15.48,11.21-15.13,14.6a5,5,0,0,0,1.66,3.39c2,1.59,5,.57,5.39.42"/><path class="cls-48" d="M323.44,252.63a14.75,14.75,0,0,0-1.81,7.69c0,.85.27,3.75,3.16,8.62,3.61,6.07,6.8,5.87,6.93,8.81.18,4.06-5.6,5.24-8,10.56a10.76,10.76,0,0,0,.3,9.08"/><path class="cls-49" d="M293.14,188.4a41.23,41.23,0,0,0-20.9-.87c-30.9,7.21-39.69,51.88-40.22,54.79a85.06,85.06,0,0,0,2,38.27"/><path class="cls-49" d="M293.14,188.4a40.11,40.11,0,0,1,6.83-.16,46.43,46.43,0,0,1,12.38,2.69c11.79,4.6,19.64,19.69,20.55,21.48,7,13.86,3.6,19.29,8.28,35.24,4.24,14.44,9.48,18.24,18.25,33.88A193.08,193.08,0,0,1,379,333.1"/><path class="cls-49" d="M292.42,192.14c-12.78-2-21.75,1.33-25.55,3.05-21.86,9.87-26.71,35.6-27.42,39.33a57.16,57.16,0,0,0-1,10.79"/></g></g></svg>