<svg width="100" height="40" viewBox="0 0 100 40" fill="none" xmlns="http://www.w3.org/2000/svg">
<path opacity="0.5" fill-rule="evenodd" clip-rule="evenodd" d="M79.6477 39C90.1411 39 98.6477 30.4934 98.6477 20C98.6477 9.50659 90.1411 1 79.6477 1C69.1543 1 60.6477 9.50659 60.6477 20C60.6477 30.4934 69.1543 39 79.6477 39ZM79.6477 40C90.6934 40 99.6477 31.0457 99.6477 20C99.6477 8.9543 90.6934 0 79.6477 0C68.602 0 59.6477 8.9543 59.6477 20C59.6477 31.0457 68.602 40 79.6477 40ZM76.1122 14.8284L79.2942 11.6464C79.4894 11.4512 79.806 11.4512 80.0013 11.6464L83.1832 14.8284C83.3785 15.0237 83.3785 15.3403 83.1832 15.5355C82.988 15.7308 82.6714 15.7308 82.4761 15.5355L80.1477 13.2071V28H79.1477V13.2071L76.8193 15.5355C76.624 15.7308 76.3074 15.7308 76.1122 15.5355C75.9169 15.3403 75.9169 15.0237 76.1122 14.8284ZM-2.21282e-05 14.8182V25H0.929665V20.3217H6.70665V25H7.63634V14.8182H6.70665V19.4865H0.929665V14.8182H-2.21282e-05ZM11.022 24.9055C11.4032 25.0845 11.8241 25.174 12.2848 25.174C12.709 25.174 13.0786 25.1061 13.3934 24.9702C13.7083 24.8343 13.9701 24.6603 14.179 24.4482C14.3878 24.236 14.5452 24.0173 14.6513 23.7919H14.7059V25H15.5909V19.8146C15.5909 19.3042 15.5064 18.8833 15.3373 18.5518C15.1683 18.2171 14.9479 17.9569 14.6761 17.7713C14.4043 17.5824 14.1094 17.4498 13.7912 17.3736C13.4763 17.2973 13.173 17.2592 12.8814 17.2592C12.4936 17.2592 12.1108 17.3156 11.7329 17.4283C11.3551 17.5376 11.0137 17.7183 10.7088 17.9702C10.4039 18.2188 10.1652 18.5518 9.99288 18.9695L10.8331 19.2727C10.9723 18.9446 11.2142 18.6596 11.5589 18.4176C11.9069 18.1757 12.356 18.0547 12.9062 18.0547C13.4862 18.0547 13.9304 18.2055 14.2386 18.5071C14.5502 18.8054 14.7059 19.2147 14.7059 19.7351V19.9141C14.7059 20.1063 14.6281 20.2455 14.4723 20.3317C14.3165 20.4179 14.0895 20.4808 13.7912 20.5206C13.4962 20.5604 13.1349 20.6068 12.7074 20.6598C12.2765 20.7128 11.8821 20.7874 11.5241 20.8835C11.1662 20.9796 10.8563 21.1106 10.5944 21.2763C10.3326 21.442 10.1304 21.6541 9.9879 21.9126C9.84538 22.1712 9.77413 22.4893 9.77413 22.8672C9.77413 23.3577 9.88682 23.7753 10.1122 24.12C10.3376 24.4614 10.6408 24.7232 11.022 24.9055ZM13.6271 24.0504C13.2824 24.2592 12.8747 24.3636 12.4041 24.3636C11.9036 24.3636 11.4877 24.2377 11.1562 23.9858C10.8248 23.7306 10.6591 23.371 10.6591 22.907C10.6591 22.5987 10.7403 22.3468 10.9027 22.1513C11.0651 21.9524 11.2987 21.7966 11.6037 21.6839C11.9086 21.5713 12.2765 21.4884 12.7074 21.4354C12.8665 21.4155 13.0454 21.3923 13.2443 21.3658C13.4432 21.3393 13.642 21.3078 13.8409 21.2713C14.0431 21.2315 14.2204 21.1868 14.3728 21.1371C14.5286 21.0874 14.6397 21.031 14.7059 20.968V22.0717C14.7059 22.4893 14.6115 22.8722 14.4226 23.2202C14.237 23.5649 13.9718 23.8416 13.6271 24.0504ZM17.9449 17.3636V25H21.3902C21.8841 25 22.3116 24.9105 22.6729 24.7315C23.0342 24.5526 23.3143 24.3073 23.5131 23.9957C23.712 23.6842 23.8114 23.3295 23.8114 22.9318C23.8114 22.554 23.7319 22.2292 23.5728 21.9574C23.4137 21.6856 23.2065 21.4669 22.9513 21.3011C22.6994 21.1354 22.426 21.0277 22.131 20.978C22.5718 20.8653 22.9232 20.6731 23.185 20.4013C23.4468 20.1295 23.5777 19.7666 23.5777 19.3125C23.5777 18.7159 23.3424 18.242 22.8718 17.8906C22.4045 17.5393 21.7648 17.3636 20.9527 17.3636H17.9449ZM21.3902 24.1797H18.7901V21.4453H21.4897C21.9206 21.4453 22.2636 21.5746 22.5188 21.8331C22.7773 22.0883 22.9066 22.4297 22.9066 22.8572C22.9066 23.2583 22.7707 23.5798 22.4989 23.8217C22.2271 24.0604 21.8576 24.1797 21.3902 24.1797ZM21.0074 20.6598H18.7901V18.1839H20.9527C21.4996 18.1839 21.9255 18.2884 22.2304 18.4972C22.5354 18.7027 22.6878 18.9927 22.6878 19.3672C22.6911 19.629 22.6232 19.8577 22.484 20.0533C22.3481 20.2455 22.1542 20.3946 21.9023 20.5007C21.6504 20.6068 21.3521 20.6598 21.0074 20.6598ZM26.9895 24.6619C27.5099 24.9934 28.1263 25.1591 28.8389 25.1591C29.3493 25.1591 29.8001 25.0779 30.1912 24.9155C30.5856 24.7498 30.9137 24.531 31.1756 24.2592C31.4407 23.9875 31.6313 23.6908 31.7473 23.3693L30.9071 23.0959C30.811 23.3246 30.6685 23.535 30.4796 23.7273C30.294 23.9162 30.0636 24.067 29.7885 24.1797C29.5167 24.2924 29.2002 24.3487 28.8389 24.3487C28.3086 24.3487 27.8496 24.2244 27.4618 23.9759C27.074 23.7273 26.7741 23.3776 26.5619 22.9268C26.3658 22.5003 26.2618 22.0064 26.2499 21.4453H31.9362V21.0078C31.9362 20.3681 31.8467 19.8146 31.6678 19.3473C31.4888 18.8767 31.2452 18.4872 30.9369 18.179C30.632 17.8674 30.2873 17.6371 29.9029 17.4879C29.5184 17.3355 29.119 17.2592 28.7047 17.2592C28.0451 17.2592 27.4635 17.4299 26.9597 17.7713C26.4592 18.1094 26.0664 18.5784 25.7814 19.1783C25.4997 19.7749 25.3588 20.4576 25.3588 21.2266C25.3588 21.9988 25.4997 22.6816 25.7814 23.2749C26.0664 23.8648 26.4691 24.3272 26.9895 24.6619ZM26.2557 20.6648C26.2824 20.239 26.3845 19.843 26.5619 19.4766C26.7708 19.0523 27.0591 18.7109 27.427 18.4524C27.7949 18.1939 28.2208 18.0646 28.7047 18.0646C29.1621 18.0646 29.5648 18.179 29.9128 18.4077C30.2641 18.6364 30.5376 18.9479 30.7331 19.3423C30.932 19.7334 31.0314 20.1742 31.0314 20.6648H26.2557ZM33.8863 17.3636V27.8636H34.7713V23.5831H34.8508C34.9536 23.8151 35.0994 24.0537 35.2883 24.299C35.4806 24.541 35.7308 24.7448 36.039 24.9105C36.3506 25.0762 36.7367 25.1591 37.1974 25.1591C37.8205 25.1591 38.3674 24.9934 38.838 24.6619C39.312 24.3305 39.6799 23.8681 39.9417 23.2749C40.2069 22.6816 40.3395 21.9905 40.3395 21.2017C40.3395 20.4162 40.2069 19.7285 39.9417 19.1385C39.6799 18.5452 39.312 18.0845 38.838 17.7564C38.3674 17.425 37.8172 17.2592 37.1875 17.2592C36.7201 17.2592 36.3324 17.3421 36.0241 17.5078C35.7192 17.6735 35.4739 17.8774 35.2883 18.1193C35.1027 18.358 34.9569 18.5916 34.8508 18.8203H34.7464V17.3636H33.8863ZM35.0348 22.8274C34.8525 22.3501 34.7613 21.8033 34.7613 21.1868C34.7613 20.5769 34.8508 20.0384 35.0298 19.571C35.2121 19.1004 35.4772 18.7325 35.8253 18.4673C36.1733 18.1989 36.5959 18.0646 37.093 18.0646C37.6034 18.0646 38.0343 18.2038 38.3856 18.4822C38.737 18.7573 39.0021 19.1302 39.1811 19.6009C39.3634 20.0715 39.4545 20.6001 39.4545 21.1868C39.4545 21.7801 39.3617 22.3153 39.1761 22.7926C38.9938 23.2699 38.727 23.6494 38.3757 23.9311C38.0277 24.2095 37.6001 24.3487 37.093 24.3487C36.5992 24.3487 36.1782 24.2145 35.8302 23.946C35.4855 23.6742 35.2204 23.3014 35.0348 22.8274ZM44.482 20.62L42.5133 17.3636H41.4891L43.9153 21.1818L41.4891 25H42.5133L44.482 21.848L46.4508 25H47.4799L45.0239 21.1818L47.4799 17.3636H46.4508L44.482 20.62Z" fill="#433E3E"/>
</svg>
