<svg id="Layer_1" data-name="Layer 1" xmlns="http://www.w3.org/2000/svg" viewBox="0 0 566.93 566.93"><defs><style>.cls-1{opacity:0.5;}.cls-2{fill:#8aaf9d;}.cls-3{fill:#000306;}</style></defs><g class="cls-1"><path class="cls-2" d="M261.19,364.69a37.73,37.73,0,0,1,40.89-5.49,24.68,24.68,0,0,1-7,7.29C281.11,375.86,262.78,365.61,261.19,364.69Z"/><path class="cls-2" d="M317.66,400.28a47,47,0,0,0-4.38-27.23,43.69,43.69,0,0,0-11.16-14,27.42,27.42,0,0,0-2.45,10.18C298.92,386.93,316.13,399.22,317.66,400.28Z"/><path class="cls-2" d="M278.73,337.68a37.68,37.68,0,0,1,40.89-5.49,24.81,24.81,0,0,1-7,7.29C298.66,348.84,280.32,338.6,278.73,337.68Z"/><path class="cls-2" d="M335.2,373.27A47,47,0,0,0,330.82,346a43.82,43.82,0,0,0-11.15-14,27.27,27.27,0,0,0-2.46,10.18C316.46,359.92,333.68,372.21,335.2,373.27Z"/><path class="cls-2" d="M298.09,308A37.68,37.68,0,0,1,339,302.5a24.81,24.81,0,0,1-7,7.29C318,319.15,299.68,308.91,298.09,308Z"/><path class="cls-2" d="M354.69,343.55a47,47,0,0,0-4.37-27.23,43.69,43.69,0,0,0-11.16-14,27.47,27.47,0,0,0-2.46,10.18C336,330.2,353.17,342.49,354.69,343.55Z"/><path class="cls-2" d="M276.65,417.67a42.6,42.6,0,0,0,13.71-22.91,45.34,45.34,0,0,0,.27-18.13,23.88,23.88,0,0,0-8.25,5.66C270.7,394.65,276.15,415.82,276.65,417.67Z"/><path class="cls-2" d="M290.63,376.63c3.92-6.09,10-15.5,17.68-27,8.74-13.12,12.14-17.93,17.8-26.5s13.66-21.06,23.07-37"/><path class="cls-2" d="M297.51,178.05a44.7,44.7,0,0,1-27.86,40.11,29.24,29.24,0,0,1-.77-12C271.84,186.55,295.42,178.71,297.51,178.05Z"/><path class="cls-2" d="M221.32,199a55.71,55.71,0,0,0,27.28,17.91,51.63,51.63,0,0,0,21.17,1.46,32.52,32.52,0,0,0-6.93-10.28C248,193.25,223.46,198.48,221.32,199Z"/><path class="cls-2" d="M307.1,214.94a44.62,44.62,0,0,1-27.86,40.11,29.2,29.2,0,0,1-.76-12C281.43,223.44,305,215.6,307.1,214.94Z"/><path class="cls-2" d="M230.92,235.86a55.68,55.68,0,0,0,27.27,17.92,51.77,51.77,0,0,0,21.17,1.45A32.46,32.46,0,0,0,272.43,245C257.54,230.15,233.06,235.37,230.92,235.86Z"/><path class="cls-2" d="M317.58,255.56a44.62,44.62,0,0,1-27.86,40.11,29,29,0,0,1-.76-12C291.91,264.06,315.49,256.22,317.58,255.56Z"/><path class="cls-2" d="M241.31,276.62a55.66,55.66,0,0,0,27.28,17.91A51.81,51.81,0,0,0,289.76,296a32.57,32.57,0,0,0-6.93-10.28C267.94,270.9,243.45,276.13,241.31,276.62Z"/><path class="cls-2" d="M238.87,149.26a50.48,50.48,0,0,0,9.07,30.27,53.74,53.74,0,0,0,15.63,14.71,28.44,28.44,0,0,0,1.64-11.73C263.73,162.45,240.89,150.3,238.87,149.26Z"/><path class="cls-2" d="M263.57,194.24c2.18,8.29,5.53,21.14,9.45,37,4.49,18.12,6,24.93,9,36.71s7.49,28.75,13.93,49.73"/></g><path class="cls-3" d="M212.38,221.79a48.24,48.24,0,0,0-35.08,14.35q-14.66,14.36-14.65,34.34c0,10.74,2.74,20,8.11,27.82l-7.3-1.71a24.24,24.24,0,0,0-1.41-10.54,24.54,24.54,0,0,0-10.58-12.38c-.21,1.15-2.39,14.23,6.15,20.52a14.7,14.7,0,0,0,3.31,1.81l-19.25-4.5a23.81,23.81,0,0,0-12-23c-.2,1.15-2.39,14.23,6.15,20.52a15,15,0,0,0,3.79,2l-17.75-4.15a23.84,23.84,0,0,0-12-23.05c-.21,1.15-2.39,14.23,6.14,20.52a15.25,15.25,0,0,0,4.09,2.12l-7-1.65c2.23.52,4.83,1.14,7.7,1.84.34.1.67.21,1,.3a17.19,17.19,0,0,0-6.4.71c-10.7,3.33-14.34,16.19-14.64,17.32A29.65,29.65,0,0,0,116,296.57a27.49,27.49,0,0,0,6-9.62h-.11v0l7,1.72c5.22,1.29,8.65,2.18,11.71,3a17.53,17.53,0,0,0-5.39.74c-10.69,3.33-14.33,16.19-14.63,17.32a29.73,29.73,0,0,0,15.25-8.41,27.53,27.53,0,0,0,5.86-9.37c2.18.56,4.25,1.08,6.74,1.69,3.78.92,8.65,2.06,14.44,3.29a17.53,17.53,0,0,0-5.84.73c-10.69,3.33-14.33,16.19-14.64,17.32a29.67,29.67,0,0,0,15.26-8.4,27.72,27.72,0,0,0,5.91-9.5c2.3.49,4.75,1,7.33,1.51a47.7,47.7,0,0,0,7.83,8.77Q193.3,320,211.65,320A48.83,48.83,0,0,0,247,305.68,46.55,46.55,0,0,0,261.63,271a49.53,49.53,0,0,0-49.25-49.24ZM237,296.3a34.07,34.07,0,0,1-25.14,10.3q-13.74,0-24.22-10.12t-10.55-25.82a34.15,34.15,0,0,1,10.18-25.14,33.74,33.74,0,0,1,25-10.3,33.38,33.38,0,0,1,24.89,10.3q10.13,10.24,10.12,25.39A34.85,34.85,0,0,1,237,296.3Z"/><path class="cls-3" d="M322,226.39q-8.28-2.82-22.57-2.82H279.59v94.68h19.62q14.42,0,22.27-2.63a44.58,44.58,0,0,0,16.06-9.39q15.27-13.49,15.27-35.32t-14.65-35.14A42.41,42.41,0,0,0,322,226.39Zm5.83,69.6a32.46,32.46,0,0,1-11.54,6.81,53.66,53.66,0,0,1-16,2h-6.44V237h6.44q18.27,0,27.66,8.64,10.42,9.71,10.42,25.27T327.86,296Z"/><path class="cls-3" d="M355.26,318.25h15.4l10.54-23h40.54l9.94,23h15.63L402.12,217.62Zm31.89-36.43,14.72-32.19,14.05,32.19Z"/><path class="cls-3" d="M81.7,284.31a26.93,26.93,0,0,0,16.54,3.26,28.71,28.71,0,0,0,10.84-3.7,15.13,15.13,0,0,0-5.13-3.7C94.12,275.87,82.69,283.62,81.7,284.31Z"/><path class="cls-3" d="M113.08,284.81l-4-.94Z"/><path class="cls-3" d="M464.83,212.77a15.34,15.34,0,0,0-4.12,2l5.53-4.72c-1.75,1.49-3.83,3.26-6.1,5.16-.28.21-.55.4-.83.64a17.51,17.51,0,0,0,3.23-5.59c3.66-10.58-4.54-21.14-5.27-22A29.68,29.68,0,0,0,455,205.5,27.58,27.58,0,0,0,459.21,216l.07-.09,0,0-5.54,4.63c-4.14,3.43-6.89,5.67-9.33,7.67a17.51,17.51,0,0,0,2.6-4.77c3.66-10.59-4.54-21.15-5.27-22.06a29.68,29.68,0,0,0-2.27,17.26A27.15,27.15,0,0,0,443.57,229c-1.75,1.43-3.4,2.79-5.36,4.43-3,2.5-6.84,5.8-11.25,9.72a17.62,17.62,0,0,0,2.91-5.18c3.66-10.59-4.53-21.14-5.27-22.06a29.74,29.74,0,0,0-2.27,17.27,27.58,27.58,0,0,0,4.14,10.4c-2.77,2.46-5.7,5.1-8.92,8.08l9.3-7.93a23.79,23.79,0,0,0,25.57,3.94c-.8-.85-10-10.36-20.17-7.22a15.28,15.28,0,0,0-3.42,1.59l15-12.83a23.77,23.77,0,0,0,25.63,4c-.8-.85-10-10.36-20.16-7.22a15.19,15.19,0,0,0-3.87,1.86L459.34,216A23.79,23.79,0,0,0,485,220C484.2,219.14,475,209.63,464.83,212.77Z"/><path class="cls-3" d="M485.23,185.13a27,27,0,0,0-12.44,11.39,28.52,28.52,0,0,0-3.44,10.92,15.19,15.19,0,0,0,6-1.93C484.66,200.14,485.2,186.34,485.23,185.13Z"/><path class="cls-3" d="M466.24,210.08l3.11-2.64Z"/><path class="cls-3" d="M405,398.78a163.8,163.8,0,0,1-56.4,36.85,168.26,168.26,0,0,1-32.77,9.12,168.73,168.73,0,0,1-67.73-2.15,168,168,0,0,1-32.13-11.18A165.48,165.48,0,0,1,186.8,414c-2.21-1.76-4.48-3.45-6.64-5.27s-4.29-3.68-6.37-5.58-4.08-3.9-6.08-5.88L162,391.06a181.35,181.35,0,0,0,55.14,37.7,175.77,175.77,0,0,0,31.73,10.39,175.81,175.81,0,0,0,66.35,2.12,175.25,175.25,0,0,0,32.32-8.36A180.65,180.65,0,0,0,405,398.78Z"/><path class="cls-3" d="M405,168.14A180.81,180.81,0,0,0,347.52,134a175.25,175.25,0,0,0-32.32-8.36,175.26,175.26,0,0,0-66.35,2.12,175.77,175.77,0,0,0-31.73,10.39A181.18,181.18,0,0,0,162,175.87l5.73-6.21c2-2,4-3.91,6.08-5.88s4.25-3.72,6.37-5.58,4.43-3.51,6.64-5.28a165.43,165.43,0,0,1,29.12-17.41,168,168,0,0,1,32.13-11.18,168.73,168.73,0,0,1,67.73-2.15,167.57,167.57,0,0,1,32.77,9.12A164,164,0,0,1,405,168.14Z"/><path class="cls-3" d="M364.57,338.38a7.48,7.48,0,0,1-5-.11,6.67,6.67,0,0,1-2.13-1.33A5.87,5.87,0,0,1,356,335a5.73,5.73,0,0,1-.52-2.41,5.79,5.79,0,0,1,2-4.38,7.09,7.09,0,0,1,4.79-1.8,7.46,7.46,0,0,1,2.32.36,7.16,7.16,0,0,1,2,1v2.76h-.49V328a7,7,0,0,0-1.76-.85,6.5,6.5,0,0,0-2-.32,6.86,6.86,0,0,0-2.47.44,6.16,6.16,0,0,0-2,1.24,5.68,5.68,0,0,0-1.36,1.84,5.3,5.3,0,0,0,0,4.45,5.29,5.29,0,0,0,1.36,1.79,6.16,6.16,0,0,0,2,1.24,6.65,6.65,0,0,0,2.47.44,6.88,6.88,0,0,0,2.13-.33,6.81,6.81,0,0,0,1.81-.9l.35.31A7.43,7.43,0,0,1,364.57,338.38Z"/><path class="cls-3" d="M379.32,337.87a6.75,6.75,0,0,1-3.51.91,4.11,4.11,0,0,1-2.91-1,3.56,3.56,0,0,1-1.14-2.56v-8.12H369v-.44h3.24v8.78a3,3,0,0,0,.93,2,3.46,3.46,0,0,0,2.39.9,7.25,7.25,0,0,0,2.25-.34,6.07,6.07,0,0,0,1.87-1,4.54,4.54,0,0,0,1.29-1.47,3.75,3.75,0,0,0,.49-1.89v-6.53h-2.76v-.44H382v11.44h2.69v.45h-2.9l-.1-1.68-.08-1.43A5.3,5.3,0,0,1,379.32,337.87Z"/><path class="cls-3" d="M387.09,338.56v-.45h2.52V315.23h-2.55v-.45h3v23.33h3.07v.45Z"/><path class="cls-3" d="M398.72,338.56V327.11h-3.11v-.44h3.11v-7.74h.49v7.74h4.43v.44h-4.43v11h3v.45Z"/><path class="cls-3" d="M416.41,337.87a6.8,6.8,0,0,1-3.51.91,4.12,4.12,0,0,1-2.92-1,3.55,3.55,0,0,1-1.13-2.56v-8.12h-2.76v-.44h3.25v8.78a2.92,2.92,0,0,0,.92,2,3.48,3.48,0,0,0,2.39.9,7.32,7.32,0,0,0,2.26-.34,5.91,5.91,0,0,0,1.86-1,4.69,4.69,0,0,0,1.3-1.47,3.85,3.85,0,0,0,.48-1.89v-6.53H415.8v-.44H419v11.44h2.69v.45h-2.89l-.11-1.68-.07-1.43A5.35,5.35,0,0,1,416.41,337.87Z"/><path class="cls-3" d="M424.18,338.56v-.45h2.75v-11h-2.61v-.44h2.89l.07,1.68c0,.27,0,.51,0,.71s0,.44,0,.72a5.16,5.16,0,0,1,1-1.41,4.93,4.93,0,0,1,1.39-1,6.54,6.54,0,0,1,1.59-.64,8.18,8.18,0,0,1,1.84-.25v.44a7.2,7.2,0,0,0-2.19.4,6,6,0,0,0-1.83,1,4.48,4.48,0,0,0-1.22,1.45,3.83,3.83,0,0,0-.46,1.84v6.53h2.83v.45Z"/><path class="cls-3" d="M444.89,338.3a7.53,7.53,0,0,1-5.21,0,7,7,0,0,1-2.13-1.3,6,6,0,0,1-1.46-2,5.59,5.59,0,0,1-.53-2.41,5.88,5.88,0,0,1,2-4.38,7.09,7.09,0,0,1,4.79-1.8,6.68,6.68,0,0,1,2,.3,5.74,5.74,0,0,1,1.73.87,6.5,6.5,0,0,1,1.26,1.2,6.71,6.71,0,0,1,.91,1.56q-3,1.11-5.89,2.17l-5.88,2.17a5.67,5.67,0,0,0,2.27,2.61,6.52,6.52,0,0,0,3.6,1,6.71,6.71,0,0,0,2.37-.41,6.16,6.16,0,0,0,2-1.14l.31.35A7,7,0,0,1,444.89,338.3Zm-5.44-10.79a6.33,6.33,0,0,0-2.14,1.69,5.66,5.66,0,0,0-1.17,2.38,5,5,0,0,0,.15,2.7L442,332.2l5.66-2.08a5.8,5.8,0,0,0-5.27-3.26A6.49,6.49,0,0,0,439.45,327.51Z"/></svg>