<svg id="Layer_1" data-name="Layer 1" xmlns="http://www.w3.org/2000/svg" viewBox="0 0 566.93 566.93"><defs><style>.cls-1{opacity:0.3;}.cls-2{fill:#fff;}</style></defs><g class="cls-1"><path class="cls-2" d="M263.47,346.52A37.68,37.68,0,0,1,304.36,341a24.56,24.56,0,0,1-7,7.29C283.4,357.68,265.07,347.44,263.47,346.52Z"/><path class="cls-2" d="M320,382.11a47.13,47.13,0,0,0-4.38-27.23,43.69,43.69,0,0,0-11.16-14A27.42,27.42,0,0,0,302,351C301.2,368.76,318.42,381.05,320,382.11Z"/><path class="cls-2" d="M281,319.5a37.72,37.72,0,0,1,40.9-5.48,24.81,24.81,0,0,1-7,7.29C300.94,330.67,282.61,320.43,281,319.5Z"/><path class="cls-2" d="M337.49,355.09a47,47,0,0,0-4.38-27.22,43.69,43.69,0,0,0-11.16-14A27.58,27.58,0,0,0,319.49,324C318.74,341.74,336,354,337.49,355.09Z"/><path class="cls-2" d="M300.37,289.81a37.72,37.72,0,0,1,40.9-5.48,24.81,24.81,0,0,1-7,7.29C320.3,301,302,290.74,300.37,289.81Z"/><path class="cls-2" d="M357,325.38a47,47,0,0,0-4.38-27.23,43.82,43.82,0,0,0-11.15-14A27.23,27.23,0,0,0,339,294.3C338.24,312,355.46,324.32,357,325.38Z"/><path class="cls-2" d="M278.94,399.5a42.77,42.77,0,0,0,13.71-22.91,45.58,45.58,0,0,0,.27-18.14,24.17,24.17,0,0,0-8.26,5.66C273,376.48,278.43,397.65,278.94,399.5Z"/><path class="cls-2" d="M292.92,358.45c3.92-6.08,10-15.5,17.68-27,8.73-13.13,12.14-17.93,17.79-26.51s13.67-21,23.08-37"/><path class="cls-2" d="M299.79,159.88A44.64,44.64,0,0,1,271.94,200a29.19,29.19,0,0,1-.77-11.95C274.13,168.37,297.71,160.54,299.79,159.88Z"/><path class="cls-2" d="M223.61,180.8a55.6,55.6,0,0,0,27.28,17.91,52,52,0,0,0,21.17,1.46,32.41,32.41,0,0,0-6.94-10.28C250.24,175.08,225.75,180.31,223.61,180.8Z"/><path class="cls-2" d="M309.38,196.77a44.64,44.64,0,0,1-27.85,40.1,29.19,29.19,0,0,1-.77-12C283.72,205.26,307.3,197.43,309.38,196.77Z"/><path class="cls-2" d="M233.2,217.69a55.66,55.66,0,0,0,27.28,17.91,51.81,51.81,0,0,0,21.17,1.46,32.57,32.57,0,0,0-6.93-10.28C259.83,212,235.34,217.2,233.2,217.69Z"/><path class="cls-2" d="M319.86,237.39A44.64,44.64,0,0,1,292,277.49a29.19,29.19,0,0,1-.77-11.95C294.2,245.88,317.78,238.05,319.86,237.39Z"/><path class="cls-2" d="M243.6,258.45a55.6,55.6,0,0,0,27.28,17.91A51.94,51.94,0,0,0,292,277.82a32.41,32.41,0,0,0-6.93-10.28C270.23,252.73,245.74,258,243.6,258.45Z"/><path class="cls-2" d="M241.16,131.08a50.48,50.48,0,0,0,9.07,30.27,53.65,53.65,0,0,0,15.62,14.72,28.32,28.32,0,0,0,1.65-11.73C266,144.27,243.18,132.12,241.16,131.08Z"/><path class="cls-2" d="M265.85,176.07c2.19,8.28,5.53,21.14,9.46,37,4.49,18.11,6,24.92,8.95,36.71s7.48,28.75,13.92,49.72"/></g><path class="cls-2" d="M214.67,203.62A48.22,48.22,0,0,0,179.59,218q-14.65,14.34-14.66,34.34c0,10.74,2.74,20,8.11,27.82l-7.3-1.71a24.19,24.19,0,0,0-1.4-10.54,24.54,24.54,0,0,0-10.58-12.38c-.21,1.15-2.39,14.23,6.14,20.52a15.89,15.89,0,0,0,3.32,1.81L144,273.32a24.26,24.26,0,0,0-1.39-10.62A24.54,24.54,0,0,0,132,250.32c-.21,1.15-2.39,14.23,6.15,20.52a15.31,15.31,0,0,0,3.79,2l-17.75-4.16a23.8,23.8,0,0,0-12-23c-.2,1.15-2.39,14.23,6.15,20.52a15.34,15.34,0,0,0,4.08,2.11l-7-1.65,7.71,1.84c.34.1.67.22,1,.3a17.43,17.43,0,0,0-6.41.72c-10.69,3.33-14.33,16.18-14.63,17.32a29.8,29.8,0,0,0,15.25-8.41,27.73,27.73,0,0,0,6-9.62h-.12v0l7,1.71c5.22,1.3,8.66,2.18,11.72,3a16.85,16.85,0,0,0-5.39.74c-10.7,3.33-14.34,16.18-14.64,17.32a29.77,29.77,0,0,0,15.25-8.41,27.3,27.3,0,0,0,5.86-9.38c2.19.56,4.26,1.09,6.75,1.69,3.78.92,8.65,2.06,14.44,3.3a17.53,17.53,0,0,0-5.84.73c-10.7,3.33-14.34,16.19-14.64,17.32a29.69,29.69,0,0,0,15.25-8.41,27.45,27.45,0,0,0,5.91-9.49q3.47.74,7.34,1.5A47.35,47.35,0,0,0,181,289.1q14.59,12.69,32.93,12.69a48.87,48.87,0,0,0,35.39-14.28,46.57,46.57,0,0,0,14.59-34.65,49.51,49.51,0,0,0-49.24-49.24Zm24.59,74.51a34.11,34.11,0,0,1-25.14,10.3q-13.74,0-24.23-10.12t-10.54-25.82a34.15,34.15,0,0,1,10.18-25.14,35.31,35.31,0,0,1,49.85,0q10.13,10.25,10.12,25.39A34.89,34.89,0,0,1,239.26,278.13Z"/><path class="cls-2" d="M324.32,208.21q-8.28-2.82-22.57-2.82H281.88v94.69H301.5q14.42,0,22.26-2.64a44.5,44.5,0,0,0,16.07-9.38q15.27-13.49,15.27-35.32T340.44,217.6A42.2,42.2,0,0,0,324.32,208.21Zm5.82,69.61a32.42,32.42,0,0,1-11.53,6.81,54,54,0,0,1-16,2h-6.44V218.82h6.44q18.27,0,27.65,8.65,10.42,9.69,10.43,25.27T330.14,277.82Z"/><path class="cls-2" d="M357.55,300.08h15.39l10.55-23H424l9.93,23H449.6L404.4,199.45Zm31.89-36.43,14.72-32.19,14,32.19Z"/><path class="cls-2" d="M84,266.14a26.89,26.89,0,0,0,16.54,3.26,28.59,28.59,0,0,0,10.83-3.7,15,15,0,0,0-5.12-3.7C96.4,257.69,85,265.44,84,266.14Z"/><path class="cls-2" d="M115.36,266.63l-4-.93Z"/><path class="cls-2" d="M467.12,194.59a15.12,15.12,0,0,0-4.12,2l5.53-4.72-6.1,5.16c-.28.2-.55.39-.83.63a17.13,17.13,0,0,0,3.22-5.58c3.66-10.59-4.53-21.14-5.26-22.05a29.66,29.66,0,0,0-2.28,17.26,27.81,27.81,0,0,0,4.21,10.51l.08-.1,0,0c-1.73,1.45-3.55,3-5.53,4.62-4.14,3.44-6.89,5.68-9.33,7.68a17.35,17.35,0,0,0,2.59-4.78c3.66-10.59-4.53-21.14-5.26-22a29.66,29.66,0,0,0-2.28,17.26,27.44,27.44,0,0,0,4.08,10.28c-1.75,1.43-3.4,2.78-5.37,4.43-3,2.49-6.83,5.8-11.25,9.71a17.33,17.33,0,0,0,2.92-5.18c3.66-10.58-4.54-21.14-5.27-22.05A29.66,29.66,0,0,0,424.61,215a27.59,27.59,0,0,0,4.15,10.4c-2.77,2.47-5.71,5.11-8.92,8.09l9.3-7.94a23.74,23.74,0,0,0,25.57,3.94c-.8-.84-10-10.36-20.17-7.21a14.88,14.88,0,0,0-3.42,1.59l15-12.83a24.21,24.21,0,0,0,9.38,5.17A24.51,24.51,0,0,0,471.79,215c-.8-.84-10-10.36-20.17-7.22a15,15,0,0,0-3.86,1.87l13.87-11.83a23.82,23.82,0,0,0,25.66,4C486.49,201,477.25,191.45,467.12,194.59Z"/><path class="cls-2" d="M487.52,167a27,27,0,0,0-12.44,11.38,28.8,28.8,0,0,0-3.45,10.92,15.14,15.14,0,0,0,6-1.93C487,182,487.49,168.17,487.52,167Z"/><path class="cls-2" d="M468.53,191.91c1.15-1,2.2-1.87,3.1-2.65Z"/><path class="cls-2" d="M407.24,380.61a163.72,163.72,0,0,1-56.41,36.85,167.88,167.88,0,0,1-32.77,9.12,169.17,169.17,0,0,1-67.72-2.15,168.43,168.43,0,0,1-32.13-11.18,165.12,165.12,0,0,1-29.12-17.42c-2.22-1.76-4.48-3.45-6.65-5.27s-4.28-3.68-6.36-5.59-4.08-3.89-6.08-5.88l-5.73-6.21a181,181,0,0,0,55.14,37.71A175.92,175.92,0,0,0,251.13,421a175.59,175.59,0,0,0,66.36,2.11,176.44,176.44,0,0,0,32.32-8.35A181.13,181.13,0,0,0,407.24,380.61Z"/><path class="cls-2" d="M407.24,150a181.13,181.13,0,0,0-57.43-34.13,176.44,176.44,0,0,0-32.32-8.35,175.59,175.59,0,0,0-66.36,2.11A176.71,176.71,0,0,0,219.41,120a181,181,0,0,0-55.14,37.71l5.73-6.21c2-2,4.05-3.92,6.08-5.88s4.24-3.72,6.36-5.59,4.43-3.51,6.65-5.27a165.07,165.07,0,0,1,29.12-17.41,167.74,167.74,0,0,1,32.13-11.18A168.69,168.69,0,0,1,318.06,104a167.85,167.85,0,0,1,32.77,9.11A163.72,163.72,0,0,1,407.24,150Z"/><path class="cls-2" d="M366.54,320.78a7.48,7.48,0,0,1-5-.11,6.67,6.67,0,0,1-2.13-1.33A5.74,5.74,0,0,1,358,317.4a5.56,5.56,0,0,1-.53-2.41,5.68,5.68,0,0,1,.53-2.4,5.57,5.57,0,0,1,1.46-2,7.31,7.31,0,0,1,7.11-1.44,6.9,6.9,0,0,1,2,1v2.76H368v-2.51a7,7,0,0,0-1.76-.85,6.23,6.23,0,0,0-2-.32,6.65,6.65,0,0,0-2.47.44,6.16,6.16,0,0,0-2,1.24,5.91,5.91,0,0,0-1.36,1.83,5.32,5.32,0,0,0,0,4.46A5.53,5.53,0,0,0,359.8,319a6.16,6.16,0,0,0,2,1.24,7.1,7.1,0,0,0,4.6.11,6.68,6.68,0,0,0,1.81-.91l.35.32A7.43,7.43,0,0,1,366.54,320.78Z"/><path class="cls-2" d="M381.3,320.27a6.91,6.91,0,0,1-3.52.91,4.11,4.11,0,0,1-2.91-1,3.56,3.56,0,0,1-1.14-2.56v-8.12H371v-.44h3.24v8.78a3,3,0,0,0,.93,2,3.48,3.48,0,0,0,2.39.9,7,7,0,0,0,2.25-.35,5.94,5.94,0,0,0,1.87-1,4.54,4.54,0,0,0,1.29-1.47,3.75,3.75,0,0,0,.49-1.89v-6.53h-2.76v-.44h3.25v11.44h2.69V321h-2.9l-.1-1.68-.07-1.42A5.41,5.41,0,0,1,381.3,320.27Z"/><path class="cls-2" d="M389.07,321v-.44h2.51V297.62H389v-.44h3v23.33h3.07V321Z"/><path class="cls-2" d="M400.69,321V309.51h-3.11v-.44h3.11v-7.74h.49v7.74h4.44v.44h-4.44v11h3V321Z"/><path class="cls-2" d="M418.38,320.27a6.9,6.9,0,0,1-3.51.91,4.15,4.15,0,0,1-2.92-1,3.55,3.55,0,0,1-1.13-2.56v-8.12h-2.76v-.44h3.25v8.78a2.92,2.92,0,0,0,.92,2,3.48,3.48,0,0,0,2.4.9,7,7,0,0,0,2.25-.35,5.89,5.89,0,0,0,1.86-1,4.69,4.69,0,0,0,1.3-1.47,3.86,3.86,0,0,0,.49-1.89v-6.53h-2.76v-.44H421v11.44h2.68V321h-2.89l-.11-1.68-.07-1.42A5.35,5.35,0,0,1,418.38,320.27Z"/><path class="cls-2" d="M426.15,321v-.44h2.75v-11h-2.61v-.44h2.89l.07,1.68c0,.27,0,.51,0,.71s0,.44,0,.71a5.32,5.32,0,0,1,2.37-2.44,6.94,6.94,0,0,1,1.59-.63,8.87,8.87,0,0,1,1.84-.26v.45a6.91,6.91,0,0,0-2.19.4,6.32,6.32,0,0,0-1.83,1,4.62,4.62,0,0,0-1.22,1.46,3.81,3.81,0,0,0-.46,1.84v6.53h2.83V321Z"/><path class="cls-2" d="M446.86,320.7a7.53,7.53,0,0,1-5.21,0,7,7,0,0,1-2.13-1.3,6.06,6.06,0,0,1-1.46-2,5.56,5.56,0,0,1-.53-2.41,5.68,5.68,0,0,1,.53-2.4,5.57,5.57,0,0,1,1.46-2,7,7,0,0,1,4.79-1.81,6.49,6.49,0,0,1,2,.31A5.81,5.81,0,0,1,448,310a6.22,6.22,0,0,1,1.26,1.2,6.65,6.65,0,0,1,.91,1.55c-2,.75-3.94,1.47-5.89,2.18s-3.9,1.43-5.88,2.17a5.72,5.72,0,0,0,2.27,2.61,6.54,6.54,0,0,0,3.6,1,7,7,0,0,0,2.37-.41,6.43,6.43,0,0,0,2-1.14l.31.35A7.41,7.41,0,0,1,446.86,320.7Zm-5.43-10.79a6.27,6.27,0,0,0-2.15,1.69,5.6,5.6,0,0,0-1.17,2.38,4.94,4.94,0,0,0,.15,2.69l5.66-2.07,5.66-2.08a5.71,5.71,0,0,0-2.11-2.36,5.79,5.79,0,0,0-3.16-.9A6.28,6.28,0,0,0,441.43,309.91Z"/></svg>